<?xml version="1.0" encoding="UTF-8"?>
<svg id="Layer_2" xmlns="http://www.w3.org/2000/svg" viewBox="0 0 847.28 238.44">
  <defs>
    <style>
      .cls-1 {
        fill: #b3c187;
      }

      .cls-2 {
        fill: #85964d;
      }
    </style>
  </defs>
  <g id="Layer_1-2" data-name="Layer_1">
    <g>
      <path class="cls-2" d="M237.56,119.69c0,2.85-.07,5.65-.26,8.45s-.31,5.65-.71,8.43.15,5.81-.44,8.56-2.85,5.13-3.64,7.83-.16,5.92-1.15,8.56-3.15,4.84-4.33,7.41-2.81,4.88-4.17,7.36-2.4,5.12-3.93,7.49-2.75,4.97-4.45,7.24-3.66,4.32-5.52,6.46-3.33,4.65-5.34,6.65-4.64,3.33-6.79,5.18-4.61,3.24-6.87,4.94-3.6,4.74-5.98,6.27-4.83,3.08-7.32,4.44-5.15,2.49-7.73,3.67-5.77.86-8.43,1.85-5.3,1.79-8.03,2.59-5.3,1.9-8.08,2.5-5.43,1.68-8.25,2.09-5.65.23-8.49.43-5.62.35-8.47.35-5.65-.33-8.46-.53-5.63-.47-8.42-.87-5.8.14-8.56-.45-5.25-2.41-7.96-3.2-5.41-1.62-8.05-2.61-5.43-1.67-8-2.84-4.8-3.03-7.28-4.38-5.52-1.8-7.9-3.33-4.43-3.59-6.69-5.29-4.38-3.58-6.52-5.44-4.67-3.31-6.67-5.32-3.12-4.83-4.98-6.97-3.46-4.42-5.16-6.69-3.73-4.26-5.27-6.64-3.8-4.34-5.16-6.83-2.09-5.31-3.27-7.89-1.72-5.39-2.72-8.05-3.25-4.89-4.05-7.62.19-5.88-.42-8.66-1.34-5.45-1.74-8.27-1.41-5.51-1.61-8.36.28-5.65.28-8.5-.76-5.72-.56-8.52c.2-2.84.91-5.64,1.31-8.42s.14-5.78.74-8.53c.6-2.78,2.69-5.18,3.48-7.89s.82-5.7,1.8-8.34,2.38-5.17,3.56-7.73,2.52-5.08,3.88-7.56,3.48-4.49,5.01-6.87,2.68-4.99,4.38-7.25,3.34-4.56,5.19-6.7,3.43-4.55,5.44-6.55,3.9-4.17,6.04-6.03,4.86-3.02,7.13-4.72,4.93-2.76,7.32-4.29,4.63-3.18,7.12-4.55,4.95-2.67,7.53-3.85,4.99-2.68,7.65-3.67,5.44-1.51,8.16-2.31,5.33-1.89,8.11-2.5,5.52-1.21,8.34-1.61,5.55-1.5,8.4-1.7,5.7-.06,8.55-.06,5.73.17,8.53.37,5.63,1,8.42,1.4,5.41,1.86,8.16,2.46,5.56.97,8.26,1.77,5.49,1.4,8.13,2.38,5.08,2.47,7.65,3.64,5.32,1.97,7.8,3.33,4.5,3.45,6.87,4.98,4.72,3.02,6.99,4.72,4.52,3.33,6.66,5.19,4.2,3.73,6.2,5.74,3.88,4.06,5.74,6.2,4.54,3.6,6.25,5.87,3.59,4.45,5.13,6.84,1.74,5.56,3.1,8.05,2.63,4.96,3.82,7.54,2.6,5.01,3.59,7.67,1.43,5.45,2.23,8.18,1.66,5.36,2.26,8.14,2.09,5.36,2.49,8.18.9,5.62,1.1,8.47-.98,5.68-.98,8.54Z"/>
      <polygon class="cls-1" points="307.01 80.27 296.96 100.2 283.79 118.34 273.43 138.1 262.02 157.26 251.27 176.8 247.93 196.9 257.91 214.68 277.15 220.33 299.45 220.91 321.74 220.8 344.03 220.37 366.33 221.37 388.63 220.62 407.31 214.03 418.96 197.1 414.69 176.7 403.69 157.31 391.24 138.75 379.8 119.62 370.35 99.32 359.22 80.01 342.57 68.65 322.95 67.92 307.01 80.27"/>
      <path class="cls-2" d="M665.89,119.69c0,2.85-.07,5.65-.26,8.45-.2,2.84-.31,5.65-.71,8.43s.15,5.81-.44,8.56-2.85,5.13-3.64,7.83c-.8,2.73-.16,5.92-1.15,8.56s-3.15,4.84-4.33,7.41-2.81,4.88-4.17,7.36-2.4,5.12-3.93,7.49c-1.54,2.38-2.75,4.97-4.45,7.24s-3.66,4.32-5.52,6.46-3.33,4.65-5.34,6.65-4.64,3.33-6.79,5.18-4.61,3.24-6.87,4.94-3.6,4.74-5.98,6.27-4.83,3.08-7.32,4.44-5.15,2.49-7.73,3.67-5.77.86-8.43,1.85-5.3,1.79-8.03,2.59-5.3,1.9-8.08,2.5-5.43,1.68-8.25,2.09-5.65.23-8.49.43-5.62.35-8.47.35-5.65-.33-8.46-.53-5.63-.47-8.42-.87-5.8.14-8.56-.45-5.25-2.41-7.96-3.2-5.41-1.62-8.05-2.61-5.43-1.67-8-2.84-4.8-3.03-7.28-4.38-5.52-1.8-7.9-3.33-4.43-3.59-6.69-5.29-4.38-3.58-6.52-5.44-4.67-3.31-6.67-5.32-3.12-4.83-4.98-6.97-3.46-4.42-5.16-6.69-3.73-4.26-5.27-6.64-3.8-4.34-5.16-6.83-2.09-5.31-3.27-7.89-1.72-5.39-2.72-8.05-3.25-4.89-4.05-7.62.19-5.88-.42-8.66-1.34-5.45-1.74-8.27-1.41-5.51-1.61-8.36.28-5.65.28-8.5-.76-5.72-.56-8.52c.2-2.84.91-5.64,1.31-8.42s.14-5.78.74-8.53,2.69-5.18,3.48-7.89.82-5.7,1.8-8.34,2.38-5.17,3.56-7.73,2.52-5.08,3.88-7.56,3.48-4.49,5.01-6.87,2.68-4.99,4.38-7.25,3.34-4.56,5.19-6.7,3.43-4.55,5.44-6.55,3.9-4.17,6.04-6.03,4.86-3.02,7.13-4.72,4.93-2.76,7.32-4.29,4.63-3.18,7.12-4.55,4.95-2.67,7.53-3.85,4.99-2.68,7.65-3.67,5.44-1.51,8.16-2.31,5.33-1.89,8.11-2.5,5.52-1.21,8.34-1.61,5.55-1.5,8.4-1.7,5.7-.06,8.55-.06,5.73.17,8.53.37,5.63,1,8.42,1.4,5.41,1.86,8.16,2.46,5.56.97,8.26,1.77,5.49,1.4,8.13,2.38,5.08,2.47,7.65,3.64,5.32,1.97,7.8,3.33,4.5,3.45,6.87,4.98,4.72,3.02,6.99,4.72,4.52,3.33,6.66,5.19,4.2,3.73,6.2,5.74,3.88,4.06,5.74,6.2,4.54,3.6,6.25,5.87,3.59,4.45,5.13,6.84,1.74,5.56,3.1,8.05,2.63,4.96,3.82,7.54,2.6,5.01,3.59,7.67,1.43,5.45,2.23,8.18,1.66,5.36,2.26,8.14,2.09,5.36,2.49,8.18c.4,2.79.9,5.62,1.1,8.47s-.98,5.68-.98,8.54Z"/>
      <polygon class="cls-1" points="735.33 80.27 725.28 100.2 712.11 118.34 701.75 138.1 690.34 157.26 679.59 176.8 676.25 196.9 686.23 214.68 705.47 220.33 727.77 220.91 750.06 220.8 772.35 220.37 794.65 221.37 816.95 220.62 835.63 214.03 847.28 197.1 843.01 176.7 832.01 157.31 819.56 138.75 808.12 119.62 798.67 99.32 787.54 80.01 770.89 68.65 751.27 67.92 735.33 80.27"/>
    </g>
  </g>
</svg>