<?xml version="1.0" encoding="UTF-8"?>
<svg id="Layer_2" xmlns="http://www.w3.org/2000/svg" viewBox="0 0 1698.84 1650.05">
  <defs>
    <style>
      .cls-1 {
        stroke: #fff;
        stroke-linejoin: round;
        stroke-width: 4px;
      }

      .cls-1, .cls-2 {
        fill: #b3c187;
      }

      .cls-3 {
        fill: #fff;
      }
    </style>
  </defs>
  <g id="Layer_1-2" data-name="Layer_1">
    <g>
      <path class="cls-1" d="M853.47,473.85c-.04.29-.46,3.02-.22,3.71.41-.77.21-2.89.23-3.73v.02Z"/>
      <path class="cls-1" d="M854.02,479.94c-.98.14-1.38-1.79-1.63-2.57-.59-2.1.61-4.39,1.37-3.62,1.01,1.44,1.32,4.78.33,6.15l-.07.05Z"/>
      <path class="cls-1" d="M1081.06,790.1c1.71-17.01-2.59-17.4-10.21-31.18-3.15-5.64-4.35-12.79-8.78-17.59-6.13-5.84-14.66-7.93-21.54-12.9-4.12-2.81-8.32-6.19-13.03-8.82-3.42-1.94-7.02-3.59-10.51-5.38-6.55-3.4-13.1-7-20.17-8.15-4.18-1.08-12.99.12-13.24-5.72.08-5.12,1.57-10.92-2.51-14.99-3.21-3.33-8.15-5.11-12.07-7.68-4.51-3.03-9.18-5.7-14.18-7.01-5.03-1.71-12.2-1.6-19.05-1.56-8.41,0-18.05,0-26.28,0-6.67.16-10.3.06-14.69,2.97-4.19,3.2-6.24,8.02-8.47,13.26-1.89,4.75-3.71,9.91-5.72,14.71-3.9,9.51-9.99,18.16-12.41,28.23-1.91,7.09-3.28,14.17-6.98,20.7-3.54,6.62-7.45,12.81-12.22,18.27-4.11,4.86-6.99,10.47-4.68,17.07,2.87,7.94,9.38,14.37,16.44,18.77,6.66,4.47,14.78,4.49,22.39,5.32,9.62,1.63,17.81,3.29,26.87-1.49,7.55-3.87,16.43-6.03,23.5-10.39,7.19-4.56,13.34-12.53,22.48-12.64,13.36.21,22.87,13.18,34.62,18.21,7.1,3.41,14.33,5.02,21.44,7.11,8.25,2.39,16.75,5.23,25.44,6.98,15.75,2.83,26.1,4.95,35.35,19.35,2.78,3.81,8.15,13.01,9.92,4.45,1.36-9.28-1.06-18.34-1.58-27.88-.75-7.37-.91-14.63-.14-21.87"/>
      <path class="cls-1" d="M1080.73,846.69c-1.29-.04-2.83-1.5-4.56-3.85-7.72-11.8-13.33-20.2-28.48-23.31-12.37-2.24-24.55-5.54-36.55-9.32-7.87-2.29-15.68-4.06-23.08-7.97-10.73-5.15-19.88-17.22-32.43-17-9.66.6-15.2,9.21-23.65,13.65-7.7,3.71-15.91,6.48-23.64,10.14-8.43,3.87-16.62,1.89-25.26.56-11.1-.82-19.19-1.53-28.07-9.31-7.55-6.36-15.83-16.67-11.4-26.73,1.68-3.87,4.71-7.18,7.36-10.48,2.91-3.55,5.71-7.91,8.12-12.29,4.21-6.9,6.02-14.65,8.01-22.34,1.91-7.65,5.64-14.61,9.32-21.54,6.06-10.41,9.35-30.52,19.07-36.46,6.01-3.42,15.16-2.26,22.71-2.49,6.78,0,14.01.02,20.73-.01,6.02-.03,11.39,0,16.45,1.34,6.3,1.66,11.44,5.58,16.97,8.89,9.02,4.72,14.13,8.27,12.49,18.94-.1,1.92-.3,3.79,1.13,5.03,4.23,2.62,10.01,1.94,14.78,3.55,7.3,2.12,14.05,6.33,21.01,9.68,6.84,3.1,12.92,7.5,18.94,11.89,5.7,3.93,11.74,6.23,17.02,9.24,8.32,3.92,9.68,13.49,13.45,20.91,2.58,5.85,7.03,10.15,9.69,15.81,1.89,3.84,1.68,9.07,1.35,13.67-.58,6.9-1.24,13.85-.52,20.86-.21,6.94,6.23,37.67-.88,38.95h-.07ZM1079.89,840.9c1.9.31,2.57-6.07,2.25-9.2-.56-8.64-1.91-16.97-2.36-25.86-.94-9.27,1.56-18.57.4-27.69-.66-3.98-3.22-7.63-5.63-11.03-2.54-3.53-4.54-7.28-6.29-11.31-4.76-12.6-6.36-15.01-18.63-20.94-8.58-3.84-15.24-10.48-23.55-15.05-8.31-4.09-16.78-9.23-25.53-11.93-6.36-2.11-13.55-.44-17.19-4.37-1.33-1.86-.92-4.48-.87-6.66.8-7.79-1.82-11.78-8.98-15.43-4.47-2.29-8.64-5.64-13.06-7.82-10.44-5.34-23.62-3.5-35.71-3.8-34.81-.4-30.67-1.07-43.39,30.92-2.74,6.98-7,13.32-9.74,20.26-3.67,9.59-4.19,19.69-9.57,28.71-1.87,3.25-3.76,6.54-5.71,9.74-6.89,10.77-17.21,16.9-8.31,30.34,4.44,6.72,11.04,12.29,18.55,15.24,4.49,1.7,9.27,1.72,13.94,2.08,9.35.9,18.22,3.66,27.35-.42,7.47-3.46,15.43-6,22.82-9.63,8.63-4.67,14.82-13.66,24.96-14.18,14.03-.26,23.32,13.43,35.52,18.55,6.66,3.19,13.66,4.81,20.71,6.87,8.67,2.51,17.48,5.48,26.3,7.23,12.39,2.17,24.61,4.63,32.57,15.41,2.68,2.87,5.77,9.02,9.09,9.95"/>
      <path class="cls-1" d="M1065.98,822.45c-7.14-6.31-16.8-7.82-25.86-9.53-9.44-1.76-18.77-4.81-27.74-7.38-9.01-2.51-18.8-4.84-27.12-10.03-9.18-5.51-18.07-15.03-29.25-15.17-9.3.01-15.6,8-22.92,12.6-5.56,3.57-12.55,5.29-18.76,8.14-6.67,3.13-13.6,6.27-21.11,5.32-2.62-.21-5.29-.73-7.91-1.15-4.93-.88-10.62-1.01-16.03-1.84-3.65-.47-7.48-1.51-11.08-1.17-11.27,2.05-1.03,14.97,2.51,20.8,4.43,6.8,8.48,15.09,17.38,16.43,6.45,1.27,14.01,1.71,18.7,6.96,4.7,4.94,6.27,13.29,10.23,18.95,2.42,3.65,6.39,6.4,10.68,7.76,4.73,1.58,8.83,1.31,13,.3,4.52-1.01,8.07-2.79,11.68-1.86,6.64,1.81,12.64,8.52,17.42,13.52,4.59,4.75,8.58,10.4,7.95,17.33-.15,8.28-7.11,14.96-8.96,22.38-2.1,9.39,3.7,21.32,13.25,24.16,6.59,1.85,14.81-2.85,22.27-3.91,10.81-2.1,16.88-3.41,17.76-15.88.46-4.14.78-8.4,1.78-12.48,1.66-7.21,5.12-14.23,6.18-21.22,1.56-8.3-1.27-17.38,1.62-25.4,3.62-9.87,18.03-12.44,26.87-9.7,6.39,2.15,9.29,11.26,16.54,11.26,6.56-.92,10.55-9.79,12.29-15.58,3.72-12.28-1.49-25.19-11.22-33.5"/>
      <path class="cls-1" d="M1452.31,674.27s-.06,0-.09,0c.1.01.18.03.09,0"/>
      <path class="cls-1" d="M1453.14,675.5l-1-.17.02-.53-.14.5.14-.51-.19.49.19-.57.02-.46-.86-.23.86.22.04-1.04.43.06.93.32-.45,1.91Z"/>
      <path class="cls-1" d="M1436.56,798.82c-.08.16-.14.28-.2.41l.2-.41"/>
      <path class="cls-1" d="M1437.31,799.72l-1.9-.97.95.47-.94-.49.2-.4,1.9.96-.95-.47.95.49-.19.39h0v.02Z"/>
      <path class="cls-1" d="M1526.75,557.26v.02s0-.01,0-.02"/>
      <path class="cls-1" d="M1524.04,563.83l1.82-7.15.89.59h0s.01,0,.01,0l1.01.28-.89-.22.84.39-.09.14-.81-.54.81.54h0s-1.8-1.11-1.8-1.11l1.8,1.11-3.58,5.98Z"/>
      <path class="cls-1" d="M741.25,1386.23l-.17.04c.07-.01.11-.02.17-.04"/>
      <path class="cls-1" d="M741.41,1387.21c-.21-.43-.44-1.32-.54-1.75-.07-.29-.07-.34,0-.15.17.48.78,1.96.57,1.94l-.03-.04ZM741.43,1387.23v.05s0-.05,0-.05Z"/>
      <path class="cls-1" d="M1526.74,557.28l-.28.58.28-.58"/>
      <path class="cls-1" d="M1527.41,558.33l-1.92-.92.29-.59,1.92.92h0s-.28.59-.28.59Z"/>
      <path class="cls-1" d="M750.92,1018.12c1.16-6.26.96-12.99,1.99-19.08.9-6.29,2.67-12.63,3.72-18.96,1.35-8.02-.61-15.56-1.97-23.16-1.41-7.13-4.95-13.63-7.22-20.65-2.84-7.05-4.96-14.63-5.88-22.28-.89-5.51-2.43-11.12-2.86-16.08-1.87-12.85,7.14-23.62,16-31.76,6.5-5.6,13.34-8.26,15.77-16.95,4.33-18.08-1.35-29.32-20.88-31.3-7.53-.88-15.22.78-23.03.02-11.3-1.32-26.18-6.06-34.75-13.63-6.52-6.31-14.58-8.23-22.75-10.79-7.55-4.58-10.29-13.05-19.88-4.69-7.11,6.53-14.91,12.82-23.31,17.78-21.07,12.25-38.6,32.82-40.89,57.8-4.94,29.97.46,61.44-5.85,91.24-2.17,9.86-4.02,20.2-3.97,30.47-.02,7.81.98,15.82,1.53,23.59.81,12,2.04,24.71,3.95,36.44,1.33,8.61,1.09,17.44-1.26,25.82-1.48,5.71-3.15,11.47-4.63,17.21-1.17,5.63-8.14,25.65,2.07,22.35,19.2-6.57,27.86,5.02,43.69,11.75,20.19,7.38,24.73-24.05,42.93-26.27,10.95-1.64,22.18,5.13,33.11.91,9.05-2.83,17.3-9.92,21.12-18.77,4.3-8.33,1.66-17.42.19-26.01-.71-6.56-.79-14.63,4.75-19.16,10.64-6.98,23.26,4.23,28.29-15.67"/>
      <path class="cls-1" d="M966.64,938.95c-9.38-17.99,1.07-20.91,5.13-36.19,1.09-5.55-.13-11.1-3.59-15.41-4.02-5.06-8.82-9.96-13.89-14.1-7.33-5.6-10.93-4.38-19.24-2.17-7.65,2.04-17.18-.13-22.44-6.51-8.9-12.07-6.86-23.81-25.43-26.35-6.13-.83-12.05-2.6-15.74-7.7-4.66-6.29-9.73-13.69-12.99-20.68-2.03-4.66-2.38-9.58-3.87-14.5-2.81-9.51-13.19-16.52-23.03-16.11-6.06.01-11.9,2.32-17.09,5.42-9.23,5.8-19.97,10.83-28.44,17.97-4.22,3.9-7.44,8.77-10.37,13.68-2.77,4.89-5.27,9.73-6.71,15.85-2.24,10.17-1.04,21.66-10.64,28.24-6.47,4.48-12.48,9.49-17.38,15.85-9.27,10.83-8.49,20.58-5.41,33.41,1.3,5.82,1.73,11.88,3.32,17.19,1.01,3.5,2.37,6.89,3.63,10.29,2.17,6.52,5.4,12.65,7.01,19.19,1.19,5.74,2.36,11.24,2.79,17.16.41,9.65-3.57,19.17-4.54,28.64-.96,6.22-.48,12.63-2.19,18.96-1.86,7.34-8.57,16.4.69,20.98,3.42,1.76,7.74,2.29,11.58,2.87,5.14.8,10.8,1.5,15.96,2.25,3.49.51,6.99,1.02,10.5.63,4.84-.45,9.74-2.81,15.11-4.8,6.82-2.73,15.11-3.99,20.22-9.37,5.72-6.28,6.65-15.67,11.78-22.31,4.61-6.32,12.17-8.34,19.37-5.61,4.52,1.58,8.79,4.17,13.06,6.38,6.49,3.45,13.29,6.07,20.12,7.82,6.71,1.65,15.9,3.89,20.91,2.18,11.1-3.78,1.65-20.74,10.43-26.29,2.78-1.78,6.91-1.83,10.4-1.99,6.03.04,12.88-1.6,18.21-5.22,9.91-6.33,18.25-14.52,24.12-24.56,5.18-8.62,3.07-16.84-1.26-24.92"/>
      <path class="cls-1" d="M1083.73,845.04c-5.78-1.37-8.02,5.55-10.62,10.3-1.98,4.21-4.08,8.14-7.37,10.87-5.18,4.33-9.87-.06-14.51-4.52-4.31-4.42-10.64-6.35-17.05-5.8-8.59.44-16.84,5.01-17.71,14.27-.94,6.71.71,13.61-.25,20.37-1.13,9.2-6.22,17.92-7.45,27.19-1.79,12.2.65,22.78,5.76,33.11,2.94,5.62,6.99,11.12,10.4,16.56,6.72,11.09,10.46,24.16,11.09,37.05.45,12.62,2.29,20.17,12.59,28.32,7.08,5.84,13.09,11.18,21.37,8.65,10.4-3.93,17.49-14.22,16.81-25.69-.45-6.68-3.16-12.11-5.17-17.78-2.61-6.52,1.55-12.54,5.8-17.43,3.09-3.55,6.51-7.39,10.42-9.48,3.01-1.64,6.46-1.59,9.81-1.53,2.83.07,5.57-.19,8.34-.21,2.18,0,4.3.09,6.42-.21,4.89-.77,9.37.08,14.33-2.02,11.68-5.29,8.12-14.82,1.07-23.03-7.59-9.56-17.29-21.35-24.52-31.63-5.73-8.29-9.35-17.76-13.48-26.97-2.77-6.41-6.17-12.53-8.39-19.11-1.15-3.44-1.66-6.31-2.19-9.02-.9-4.15-1.07-10.61-5.43-12.25"/>
      <path class="cls-1" d="M1039.48,1010.17c-1.65-6.9-1.32-14.2-2.51-21.27-1.96-10.68-6.06-21.09-12.1-30.17-10.82-17.37-16.03-26.63-38.39-19.52-9.02,2.92-16.62,10.21-22.1,17.97-5.27,7.77-10.68,15.3-18.27,21.25-4.39,3.49-9.32,7.11-14.6,8.8-7.83,3.31-20.84-1.37-23.97,8.3-2.85,9.44,2.26,19.83,3.94,29.21,1.74,7.64,2.16,15.22,2.88,22.66.89,7.96,1.77,16.36,2.05,24.19.41,6.18-1.55,12.44-.4,18.55,1.72,8.79,7.76,5.35,13.86,4.42,5.05-.97,7.2,3.14,5.93,7.64-.42,1.77-1.05,3.59-1.54,5.34-3.18,10.32,7.63,8.84-.68,20.64-2.38,3.95-4.92,8.04-6.71,12.35-7.07,14.76-1.04,24.99,12.55,32.62,7.11,4.05,14.7,3.9,22.85,3.82,4.9-.04,10.49-.09,15.49-.14,10.56-.2,16.99.52,20.1-10.47,2.19-7.03,6.59-10.06,9.71-1.75,1.78,4.67,1.86,11.39,2.26,17.31.29,4.67.81,9.4,1.19,14.02.81,6.66.14,13.7,2.46,20.09,1.7,4.17,4.59,8.32,9.01,7.32,4.2-1.08,7.21-5.04,10.82-7.39,3.13-2.05,7.73-4.11,12.63-8.35,3.59-3.05,7.04-6.4,10.51-9.61,6.35-5.82,14.06-13.64,22.76-9.31,7.26,3.47,15.51,7.35,23.73,6.14,6.07-1.05,6.75-6.64,7.43-11.97.66-5.43,3.12-11.12,4.99-16.37,3.79-9.82,7.47-19.69,8.09-30.32.82-8.09,1.5-16.7-.75-24.6-1.79-6.28-5.41-11.69-8.56-17.36-5.33-8.95-7.72-19.09-10.92-28.65-1.2-3.27-4.16-13.3-8.49-9.52-2.11,2.15-3.7,6.68-5.37,9.53-1.04,1.62-3.95,7.69-5.38,3.87-.57-1.28-.76-2.71-.82-4.16.31-8.59-1.89-12.16-8.4-17.92-6.71-5.38-13.72-10.56-20.23-16.97-6.33-5.64-13.39-11.58-15.01-20.06"/>
      <path class="cls-1" d="M918.39,1057.84c-.5-4.1-1.1-8.1-1.42-12.14-.56-5.34-.3-11.08-1.89-16.23-3.62-11.63-19.16-11.38-29.85-14.41-9.86-2.32-19.18-6.36-27.77-11.76-7.49-4.69-16.41-7.43-23.48-.74-7.84,6.94-7.55,19.91-14.45,26.8-6.08,5.71-15.74,5.89-22.92,9.9-12.83,6.42-11.17,22.17-12.24,34.36-.77,8.22-.83,16.5-.89,24.91.13,8.35-.36,18.25,6.26,23.88,5.43,4.5,13.32,4.46,20.57,8.18,2.41,1.21,4.68,2.72,6.9,4.23,7.8,5.6,16.79,11.55,25,3.25,2.22-2.05,4.44-4.73,7.54-5.42,3.79-1.33,11.03,1.55,10.45-2.2-1-7.16-5.98-13.23,5.56-11.15,1.44.04,5.07,1.22,5.3-.44.2-2.11-7.28-9.9-7.81-15.26-.63-3.68,1.79-7.2,4.93-8.89,2.19-1.2,4.12-1.07,5.05.41,2.07,3.8.43,9.4,3,12.99,1.58,2.11,4.68,2.1,7.05,1.39,3.75-1.15,6.7-3.48,9.68-6.25,3.63-3.38,7.16-7.02,10.28-10.63,10.5-11.94,17.62-16.97,15.16-34.59"/>
      <path class="cls-1" d="M1493.79,654.29l.05-.05s-.33.22-.05.05"/>
      <path class="cls-1" d="M1493.47,655.74l-.68-.81-.56-.87,8.85-6.04-6.72,7.17-.88.55ZM1493.09,653.49l.32.37-.32-.37Z"/>
      <path class="cls-1" d="M1452.11,674.25c.05,0,.09,0,.12,0-.04,0-.08,0-.12,0"/>
      <g>
        <polygon class="cls-2" points="1452.04 675.31 1452.04 675.17 1452.01 675.3 1452.22 673.19 1452.45 673.22 1452.04 675.31"/>
        <polygon class="cls-3" points="1452.22 673.19 1452.01 675.3 1452.04 675.17 1452.04 675.31 1452.45 673.22 1452.22 673.19 1452.22 673.19"/>
      </g>
      <path class="cls-1" d="M1526.91,556.92l-.16.34.16-.34"/>
      <g>
        <polygon class="cls-2" points="1527.71 557.71 1525.79 556.81 1525.96 556.45 1527.87 557.4 1527.71 557.71"/>
        <polygon class="cls-3" points="1525.96 556.45 1525.79 556.81 1527.71 557.71 1527.87 557.4 1525.96 556.45 1525.96 556.45"/>
      </g>
      <path class="cls-1" d="M1436.37,799.22l-.21.43.21-.43"/>
      <g>
        <polygon class="cls-2" points="1437.14 800.07 1435.2 799.2 1435.41 798.75 1437.32 799.68 1437.14 800.07"/>
        <polygon class="cls-3" points="1435.41 798.75 1435.2 799.2 1437.14 800.07 1437.32 799.68 1435.41 798.75 1435.41 798.75"/>
      </g>
      <path class="cls-1" d="M742.31,1386s-1.1.25-1.04.23c0,0,.8-.18,1-.23"/>
      <g>
        <path class="cls-2" d="M741.57,1387.12c-.37-.3-.62-.87-.52-1.37.11-1,.77-.88,1.19-.23.57.69.3,2.15-.54,1.7l-.13-.09Z"/>
        <path class="cls-3" d="M741.56,1385.02c-.24,0-.45.22-.5.74-.1.5.15,1.07.52,1.37l.13.09c.11.06.21.09.3.09.6,0,.74-1.19.24-1.78-.2-.31-.46-.5-.69-.5h0Z"/>
      </g>
      <g>
        <path class="cls-1" d="M364.9,722.84c-.17-.05-.9-.19-1.09-.21-.16-.02-.14.01.06.06.31.08.7.14,1.01.15"/>
        <g>
          <path class="cls-2" d="M364.94,723.59c-1.51.68-3.82-1-5.12-1.86-.41-.37-1.03-.64-.98-1.14.28-.46,4.58.3,5.94,1.63.4.35.71.92.25,1.31l-.09.06Z"/>
          <path class="cls-3" d="M359.43,720.45c-.32,0-.53.04-.59.14-.05.5.57.77.98,1.14,1.09.72,2.88,2.02,4.33,2.02.28,0,.55-.05.79-.16l.09-.06c.47-.38.15-.96-.25-1.31-1.09-1.07-4.07-1.77-5.35-1.77h0Z"/>
        </g>
        <path class="cls-1" d="M180.23,1131.08l.15.1-.15-.1"/>
        <g>
          <path class="cls-2" d="M179.72,1132.12c-.07.08.28-.53.65-1.14.35-.55.62-.9.5-.65-.29.57-.76,1.26-1.11,1.74l-.04.05ZM180.68,1130.44c-.06.09-.45.63-.44.62,0,.01.37-.53.44-.62h0Z"/>
          <path class="cls-3" d="M180.89,1130.25s-.26.31-.53.73c-.35.57-.68,1.15-.66,1.15,0,0,0,0,0,0l.04-.05c.35-.48.82-1.17,1.11-1.74.03-.06.03-.08.02-.08h0ZM180.68,1130.44s0,0,0,0c0,0,0,0,0,0h0ZM180.68,1130.44s0,0,0,0c0,0,0,0,0,0h0ZM180.68,1130.45h0s0,0,0,0h0ZM180.68,1130.45s0,0,0,0c0,0,0,0,0,0h0ZM180.68,1130.45s0,0,0,0c0,0,0,0,0,0h0ZM180.68,1130.45c-.07.1-.43.62-.43.62,0,0,.36-.52.43-.62h0ZM180.25,1131.06s0,0,0,0c0,0,0,0,0,0h0Z"/>
        </g>
        <path class="cls-1" d="M179.32,1130.45s.94.66.89.62c0,0-.68-.47-.85-.59"/>
        <g>
          <path class="cls-2" d="M179.31,1131.98c-.36.06-.57-.14-.58-.51-.12-.83.84-1.82,1.62-1.85.35-.03.52.22.48.62-.03.75-.64,1.48-1.34,1.69l-.18.04Z"/>
          <path class="cls-3" d="M180.41,1129.62s-.04,0-.06,0c-.79.03-1.74,1.02-1.62,1.85.01.33.18.52.46.52.04,0,.08,0,.12-.01l.18-.04c.7-.2,1.31-.94,1.34-1.69.03-.38-.12-.63-.43-.63h0Z"/>
        </g>
        <path class="cls-1" d="M274.47,1268.5c-.29-.2-.76-.31-1.08-.43-.21-.04-.24-.02-.05.06.34.14,1.15.47,1.16.41"/>
        <g>
          <path class="cls-2" d="M278.06,1270.83c-1.25.4-3.76-.92-4.98-1.67-1.8-1.19-1.12-2.62.82-2.02,1.39.45,2.78,1.56,3.72,2.61.39.46.56.83.47,1.02l-.04.06Z"/>
          <path class="cls-3" d="M273.06,1266.99c-1.26,0-1.49,1.16.02,2.16,1.07.66,3.11,1.74,4.45,1.74.19,0,.37-.02.53-.07l.04-.06c.09-.19-.08-.56-.47-1.02-.94-1.05-2.34-2.16-3.72-2.61-.31-.1-.59-.14-.84-.14h0Z"/>
        </g>
        <g>
          <path class="cls-2" d="M139.97,1647.95c-.04-.57.02-1.77.59-4.13,1.6-6.98,1.32-11.57-.86-14.47-2.52-3.35-6.84-3.59-11.01-3.81-3.46-.19-7.03-.38-9.33-2.35-1.52-2.67-1.74-6-1.98-9.51-.26-4.01-.54-8.15-2.76-11.81-5.14-9.54-4.97-9.7,3.08-17.23l.34-.32s.09-.09.13-.14c1.6-1.82,2.32-4.14,2.03-6.54-.09-1.18-.4-2.36-.71-3.51-.41-1.55-.77-2.9-.52-4.13.98-2.14,3.08-3.74,5.3-5.44,2.53-1.93,5.14-3.93,6.58-7,1.64-3.48,1.8-6.91.47-10.18-2.9-7.14-12.17-11.5-17.43-13.46-3.34-1.21-6.68-2.51-9.91-3.77-4.74-1.85-9.63-3.75-14.57-5.39-2.74-1.05-4.96-3.25-7.32-5.57-1.99-1.96-4.04-3.99-6.57-5.43-1.84-1.31-4.06-1.97-6.21-2.61-3.53-1.05-5.77-1.85-6.66-4.05-.05-.4-.02-.71.08-.83.12-.14.69-.59,3.21-.59,1.33,0,2.88.12,4.53.24,1.88.14,3.82.29,5.75.29,3.01,0,7.3-.33,10.07-3.11,3.29-2.68,5.36-6.93,5.55-11.42.18-4.12-1.23-7.83-3.98-10.44-1.78-1.85-4.03-3.31-6.2-4.71-2.23-1.44-4.34-2.81-5.91-4.57-2.3-2.6-.38-5.9,2.96-11.07,2.61-4.05,5.57-8.63,5.37-13.47,1.19-11.66-6.6-20.05-13.49-27.45-7.23-9.4-11.63-15.08-24.53-18.93-4.28-1.42-7.13-4.75-10.16-8.28-2.2-2.56-4.47-5.21-7.41-7.21-1.71-1.2-3.58-2.06-5.39-2.9-1.83-.84-3.55-1.63-5.03-2.73-3.93-3.23-3.79-9.23-3.65-15.04.03-1.34.06-2.6.04-3.84.16-3.29.02-6.28-.11-8.92-.23-4.8-.41-8.6,1.11-12.35.45-.74,1.04-1.13,3.02-1.42,19.24-2.65,52.11-11.72,81.11-19.72,15.76-4.35,30.64-8.45,40.91-10.83,13.55-1.83,12.51-15.79,12.01-22.5-.35-5.01-3.28-8.01-7.83-8.01-.16,0-.33,0-.5.01-2.05-.02-4.36-.03-6.9-.03-12.67,0-30.91.26-50.22.54-21.82.31-44.38.64-62.07.64-7.52,0-13.58-.06-18.31-.18,15.74-9.44,38.56-21.99,58.96-33.22,14.66-8.06,27.32-15.03,35.31-19.71,2.21-1.02,4.27-2.32,6.27-3.59,1.44-.91,2.8-1.77,4.19-2.52.52-.28.89-.78,1.01-1.35.12-.58-.02-1.18-.39-1.65-4.26-5.39-6.99-10.87-8.37-16.74.83-8.1,7.53-9.33,19.22-10.78,15.53-1.94,36.81-4.59,43.47-35.88,2.05-10.84-3.66-18.75-9.18-26.4-3.65-5.05-7.09-9.82-8.51-15.4-.02-.08-.05-.16-.08-.24-1.48-3.77-2.04-8.78-2.64-14.08-1.36-12.13-2.91-25.87-16.64-28.45-.07-.01-.13-.02-.2-.03-1.06-.09-2.21-.13-3.64-.13-1.02,0-2.06.02-3.12.04-1.05.02-2.12.04-3.19.04-2.53,0-5.48-.11-8.2-.9-32.89-9.35-61.58-34.97-87.73-78.32-2.44-4.83-5.01-9.22-7.28-13.09-4.99-8.51-8.92-15.24-6.93-19.06,1.96-3.75,9.83-6.05,24.78-7.23.1,0,.21-.02.31-.05,10.09-2.41,18.53-3.58,25.8-3.58,11.69,0,18.8,3.07,26.32,6.32,7.94,3.43,16.15,6.97,30.17,7.55.03,0,.05,0,.08,0,.06,0,.12,0,.18,0,6.49-.59,12.68-2.72,18.66-4.77,7-2.41,13.61-4.68,20.7-4.73.05,0,.1,0,.15,0,12.59-1.03,15.9-6.48,19.39-12.24,4.17-6.87,9.35-15.43,33.65-21.03.05-.01.1-.02.15-.04,4.51-1.42,9.61-2.17,14.75-2.17,13.33,0,24.49,4.91,29.92,13.15,1.52,4.04-.8,7.01-4.69,11.47-3.09,3.54-6.58,7.55-6.61,12.81-.16,6.58,3.69,15.08,9.58,21.12,4.58,4.69,9.81,7.28,14.72,7.28,2.61,0,5.11-.71,7.43-2.11.21-.13.4-.3.55-.5,3.32-4.33,2.15-9.52,1.11-14.11-.72-3.2-1.41-6.22-.71-8.77.88-3.8,4.78-5.73,8.91-7.77,2.36-1.17,4.81-2.38,6.73-3.99.07-.06.13-.12.19-.18,5.36-5.87,1.42-12.15-1.75-17.2-1.81-2.88-3.67-5.85-3.83-8.46-.08-4.31-1.63-8.25-3.14-12.06-1.32-3.34-2.57-6.51-2.76-9.76,3.02-3.03,5.48-4.85,7.48-6.33,6.12-4.53,8.29-6.91,9-22.86,2.5-16.95-2.2-24.87-7.18-33.25-4.58-7.72-9.78-16.47-10.78-34.41,0-.18-.04-.35-.1-.52-1.18-3.57-2.3-6.78-3.29-9.6-7.88-22.61-8.53-24.45,14.12-46.89.03-.02.05-.05.07-.08,17.22-18.94,27.05-22.81,36.5-22.81,3.04,0,6.15.38,9.44.79,3.84.47,8.2,1.01,13.16,1.01,7.79,0,15.74-1.36,24.31-4.16.76-.21,1.67-.44,2.62-.68,4.83-1.21,10.85-2.73,13.07-6.95,1.09-2.07,1.13-4.49.12-7.2-.01-.03-.02-.06-.04-.1-2.08-4.81-2.34-8.65-.74-11.08,1.63-2.49,4.74-2.86,6.45-2.86,4.33,0,8.84,2.18,11.5,5.55,2.43,3.08,3.17,6.94,2.16,11.16l-.04.21c-1.31,5.75-5.2,10.33-9.32,15.17-2.67,3.14-5.44,6.4-7.5,10.06-2.45,4.28-5.29,8.61-8.03,12.79-8.17,12.46-16.62,25.35-17.73,40.84-.32,6.81.62,13.58,1.53,20.13.94,6.81,1.92,13.84,1.44,20.73-.23,6.21-1.81,12.32-3.34,18.24-1.63,6.28-3.31,12.78-3.48,19.54-.07,4.67.23,9.41.52,14,.39,6.12.79,12.45.31,18.53-.32,5.29-1.79,10.49-3.21,15.52-1.81,6.39-3.67,13.01-3.37,20.08,0,.05,0,.1.01.15,1.81,15.36.81,31.5-3.06,49.34-1.02,5.17-1.59,10.61-2.15,15.87-1.05,10.02-2.14,20.38-6.33,29.12-1.06,1.8-1.95,1.8-2.28,1.8-1.83,0-4.46-2.2-6.78-4.15-2.64-2.21-5.12-4.29-7.61-4.29-1.47,0-3.46.7-4.6,4.03-.06.16-.09.34-.1.51-.96,13.65,10.2,20.89,20.05,27.28,3.39,2.2,6.59,4.27,9.22,6.52,9.47,10.33,5.92,24.02-10.84,41.84-.05.05-.09.11-.14.16-4.24,5.59-5.03,12.35-5.79,18.89-.4,3.43-.81,6.97-1.73,10.19-1.44,5.48-3.95,10.73-6.38,15.81-2.16,4.53-4.4,9.21-5.94,14.12-.02.07-.04.13-.05.2-2.45,11.99-3.02,24.74-3.57,37.08-.85,19.05-1.73,38.76-9.57,55.96-2.07,3.2-3.18,7.36-4.25,11.38-2.35,8.82-4.27,14.18-10.98,14.18-.33,0-.68-.01-1.04-.04-1.5-.23-3.03-.45-4.58-.67-8.05-1.14-16.36-2.31-22.86-6.39-1.89-1.7-1.45-3.29.15-6.95.95-2.17,2.02-4.62,1.8-7.22-.57-4.45-1.62-8.92-5.11-8.92-2.49,0-4.53,2.59-6.89,5.59-1.35,1.71-2.75,3.48-4,4.44-5.98,2.49-14.14,2.81-20.6,2.81-3.19,0-6.47-.09-9.64-.18-3.19-.09-6.21-.17-9.17-.17-2.66,0-4.92.07-6.92.21-4.48.06-9.65.07-14.65.08-5.98.01-11.63.02-16.1.12h-.15c-1.93,0-4.01.23-6.02.45-1.53.17-3.1.34-4.6.41-1,.05-1.81.83-1.9,1.82-.25,2.81-.77,5.6-1.32,8.56-.39,2.1-.8,4.27-1.09,6.45-1.43,8.89-1.56,18.81-1.68,28.4-.02,1.88-.05,3.74-.08,5.56-.26,2.26-.07,9.77,2.3,12.48.88,1,1.85,1.21,2.51,1.21,2.05,0,3.47-1.95,4.36-3.46,1.71-2.34,2.38-6.46,3.08-10.82.84-5.19,1.89-11.65,4.61-11.65.27,0,.58.05.91.15,2.49,1.57,4.24,4.17,6.1,6.92,2.46,3.65,5,7.42,9.54,9.24,4.83,2.01,10.21,2.12,15.41,2.23,5.38.11,10.45.22,14.98,2.24,4.75,1.94,11.82,8.05,12.22,13.29.16,2.13-.92,3.86-3.3,5.29-3.26,1.86-7.2,2.84-11.36,3.87-5,1.24-10.17,2.52-14.5,5.53-.05.03-.09.07-.14.1-9.89,8.21-3.96,20.91.8,31.11,2.06,4.41,4,8.57,4.67,12.03,0,.05.02.09.03.14,1.61,5.97,1.91,12.63,2.2,19.08.06,1.31.12,2.6.19,3.88,0,.03.16,1.51.16,1.51.95,8.92,1.84,17.34-1.98,25.13-1.22,2.74-2.2,5.49-3.15,8.15-1.5,4.21-2.93,8.19-5.09,11.9-1.62,2.76-3.68,5.22-5.68,7.6-3.26,3.88-6.64,7.9-8.2,13.32-.57,2.05-1.11,4.1-1.66,6.17-1.78,6.71-3.62,13.65-6.25,20.07-.01.03-.03.07-.04.1-.35.99-.68,1.99-1.02,2.99-1.68,5.01-3.27,9.75-6.17,13.85-1.51,2.21-3.32,4.16-5.23,6.23-2.09,2.25-4.25,4.58-5.98,7.27-5.57,8.19-4.71,19.99,2.03,27.41,1.74,2.1,3.85,3.94,5.9,5.71,1.66,1.44,3.22,2.8,4.62,4.32,4.05,4.56,2.72,9.33,1.03,15.38-1.55,5.54-3.3,11.82-1.09,19.12,1.42,5.98.5,8.6-3.89,11.21-4.19,2.56-7.16,6.37-10.03,10.05-.91,1.17-1.77,2.27-2.66,3.33-3.81,4.5-8.16,8.41-12.92,11.62-1.91,1.33-2.95,1.82-3.47,1.99Z"/>
          <path class="cls-3" d="M394,689.76c3.68,0,7.67,1.92,9.93,4.78,2.06,2.62,2.66,5.8,1.78,9.46,0,.04-.02.08-.03.12l-.02.11c-1.21,5.3-4.94,9.69-8.89,14.33-2.73,3.22-5.56,6.54-7.7,10.35-2.43,4.24-5.25,8.54-7.97,12.7-8.31,12.68-16.91,25.78-18.05,41.79,0,.03,0,.07,0,.1-.32,6.95.63,13.81,1.55,20.44.97,7.01,1.89,13.64,1.43,20.32,0,.04,0,.09,0,.13-.22,5.93-1.7,11.67-3.28,17.75-1.65,6.39-3.36,13-3.54,20.03-.07,4.73.24,9.51.53,14.13.4,6.33.78,12.3.31,18.24v.07c-.31,5.04-1.69,9.91-3.14,15.06-1.85,6.55-3.76,13.31-3.44,20.71,0,.1.01.2.02.3,1.79,15.14.8,31.06-3.03,48.68,0,.02-.01.05-.02.07-1.03,5.23-1.61,10.71-2.17,16.02-1.03,9.82-2.1,19.97-6.1,28.39-.27.44-.48.66-.58.74-1.15-.09-3.93-2.42-5.44-3.68-2.92-2.45-5.68-4.76-8.89-4.76-1.73,0-4.89.7-6.49,5.38-.11.33-.18.67-.21,1.02-1.04,14.83,11.15,22.74,20.95,29.1,3.29,2.13,6.4,4.15,8.92,6.28,8.52,9.41,4.95,22.18-10.91,39.03-.1.1-.19.21-.27.32-4.57,6.02-5.39,13.06-6.18,19.87-.41,3.5-.79,6.81-1.67,9.87,0,.03-.02.05-.02.08-1.38,5.25-3.74,10.19-6.24,15.42-2.19,4.59-4.46,9.34-6.04,14.38-.04.13-.08.26-.1.4-2.48,12.15-3.05,24.98-3.61,37.39-.84,18.82-1.71,38.27-9.33,55.09-2.19,3.44-3.32,7.7-4.42,11.82-2.35,8.83-3.92,12.7-9.05,12.7-.26,0-.53,0-.81-.03-1.49-.23-3.03-.45-4.52-.66-7.78-1.1-15.82-2.23-21.94-6.02-.65-.6-.72-1.1.79-4.54,1.04-2.38,2.22-5.08,1.96-8.19,0-.06-.01-.11-.02-.17-.41-3.16-1.37-10.58-7.08-10.58-3.46,0-5.89,3.08-8.46,6.35-1.15,1.45-2.43,3.08-3.45,3.93-5.63,2.26-13.4,2.56-19.58,2.56-3.16,0-6.43-.09-9.59-.17-3.07-.08-6.24-.17-9.22-.17-2.68,0-4.97.07-7,.21-4.45.06-9.58.07-14.55.08-5.98.01-11.63.02-16.11.12h-.16c-2.04,0-4.17.23-6.24.46-1.5.16-3.04.33-4.47.4-2,.09-3.62,1.65-3.8,3.65-.24,2.72-.75,5.46-1.29,8.36-.39,2.11-.8,4.29-1.1,6.49-.61,3.83-.99,7.82-1.23,11.89-.05-1.16-.13-2.21-.19-3.11-.42-6-4.28-9.88-9.83-9.88-.18,0-.35,0-.53.01-1.97-.02-4.28-.03-6.86-.03-12.68,0-30.93.26-50.25.54-21.82.31-44.37.64-62.05.64-4.18,0-7.91-.02-11.2-.05,15.18-8.88,34.94-19.75,52.83-29.59,14.62-8.04,27.25-14.99,35.27-19.68,2.3-1.07,4.39-2.39,6.41-3.67,1.41-.89,2.74-1.73,4.07-2.45,1.04-.56,1.78-1.55,2.02-2.71.24-1.16-.04-2.36-.78-3.29-3.99-5.05-6.58-10.17-7.91-15.62.78-6.03,5.54-7.2,17.44-8.68,16.13-2.01,38.22-4.76,45.17-37.44,0-.03.01-.06.02-.09,2.21-11.64-4.03-20.28-9.53-27.9-3.53-4.89-6.87-9.51-8.19-14.72-.04-.16-.09-.32-.15-.48-1.38-3.52-1.93-8.4-2.51-13.57-1.37-12.18-3.07-27.34-18.26-30.19-.13-.02-.26-.04-.4-.05-1.11-.1-2.32-.14-3.81-.14-1.03,0-2.09.02-3.16.04-1.04.02-2.11.04-3.15.04-2.39,0-5.16-.1-7.66-.83-17.62-5.01-34.44-15.15-50-30.13-12.87-12.39-24.81-27.84-36.51-47.23-2.46-4.86-5.03-9.25-7.31-13.13-4.3-7.34-8.37-14.28-6.88-17.12,1.08-2.06,5.97-4.81,23.16-6.17.21-.02.41-.05.61-.1,9.94-2.37,18.23-3.53,25.33-3.52,11.28,0,17.88,2.85,25.53,6.15,7.73,3.34,16.49,7.12,30.88,7.71.05,0,.11,0,.16,0,.12,0,.24,0,.36-.02,6.73-.61,13.03-2.78,19.12-4.87,6.84-2.35,13.3-4.57,20.07-4.62.1,0,.2,0,.3-.01,13.61-1.11,17.34-7.26,20.94-13.2,4.18-6.89,8.92-14.71,32.39-20.12.1-.02.2-.05.3-.08,4.32-1.36,9.21-2.07,14.15-2.07,12.54,0,23.01,4.5,28.11,12.05.93,2.75-.6,4.89-4.4,9.25-3.31,3.79-7.06,8.09-7.1,14.08-.16,7.11,3.92,16.18,10.15,22.57,4.96,5.08,10.7,7.89,16.16,7.89,2.98,0,5.82-.81,8.46-2.39.43-.26.8-.59,1.11-.99,3.89-5.07,2.55-11,1.48-15.77-.67-2.95-1.3-5.73-.73-7.81.01-.05.03-.1.04-.15.6-2.61,3.36-4.14,7.83-6.35,2.47-1.22,5.03-2.48,7.13-4.25.13-.11.26-.23.38-.36,6.39-6.99,1.81-14.29-1.53-19.61-1.65-2.64-3.36-5.36-3.53-7.45-.11-4.71-1.72-8.79-3.28-12.74-1.13-2.87-2.21-5.6-2.54-8.27,2.59-2.53,4.7-4.08,6.59-5.48,6.79-5.02,9.07-8.03,9.8-24.28,2.57-17.58-2.3-25.78-7.45-34.47-4.69-7.89-9.53-16.05-10.51-33.5-.02-.35-.09-.7-.2-1.03-1.19-3.59-2.31-6.8-3.3-9.63-3.75-10.75-5.81-16.67-4.42-21.96,1.49-5.66,7.25-12.14,18.06-22.84.05-.05.1-.1.14-.15,16.73-18.39,26.1-22.16,35.02-22.16,2.91,0,5.96.38,9.19.77,3.9.48,8.32,1.03,13.41,1.03,7.98,0,16.11-1.38,24.85-4.23.77-.22,1.64-.44,2.56-.67,5.22-1.31,11.72-2.94,14.36-7.96,1.36-2.59,1.44-5.57.23-8.83-.02-.07-.05-.13-.08-.19-1.75-4.05-2.08-7.4-.9-9.19,1.16-1.76,3.73-1.95,4.78-1.95M154.38,1295.69c-.08,3.13-.12,6.27-.16,9.37-.02,1.86-.05,3.71-.08,5.51-.17,2.05-.3,10.33,2.79,13.87,1.07,1.22,2.49,1.9,4.01,1.9,3.32,0,5.29-3.1,6.04-4.37,1.94-2.74,2.64-7.04,3.38-11.59.47-2.9,1.44-8.89,2.71-9.97.01,0,.02,0,.04,0,2.01,1.37,3.58,3.71,5.24,6.17,2.5,3.71,5.33,7.92,10.44,9.97,5.2,2.15,10.75,2.27,16.13,2.38,5.17.11,10.05.21,14.21,2.07.04.02.08.04.12.05,4.66,1.9,10.62,7.61,10.92,11.56.04.58.15,1.93-2.3,3.4-3.05,1.73-6.84,2.67-10.85,3.67-5.17,1.28-10.52,2.61-15.16,5.83-.09.07-.18.13-.27.21-11.08,9.2-4.79,22.67.26,33.5,2,4.29,3.9,8.35,4.52,11.57.02.09.04.18.06.27,1.55,5.76,1.84,12.32,2.13,18.66.06,1.31.12,2.61.19,3.89,0,.07,0,.14.02.2l.15,1.41c.92,8.62,1.78,16.77-1.78,24.03-.02.04-.04.09-.06.14-1.22,2.74-2.21,5.53-3.18,8.22-1.47,4.12-2.86,8.01-4.93,11.56-1.53,2.62-3.46,4.9-5.49,7.33-3.4,4.04-6.91,8.22-8.6,14.09-.57,2.04-1.12,4.14-1.66,6.17-1.76,6.65-3.59,13.52-6.17,19.83-.03.07-.05.13-.08.2-.35,1-.69,2.01-1.02,3.02-1.63,4.87-3.17,9.47-5.91,13.33-.01.02-.03.04-.04.05-1.41,2.06-3.16,3.96-5.02,5.97-2.14,2.31-4.34,4.69-6.17,7.51-6.06,8.95-5.14,21.74,2.14,29.81,1.89,2.26,4.04,4.13,6.12,5.94,1.6,1.4,3.12,2.71,4.44,4.14,3.17,3.6,2.39,7.11.6,13.51-1.54,5.5-3.45,12.34-1.1,20.18,1.28,5.44.42,6.95-2.98,8.96-.01,0-.03.02-.04.03-4.48,2.73-7.56,6.69-10.55,10.51-.9,1.15-1.74,2.24-2.61,3.26-3.64,4.3-7.77,8.03-12.3,11.11,1.71-7.52,1.32-12.61-1.24-16-3.08-4.09-8.09-4.37-12.5-4.61-3.11-.17-6.06-.33-7.87-1.66-1.14-2.25-1.34-5.21-1.55-8.34-.27-4.04-.57-8.6-3.02-12.67-2.12-3.94-3.47-6.84-3.18-8.19.29-1.36,2.64-3.55,5.88-6.58l.34-.32c.09-.09.18-.18.27-.28,1.96-2.23,2.86-5.07,2.52-8.01-.12-1.42-.47-2.72-.77-3.88-.32-1.19-.6-2.24-.53-3.01.83-1.59,2.66-2.98,4.58-4.45,2.59-1.98,5.52-4.22,7.17-7.73,1.87-3.95,2.04-8.03.51-11.8-3.19-7.85-13.01-12.5-18.62-14.6-3.3-1.19-6.62-2.49-9.84-3.74-4.73-1.84-9.62-3.75-14.58-5.4-2.4-.95-4.46-2.98-6.64-5.13-2.06-2.03-4.18-4.13-6.9-5.69-2.09-1.47-4.54-2.19-6.71-2.84-1.91-.57-3.25-1.01-4.14-1.55.07,0,.13,0,.2,0,1.26,0,2.77.12,4.37.24,1.92.15,3.9.3,5.9.3,3.34,0,8.13-.38,11.41-3.63,3.68-3.04,5.99-7.81,6.21-12.82.2-4.67-1.41-8.9-4.53-11.91-1.99-2.05-4.31-3.55-6.56-5-2.11-1.37-4.11-2.66-5.5-4.21-1.2-1.35-.22-3.45,3.14-8.66,2.75-4.26,5.86-9.08,5.69-14.5,1.2-12.44-7.16-21.5-13.97-28.81-7.18-9.33-11.98-15.51-25.42-19.53-3.78-1.28-6.33-4.25-9.28-7.69-2.28-2.65-4.63-5.4-7.78-7.54-1.88-1.32-3.82-2.21-5.71-3.08-1.69-.78-3.3-1.51-4.59-2.46-3.18-2.69-3.05-8.16-2.92-13.44.03-1.28.06-2.6.05-3.86.16-3.36.02-6.38-.11-9.05-.21-4.47-.38-8.03.89-11.32,0,0,0,0,0,0h0s.27-.19,1.5-.37c19.38-2.67,52.32-11.76,81.39-19.78,15.69-4.33,30.51-8.42,40.73-10.79,9.39-1.31,12.59-7.74,13.53-14.06M394,685.76c-7,0-12.57,5.12-7.55,16.73,3.35,9-8.1,10.4-14.56,12.24-9.62,3.14-17.23,4.06-23.69,4.06-9.04,0-15.8-1.8-22.6-1.8-10.06,0-20.22,3.94-37.98,23.47-26.49,26.24-21.94,26.52-11.33,58.54,2.13,38.14,22.67,35.78,17.96,67.36-.98,22.3-4.64,16.33-16.5,28.59.02,7.82,5.78,14.66,5.92,22.74.5,8.12,13.13,16.48,6.1,24.19-5.02,4.23-14.64,5.66-16.28,12.76-1.93,7.07,4.76,15.91-.06,22.19-2.09,1.26-4.25,1.82-6.4,1.82-11.41,0-22.57-15.8-22.31-26.39.04-9.99,15.09-15.2,11.09-25.21-6.47-10.02-19.32-14.23-31.7-14.23-5.39,0-10.69.8-15.35,2.26-45.18,10.42-26.69,31.1-52.76,33.23-13.78.09-25.99,8.27-39.53,9.51-27.21-1.12-32.29-13.87-56.58-13.87-6.89,0-15.33,1.03-26.26,3.63-42.65,3.37-25.62,15.69-12.16,42.35,20.54,34.07,49.12,67.96,88.92,79.27,2.78.81,5.78.98,8.76.98,2.14,0,4.27-.09,6.31-.09,1.19,0,2.36.03,3.47.12,17.85,3.35,12.73,28.45,17.78,41.29,3.75,14.76,20.83,24.23,17.67,40.9-10.86,51.04-60.67,22.11-62.75,47.21,1.54,6.85,4.71,12.65,8.82,17.84-3.48,1.87-6.79,4.43-10.43,6.09-20.55,12.04-74.58,40.6-100.02,56.43v.02c5.54.31,14.33.43,24.97.43,33.53,0,85.49-1.17,112.3-1.17,2.55,0,4.88.01,6.93.03.16,0,.31-.01.46-.01,3.59,0,5.57,2.37,5.84,6.16.67,9.05.49,18.97-10.38,20.38-28.81,6.67-92.17,26.45-121.94,30.54-2.13.31-3.57.8-4.54,2.52-2.7,6.49-.75,13.02-1.21,22.13.12,6.8-1.39,15.76,4.41,20.52,3.19,2.38,7.22,3.37,10.49,5.68,6.66,4.52,9.92,13.03,18.12,15.75,12.1,3.61,16.24,8.77,23.57,18.3,6.79,7.28,14.2,15.23,13.02,26.1.55,9.6-13.98,18.98-7.81,25.93,3.38,3.78,8.72,5.76,12.22,9.39,5.33,5.08,3.99,14.51-1.54,18.93-1.99,2.07-5.23,2.59-8.72,2.59s-7.32-.54-10.27-.54c-3.45,0-5.77.74-5.24,3.93,2.01,5.54,9.56,4.78,13.74,7.84,5.27,2.95,8.54,8.99,14.34,11.21,8.24,2.73,16.18,6.15,24.41,9.13,8.47,3.16,20.9,10.23,15.85,20.92-2.49,5.33-9.7,7.32-11.97,12.66-.7,2.86.94,5.65,1.16,8.51.22,1.8-.32,3.58-1.54,4.98-8.65,8.09-9.76,8.91-3.79,20,3.96,6.46,1.07,15.3,4.91,21.61,7.99,7.46,26.17-4.42,20.83,18.89-1.16,4.78-.74,6.7.9,6.7,1.14,0,2.85-.92,5.04-2.44,4.99-3.36,9.44-7.4,13.33-11.99,3.77-4.48,7.09-9.83,12.19-12.95,5.7-3.38,6.28-7.25,4.8-13.45-4.48-14.68,8.51-25.3-.41-35.33-3.28-3.55-7.42-6.3-10.51-10.02-6.08-6.69-6.98-17.4-1.83-24.98,3.16-4.89,7.88-8.63,11.16-13.43,3.68-5.21,5.37-11.38,7.44-17.34,3.49-8.52,5.56-17.73,7.99-26.44,2.38-8.25,9.35-13.05,13.69-20.47,3.7-6.35,5.35-13.51,8.31-20.18,4.29-8.74,3-18.24,2.02-27.62-.41-7.7-.46-15.96-2.45-23.37-2.37-12.18-18.67-30.85-6.16-41.23,7.49-5.2,18.09-4.95,25.74-9.32,10.89-6.51-1.5-19.01-9.13-22.12-9.55-4.26-21.2-.66-30.47-4.51-7.35-2.93-9.06-12.26-15.55-16.14-.63-.21-1.21-.31-1.74-.31-7.23,0-5.61,18.42-9.36,23.37-1.07,1.83-1.96,2.57-2.69,2.57-2.55,0-3.17-8.92-2.81-11.56.2-10.95.03-23.24,1.74-33.83.68-5.06,1.98-10.08,2.42-15.1,3.53-.17,7.26-.86,10.52-.86.07,0,.13,0,.2,0,8.28-.18,21.07-.06,30.79-.2,2.15-.16,4.45-.21,6.83-.21,5.95,0,12.47.34,18.81.34,8.03,0,15.74-.55,21.6-3.06,3.53-2.52,7.22-9.77,9.89-9.77,1.35,0,2.44,1.85,3.11,7.09.47,5.47-6.53,10.96-1.16,15.61,8.2,5.22,19,5.97,28.41,7.45.44.03.86.05,1.27.05,13.19,0,11.23-17.88,16.99-26.59,13.2-28.81,7.14-63.21,13.34-93.61,3.23-10.28,9.57-19.51,12.33-29.98,2.7-9.42,1.11-20.4,7.19-28.43,10.9-11.59,24.37-29.95,10.78-44.65-10.53-9.04-29.85-15.34-28.66-32.22.67-1.94,1.6-2.68,2.71-2.68,3.75,0,9.58,8.44,14.39,8.44,1.48,0,2.86-.79,4.05-2.86,6.62-13.75,5.73-30.67,8.66-45.51,3.59-16.53,5.08-33.13,3.09-50-.53-12.29,5.83-23.21,6.57-35.36.86-10.81-.98-21.84-.82-32.63.32-12.88,6.34-24.8,6.81-37.69.96-13.75-3.6-27.26-2.97-40.86,1.44-20.16,15.85-35.9,25.51-52.79,5.06-8.99,14.7-15.55,17.03-25.81l.03-.15c2.89-12.04-7.34-19.17-15.6-19.17h0Z"/>
        </g>
        <g>
          <path class="cls-2" d="M311.55,1336.73c-6.9,0-13.98-1.61-20.84-3.17l-1.23-.28c-3.69-1.06-7.23-2.03-10.66-2.97-8.23-2.26-16-4.39-24.42-7.36-3.29-1.12-9.08-5.2-9.48-7.57-.04-.22-.09-.54.51-1.03,1.6-.94,3.84-1.39,6.83-1.39,3.8,0,8.21.76,12.1,1.43,2.49.43,4.84.84,6.9,1.03,2.97.49,5.9,1.02,8.74,1.53,8.69,1.57,16.9,3.05,26.06,3.51.56.03,1.13.04,1.7.04,2.67,0,5.38-.28,8-.56,1.9-.2,3.69-.39,5.42-.46.04,0,.08,0,.13,0,.37-.04.73-.06,1.07-.06,1.59,0,2.7.44,3.38,1.35,1.13,1.5,1.21,4.4.24,7.75-1.14,3.9-4.39,6.94-8.27,7.74-1.87.32-3.97.49-6.16.49h0Z"/>
          <path class="cls-3" d="M252.26,1314.96c3.62,0,7.95.75,11.76,1.4,2.5.43,4.86.84,6.98,1.05,2.93.49,5.83,1.01,8.64,1.52,8.76,1.58,17.03,3.08,26.32,3.54.58.03,1.18.04,1.8.04,2.78,0,5.54-.29,8.21-.57,1.87-.2,3.63-.38,5.3-.45.09,0,.17-.01.26-.02.3-.03.58-.05.85-.05.91,0,1.51.18,1.78.55.6.79.8,2.95-.08,5.99-.93,3.18-3.55,5.66-6.69,6.33-1.83.31-3.74.46-5.82.46-6.67,0-13.65-1.59-20.39-3.12l-1.18-.27c-3.68-1.06-7.21-2.03-10.63-2.96-8.19-2.25-15.94-4.37-24.33-7.33-2.56-.87-6.52-3.68-7.78-5.37,1.24-.49,2.92-.73,5.01-.73M252.26,1310.96c-3.05,0-5.82.45-7.94,1.73l-.08.06c-5.05,3.95,5.55,10.75,9.5,12.1,12.04,4.24,22.73,6.78,35.25,10.38,7.27,1.65,15,3.51,22.57,3.51,2.21,0,4.4-.16,6.56-.53,4.7-.97,8.45-4.55,9.79-9.14,1.71-5.87.77-11.66-5.54-11.66-.41,0-.83.02-1.28.07-4.21.19-8.87,1.02-13.32,1.02-.54,0-1.07-.01-1.6-.04-12.09-.6-22.76-3.06-34.64-5.03-5.25-.49-12.85-2.48-19.25-2.48h0Z"/>
        </g>
        <g>
          <path class="cls-2" d="M440.38,1392.39c-3.27,0-6.89-.54-9.8-.98l-1.24-.18c-14.79-2.29-31.35-8.8-46.61-18.33l-.6-.36c-9.61-5.79-11.32-8.28-11.61-9.07.31-.04.63-.06.97-.06,4.02,0,9.15,2.75,13.68,5.17,1.39.74,2.7,1.44,3.94,2.04,3.48,1.81,7.13,3.79,10.66,5.71,5.31,2.89,10.81,5.88,16,8.39,6.87,3.43,15.91,5.28,24.67,6.77.36.09.86.2,1.43.32.4.08,1.03.22,1.7.38-.95.14-2.02.21-3.19.21h0Z"/>
          <path class="cls-3" d="M376.81,1366.7c2.49.99,5.12,2.4,7.43,3.64,1.39.74,2.7,1.44,3.96,2.06,3.5,1.82,7.13,3.79,10.63,5.69,3.75,2.04,7.59,4.12,11.34,6.06-8.84-3.2-17.83-7.59-26.42-12.96l-.58-.35c-2.77-1.67-4.83-3.03-6.36-4.13M371.5,1361.4c-.67,0-1.32.06-1.95.2l-.07.03c-4.84,3.01,9.2,11.14,12.19,12.96,14.25,8.91,31.16,16.11,47.38,18.61,3.24.47,7.43,1.18,11.33,1.18,3,0,5.83-.42,7.92-1.69,1.11-1.69-5.55-2.68-7.44-3.18-8.1-1.37-17.3-3.16-24.21-6.61-8.57-4.15-17.78-9.49-26.66-14.1-5.34-2.59-12.67-7.41-18.5-7.41h0Z"/>
        </g>
        <g>
          <path class="cls-2" d="M425.35,1366.73c-.95,0-1.96-.09-3.01-.26-4.44-.7-8.91-2.45-13.25-4.13l-.4-.16c-7.32-2.92-12.25-5.91-14.63-8.89-1.91-2.44-2.45-4.58-1.59-6.36,1.21-2.49,5.12-4.23,9.49-4.23.92,0,1.84.08,2.71.24.04,0,.33.04.33.04,3.33.42,6.83,1.36,10.22,2.27,2.26.6,4.59,1.23,6.88,1.71,2.54.55,5.27.91,7.69,1.22,2.39.31,4.65.6,6.3,1.03.04.01.09.02.13.03,2.68.51,3.23,1.77,3.41,2.67.71,3.62-3.49,10.32-7.13,12.67-2.11,1.46-4.43,2.15-7.16,2.15h0Z"/>
          <path class="cls-3" d="M401.97,1344.71c.81,0,1.6.07,2.36.21.08.01.15.03.23.03l.19.02c3.21.41,6.49,1.29,9.97,2.22,2.28.61,4.65,1.24,6.95,1.72,2.64.58,5.42.94,7.88,1.25,2.33.3,4.53.58,6.05.98.09.02.18.04.27.06,1.66.31,1.76.84,1.81,1.09.5,2.56-3.01,8.51-6.25,10.61-.04.02-.07.05-.1.07-1.71,1.18-3.66,1.76-5.97,1.76-.84,0-1.75-.08-2.71-.24-4.21-.66-8.59-2.37-12.82-4.02l-.37-.14c-8.73-3.48-12.34-6.43-13.8-8.25-.97-1.24-2-2.99-1.38-4.27.74-1.53,3.82-3.1,7.7-3.1M401.97,1340.71c-8.14,0-16,5.51-9.47,13.84,3.24,4.03,9.78,7.23,15.47,9.5,4.53,1.77,9.27,3.65,14.05,4.4,1.13.19,2.25.29,3.34.29,2.95,0,5.73-.73,8.24-2.46,5.59-3.61,13.44-17.02,3.01-18.99-3.51-.91-9.09-1.18-14.08-2.27-5.67-1.18-11.54-3.28-17.27-4.01l-.22-.03c-1.01-.18-2.04-.27-3.07-.27h0Z"/>
        </g>
        <g>
          <path class="cls-2" d="M384.54,1312.56c.02-.11.05-.25.09-.4,3.14-7.24,10.2-12.16,17.78-16.97l2.28-1.36c10.44-6.25,22.27-13.33,34.31-13.54,4.12.25,6.31,1.72,6.45,2.25h0s-.09.27-.65.72c-2.83,1.98-7.09,2.8-11.21,3.6-1.51.29-2.93.57-4.3.9-7.02,1.57-12.71,3.87-18.4,7.44-3.94,2.4-7.73,5.28-11.4,8.07-2.9,2.2-5.9,4.48-8.89,6.45-1.96,1.29-4.63,2.63-6.08,2.86Z"/>
          <path class="cls-3" d="M443.72,1281.52h0M438.96,1282.28c1.05.07,1.94.23,2.67.41-2.38,1.01-5.44,1.6-8.41,2.18-1.45.28-2.95.57-4.36.91-7.26,1.63-13.12,4-19,7.69-4.04,2.47-7.86,5.37-11.56,8.18-3,2.28-5.84,4.44-8.78,6.38-.02.01-.04.02-.05.04,3.41-4.23,8.4-7.62,13.98-11.17.75-.45,1.52-.9,2.28-1.36,10.2-6.1,21.76-13.02,33.24-13.26M439.04,1278.28c-13.52.21-26.32,8.44-37.71,15.22-7.22,4.59-15.09,9.83-18.57,17.94l-.04.12c-.64,2.26.1,3.04,1.42,3.04,2.13,0,5.76-2.03,7.57-3.22,6.82-4.5,13.24-10.22,20.25-14.5,5.68-3.57,11.28-5.73,17.8-7.19,5.22-1.27,11.97-1.83,16.24-4.84,3.96-3.15-.85-6.21-6.96-6.56h0Z"/>
        </g>
        <g>
          <path class="cls-2" d="M391.64,1277.79c-3.55,0-7.38-.1-11.08-.19-2.55-.06-5.02-.13-7.26-.15-.5.01-.9.02-1.29.02-4.87,0-8.27-1.03-10.38-3.16-2.16-2.17-3.2-5.65-3.17-10.64,0-.04,0-.07,0-.11-.5-9.94.61-19.13,3.29-27.31.76-2.44,1.63-4.87,2.46-7.21,1.3-3.62,2.64-7.37,3.62-11.25,1.51-5.29,1.93-10.75,2.34-16.04.12-1.56.24-3.12.39-4.68.31-3.9,1.36-7.6,2.46-11.51.67-2.37,1.36-4.83,1.88-7.32,1.04-4.6.86-9.21.69-13.66-.05-1.4-.11-2.8-.12-4.22-.19-9.99,3.02-20.3,6.13-30.27l.84-2.71c1.43-5.21,2.96-10.41,4.44-15.44,2.05-6.98,4.18-14.19,6.02-21.38,2.7-11.24.92-22.73-.81-33.83-.6-3.83-1.21-7.79-1.61-11.6,0-.04,0-.08-.02-.12-.58-3.53-1.33-7.01-2.06-10.37-1.68-7.75-3.26-15.08-2.95-23.12.87-10.56,1.55-21.45,2.21-31.98,1.47-23.36,2.99-47.52,6.67-70.99.87-5.99,1.98-12.06,3.07-17.92,1.71-9.26,3.48-18.84,4.29-28.37.58-7.75.18-15.6-.21-23.2-.14-2.74-.29-5.56-.38-8.33-.19-5.94-1.31-11.71-2.4-17.29-.96-4.97-1.96-10.11-2.25-15.22-.84-15.89,11-26.84,22.46-37.43,2.22-2.05,4.52-4.18,6.63-6.26,5.35-5.79,9.73-12.3,13.97-18.59,3.53-5.24,7.18-10.66,11.29-15.51,10.29-12.75,22.8-23.88,34.89-34.65l1.4-1.24c9-8.8,18.73-9.98,27.07-9.98,3.76,0,7.54.26,11.55.54,4.09.28,8.33.58,12.61.58.94,0,1.89-.01,2.84-.05,3.41-.02,6.83-.27,10.14-.52,3.15-.24,6.42-.49,9.78-.53,4.41.03,8.93.34,13.31.65,4.63.32,9.42.66,14.18.66h.82c3.68-.19,7.41-.33,11.01-.47,14.43-.56,29.35-1.13,43.43-4.37,8.16-2.23,14.56-5.15,19.67-8.93,1.91-1.2,3.9-3.01,6.01-4.92,2.87-2.6,6.09-5.52,8.44-6.09,1.06.62,3.11,3.34,2.01,15.14-.8,8.56-2.89,18.16-4.14,23.9-.22,1-.41,1.87-.56,2.59-1.1,6.68-1.35,13.61-1.59,20.31-.34,9.37-.69,19.06-3.33,27.8l-.04.11c-3.09,8.59-10.3,15.23-17.27,21.65-2.82,2.6-5.73,5.28-8.33,8.05-.46.41-1.19,1.09-2.04,1.9-.23.22-.5.48-.8.76,2.35-4.27,4.13-8.95.52-11.31-.31-.21-.68-.32-1.06-.33h-.27c-8.53,0-19.75,8.62-24.49,16.36-1.54,2.38-2.77,5.22-3.97,7.96-2.76,6.35-5.37,12.34-11.68,13.55-1.64.39-3.3.55-5.04.71-3.16.29-6.43.59-9.41,2.27-6.53,3.95-8.98,12.15-11.13,19.39-.4,1.35-.79,2.66-1.2,3.9-.54,1.78-1.07,3.5-1.6,5.21-2.48,7.96-5.04,16.2-5.83,24.52-1.1,10.13.6,21.06,2.24,31.63,1.48,9.51,2.87,18.5,2.38,26.87-.47,8.46-2.76,17.01-4.97,25.27-.97,3.62-1.98,7.37-2.8,11.03-1.72,7.99-2.31,16.97-2.89,25.64-.18,2.69-.36,5.37-.57,8.01-.38,4.61-.66,9.29-.93,13.82-1.69,27.97-3.28,54.38-26.69,73.02-.05.04-.09.08-.13.12-5.72,5.45-9.32,12.33-12.8,18.99-.65,1.24-1.3,2.49-1.97,3.73-1.66,2.86-3.34,5.84-5.03,8.82-5.34,9.46-10.86,19.25-16.92,27.18-8,7.81-13.69,16.44-19.75,27-5.96,8.05-6.48,14.24-7.14,22.06-.14,1.68-.29,3.42-.5,5.29-2.34,10.12-6.87,22.36-10.33,30.03-3.75,9.54-12.75,13.48-22.27,17.65-6.8,2.98-13.82,6.05-18.75,11.33-.03.03-.06.06-.09.1-4.39,5.37-5.36,12.22-6.3,18.85-.44,3.13-.86,6.08-1.62,8.79-1.06,4.1-3.45,6.13-7.75,6.64-2.25.27-5.34.41-9.44.41Z"/>
          <path class="cls-3" d="M677.34,653.43c.57,1.27,1.46,4.84.45,14.11-.88,8.06-2.8,16.88-3.95,22.15-.22,1.01-.41,1.88-.56,2.6-.01.06-.02.12-.03.17-1.1,6.72-1.35,13.71-1.6,20.47-.35,9.65-.68,18.77-3.24,27.26l-.02.05c-2.96,8.16-9.97,14.62-16.75,20.86-1.75,1.61-3.54,3.26-5.27,4.94.08-2.23-.68-4.27-2.93-5.74-.63-.41-1.36-.64-2.11-.65-.1,0-.21,0-.31,0-10.15,0-21.71,10.02-26.17,17.27-1.64,2.55-2.9,5.45-4.12,8.25-3.08,7.08-5.3,11.44-10.22,12.38-.06.01-.13.03-.19.04-1.41.34-2.99.49-4.66.64-3.21.3-6.86.63-10.21,2.52-.04.02-.07.04-.11.06-7.14,4.31-9.82,13.29-11.96,20.5-.4,1.36-.79,2.64-1.18,3.84-.01.03-.02.06-.03.09-.52,1.72-1.05,3.44-1.59,5.15-2.51,8.05-5.1,16.38-5.9,24.9-1.12,10.41.59,21.46,2.25,32.15,1.46,9.41,2.84,18.29,2.35,26.46-.45,8.25-2.72,16.69-4.91,24.86-.98,3.64-1.99,7.41-2.83,11.15-1.74,8.12-2.35,17.16-2.93,25.91-.18,2.64-.36,5.36-.56,7.98-.38,4.64-.66,9.33-.94,13.87-1.66,27.51-3.23,53.49-25.94,71.58-.09.07-.18.15-.27.23-5.96,5.68-9.64,12.71-13.19,19.52-.64,1.22-1.27,2.44-1.93,3.65-1.69,2.91-3.39,5.92-5.03,8.83-5.28,9.36-10.74,19.03-16.69,26.84-8.08,7.91-13.83,16.62-19.93,27.23-6.23,8.47-6.8,15.2-7.45,22.99-.14,1.63-.28,3.32-.48,5.12-2.32,9.96-6.77,22-10.18,29.55-.03.06-.05.12-.08.18-3.41,8.68-12.04,12.45-21.18,16.45-6.98,3.06-14.2,6.22-19.41,11.8-.06.06-.12.13-.17.2-4.74,5.8-5.8,13.26-6.73,19.83-.43,3.06-.84,5.95-1.57,8.53,0,.03-.01.05-.02.08-.85,3.27-2.54,4.7-6.05,5.12-2.17.26-5.17.39-9.19.39-3.53,0-7.34-.1-11.03-.19-2.59-.07-5.03-.13-7.29-.15-.02,0-.03,0-.05,0-.04,0-.09,0-.13,0-.39.01-.77.02-1.14.02-4.31,0-7.25-.84-8.97-2.57-1.76-1.77-2.61-4.79-2.59-9.22,0-.07,0-.15,0-.22-.49-9.7.59-18.64,3.2-26.59,0-.02.01-.04.02-.06.74-2.37,1.6-4.77,2.43-7.1,1.31-3.65,2.66-7.43,3.66-11.38,1.56-5.52,1.99-11.07,2.41-16.44.12-1.53.24-3.11.39-4.64,0-.02,0-.04,0-.06.29-3.68,1.31-7.28,2.39-11.09.68-2.4,1.38-4.88,1.9-7.43,1.1-4.88.92-9.61.74-14.17-.05-1.37-.11-2.79-.12-4.2-.18-9.65,2.98-19.81,6.04-29.62.28-.91.56-1.81.84-2.71.01-.04.02-.08.04-.12,1.41-5.13,2.94-10.32,4.41-15.34,2.06-6.99,4.19-14.22,6.04-21.46,0-.02,0-.04.01-.06,2.79-11.6.97-23.28-.79-34.58-.62-3.98-1.21-7.74-1.6-11.51,0-.08-.02-.15-.03-.23-.59-3.58-1.35-7.08-2.08-10.46-1.64-7.6-3.2-14.78-2.91-22.54.87-10.64,1.55-21.51,2.21-32.02,1.46-23.31,2.98-47.42,6.66-70.85.86-5.93,1.97-11.97,3.05-17.82,1.72-9.31,3.49-18.94,4.32-28.6.59-7.86.18-15.78-.21-23.44-.14-2.73-.29-5.54-.38-8.28-.2-6.1-1.33-11.95-2.43-17.61-1-5.13-1.93-9.98-2.22-14.94-.79-14.96,10.7-25.59,21.82-35.86,2.23-2.06,4.54-4.2,6.68-6.31.04-.04.09-.09.13-.13,5.39-5.84,9.82-12.41,14.1-18.77,3.5-5.2,7.12-10.57,11.16-15.34.02-.02.04-.05.06-.07,10.16-12.59,22.6-23.66,34.63-34.37l1.4-1.25s.09-.08.14-.13c8.39-8.21,17.26-9.35,25.6-9.35,3.69,0,7.44.26,11.41.54,4.13.29,8.39.58,12.75.58.97,0,1.93-.02,2.85-.04,3.52-.02,6.96-.28,10.28-.53,3.11-.24,6.33-.48,9.62-.52,4.37.03,8.85.34,13.18.64,4.66.33,9.49.66,14.32.66.28,0,.55,0,.83,0,.06,0,.11,0,.17,0,3.58-.18,7.31-.33,10.91-.47,14.52-.56,29.54-1.14,43.8-4.42.05-.01.11-.03.16-.04,8.29-2.27,14.9-5.28,20.19-9.19,2.03-1.3,4.07-3.14,6.22-5.09,1.92-1.74,4.62-4.18,6.51-5.2M678.13,648.99c-4.8.56-11.02,8.45-15.79,11.43-5.65,4.2-12.38,6.82-18.99,8.63-17.46,4.02-36.34,3.89-54.01,4.79-.27,0-.53,0-.8,0-9.19,0-18.3-1.26-27.52-1.31-7,.1-13.31,1.03-19.96,1.06-.93.03-1.85.04-2.77.04-8.29,0-16.38-1.12-24.16-1.12-10.06,0-19.6,1.88-28.4,10.49-12.75,11.36-25.73,22.76-36.48,36.09-9.11,10.75-15.56,23.6-25.14,33.98-12.75,12.6-30.75,25.1-29.68,45.23.63,10.98,4.29,21.4,4.65,32.47.36,10.39,1.38,20.91.6,31.29-1.32,15.44-5.11,30.72-7.34,46.15-5.37,34.2-6.1,69.02-8.91,103.21-.46,11.94,3.15,22.48,5.04,33.9,1.55,14.7,6.01,30.04,2.48,44.73-3.16,12.35-7.07,24.44-10.44,36.73-3.32,10.75-7.27,22.36-7.06,33.59.07,5.95.78,11.67-.53,17.45-1.31,6.39-3.84,12.49-4.37,19.04-.65,6.86-.77,13.74-2.68,20.42-1.59,6.29-4.12,12.16-6.04,18.33-2.96,9-3.87,18.52-3.39,28.04-.05,11.52,5.31,15.81,15.56,15.81.41,0,.84,0,1.27-.02,5.49.07,12.32.35,18.37.35,3.68,0,7.06-.1,9.67-.42,4.82-.57,8.1-2.92,9.44-8.09,2.42-8.6,1.53-19.55,7.54-26.91,11.25-12.05,34.55-12.12,41.39-29.52,3.75-8.31,8.21-20.66,10.49-30.52,1.2-10.72.39-17.25,7.34-26.59,5.74-10,11.46-18.87,19.58-26.76,8.08-10.54,15.02-23.99,22.21-36.39,4.24-7.89,7.87-16.02,14.38-22.22,28.05-22.33,25.69-55.54,28.38-88.25.89-11.19,1.21-23.12,3.41-33.38,2.7-11.94,7.14-24.19,7.82-36.63,1.08-18.23-6.65-39.73-4.62-58.43.93-9.86,4.37-19.45,7.34-29.3,2.47-7.52,4.43-17.95,11.41-22.17,4.14-2.33,9.29-1.65,13.85-2.75,10.41-1.98,11.95-14.65,16.98-22.43,4.22-6.88,14.76-15.4,22.79-15.4.08,0,.15,0,.23,0,3.94,2.59-3.55,11.91-5.05,15.46-.47.99-.47,1.4-.14,1.4,1.35,0,8.19-6.86,10-8.43,8.94-9.6,21.52-17.77,26.1-30.52l.05-.15c4.62-15.29,2.39-32.58,4.96-48.28,1.84-8.78,9.81-41.59.94-44.11h0Z"/>
        </g>
        <g>
          <path class="cls-2" d="M399.85,764.44c.17-1.54,2.22-5.02,2.95-6.25.39-.65.73-1.23.96-1.68,2-3.31,3.9-6.75,5.74-10.08,1.81-3.27,3.68-6.66,5.63-9.9,3.79-6.71,10.11-13.71,14.9-14.21h.13c.1-.02.21-.03.32-.03,1.09,0,1.91.5,2.36,1.44,1.29,4.09-2.95,9.01-6.36,12.97-.83.97-1.62,1.89-2.31,2.76-2.06,2.39-4.04,5.1-5.96,7.71-3.4,4.64-6.91,9.43-11.28,13.01-.24.18-.57.44-.93.71-1.75,1.35-4.34,3.37-6.15,3.54Z"/>
          <path class="cls-3" d="M430.47,724.3c.29,0,.41.07.49.19.78,3.03-3.13,7.57-6.01,10.91-.83.96-1.61,1.87-2.31,2.76-2.15,2.5-4.13,5.21-6.05,7.83-3.46,4.72-6.73,9.18-10.87,12.6-.29.22-.61.47-.95.73-.16.12-.36.28-.58.45.12-.21.24-.4.33-.56.38-.65.72-1.21.98-1.71,2-3.33,3.9-6.77,5.74-10.09,1.8-3.26,3.67-6.63,5.59-9.84.02-.03.04-.06.06-.09,3.47-6.15,9.41-12.75,13.31-13.15h.11c.05-.02.1-.02.16-.02M430.47,720.3c-.17,0-.35,0-.52.02h-.13c-6.2.65-13.02,9.18-16.41,15.18-3.96,6.58-7.45,13.48-11.39,20.02-1.26,2.41-5.77,8.78-3.56,10.74.37.13.75.19,1.15.19,2.89,0,6.42-3.09,8.59-4.72,7.08-5.81,11.73-14.27,17.54-21.03,3.69-4.69,11.08-11.38,8.96-17.69-.76-1.71-2.31-2.71-4.22-2.71h0Z"/>
        </g>
        <g>
          <path class="cls-2" d="M485.77,1250.65c-.28,0-.54-.05-.8-.17-3.12-2.73-3.08-13.56-3.06-19.42,0-1.61.01-3-.03-4.16.04-8.54.09-17.44,2.31-26.31.8-3.43,1.91-6.87,2.99-10.18,1.18-3.66,2.41-7.45,3.26-11.31.2-.84.39-1.71.59-2.59.59-2.68,1.16-5.22,2.09-7.64,1.45-3.97,3.41-7.61,5.48-11.47l.42-.79c1.51-2.69,2.8-5.56,4.06-8.32,1.45-3.21,2.96-6.54,4.8-9.55,2.72-4.23,6.82-8.2,11.16-12.4,3.16-3.06,6.42-6.22,9.28-9.63.91-1.01,1.88-2.13,2.86-3.26,2.34-2.7,4.77-5.5,7.2-7.68,1.77-1.56,2.78-2.06,3.24-2.22,1.49,2.76-2,13.66-3.72,19.06-1.19,3.73-2.22,6.96-2.48,8.97-.91,4.45-1.18,9-.78,13.52.1,1.28.25,2.59.39,3.86.38,3.31.73,6.44.28,9.49-.7,4.42-2.18,9.02-3.61,13.48-1.22,3.79-2.48,7.71-3.3,11.63-.72,4.27-1.52,8.5-2.29,12.6-.79,4.18-1.61,8.5-2.33,12.79-.5,2.87-.76,5.84-1.01,8.71-.52,5.91-1.01,11.5-3.39,16.48-1.37,2.82-4.05,4.55-7.95,5.14-.85.15-1.66.28-2.47.4-2.87.45-5.83.91-8.74,2.1-2.68,1.06-4.95,2.82-7.14,4.52l-.14.11c-.46.33-.95.7-1.43,1.06-2.2,1.65-4.28,3.2-5.75,3.2h0Z"/>
          <path class="cls-3" d="M539.84,1107.13c-.09.91-.27,2.09-.61,3.62-.78,3.55-2.09,7.64-3.24,11.24-1.26,3.93-2.26,7.06-2.55,9.25-.94,4.61-1.21,9.33-.81,13.98.1,1.34.25,2.67.4,3.96.36,3.18.7,6.18.3,8.93-.68,4.29-2.07,8.62-3.54,13.2-1.23,3.84-2.51,7.81-3.35,11.84-.01.05-.02.11-.03.16-.7,4.16-1.5,8.37-2.27,12.45-.8,4.2-1.62,8.54-2.33,12.84-.51,2.96-.78,5.97-1.03,8.88-.51,5.73-.98,11.14-3.19,15.76-1.08,2.21-3.25,3.57-6.45,4.05-.04,0-.07.01-.11.02-.78.14-1.58.26-2.37.39-2.98.46-6.06.94-9.15,2.21-2.96,1.18-5.45,3.11-7.65,4.82l-.08.06c-.5.36-.98.72-1.45,1.07-1.37,1.03-3.39,2.54-4.33,2.77-.44-.65-1.2-2.25-1.65-5.94-.46-3.73-.45-8.1-.43-11.61,0-1.6.01-2.98-.03-4.16.04-8.47.09-17.22,2.25-25.84,0-.02,0-.04.01-.06.78-3.32,1.83-6.56,2.94-9.99,1.2-3.7,2.43-7.52,3.3-11.47.21-.87.4-1.74.59-2.62.58-2.61,1.12-5.07,2.01-7.36,0-.02.02-.04.02-.06,1.39-3.8,3.31-7.38,5.34-11.16l.41-.77c1.56-2.79,2.87-5.68,4.13-8.48,1.49-3.29,2.89-6.39,4.66-9.29,2.63-4.06,6.63-7.94,10.87-12.05,3.18-3.08,6.46-6.26,9.37-9.73.96-1.07,1.94-2.2,2.89-3.29,2.3-2.66,4.68-5.4,7.01-7.48.05-.04.1-.09.15-.13M541.93,1101.46c-1.15,0-2.84.99-4.88,2.8-3.56,3.18-6.97,7.49-10.27,11.15-6.67,7.96-15.67,14.6-20.61,22.28-3.49,5.72-5.64,12.14-8.91,17.97-2.19,4.09-4.41,8.13-6.01,12.48-1.31,3.39-1.92,6.98-2.77,10.52-1.6,7.26-4.54,14.2-6.23,21.44-2.21,8.85-2.32,17.47-2.37,26.87.21,6.36-.91,21.42,4.01,25.22.63.32,1.25.47,1.88.47,2.53,0,5.16-2.32,8.4-4.68,2.12-1.65,4.32-3.37,6.81-4.36,3.5-1.43,7.21-1.74,10.75-2.37,4.11-.62,7.64-2.52,9.46-6.26,3.76-7.87,3.09-17.15,4.57-25.72,1.41-8.47,3.18-16.82,4.61-25.3,1.77-8.44,5.6-16.83,6.93-25.23.67-4.57-.31-9.22-.66-13.81-.38-4.35-.13-8.71.77-13.03.69-5.87,9.92-26.4,5.18-30.3l-.06-.02c-.18-.07-.37-.1-.58-.1h0Z"/>
        </g>
      </g>
      <path class="cls-1" d="M588.44,1463.91c1.64-.06,2.83-1.69,4.04-2.69,8.81-8.15,15.84-20.15,28.03-23.35,5.02-2.92-13.13-13.3-14.54-17.52-3.84-5.02-1.41-12.59,4.88-13.9,3.51-.89,7.18-.58,10.75.03,9.75,2.39,21.72,6.68,15.83-8.17-3.25-7.96-12.7-9.71-19.35-14.05-4.09-2.59-8.83-9.23-2.65-11.66,3.89-1.47,8.3-1.89,12.2-3.66,7.74-3.65,15.71-11.79,24.9-7.38,9.09,4.1,14.59,13.67,17.71,22.79,4.25,10.14,1.96,24.42,10.81,31.92,6.69,5.45,16.74.27,18.19-7.81,3.17-17.05-5.9-33.55-10.44-49.66-4.46-16.07-5.27-33.54-6.53-49.9.8-12.83-.82-24.92-4.71-37.18-3.65-18.48,11.84-11.17,21.99-16.72,3.73-1.97,7.16-7.84,11.23-7.83,2.96.03,4.24,3.15,5.07,5.57,1.72,5.07,1.42,11.49,4.12,16.4,2.67,5.83,11.6,11.36,16.02,4.37,3-5.34,3.07-11.93,4.35-17.87,1.68-10.64,4.54-22.13,3.48-33.14-.75-20.05-16.52-25.94-16.14-41.55,1.36-9.57,3.28-19.15-4.08-26.7-6.96-8.05-11.74-17.42-16.08-26.7-4.28-8.18-6.09-17.34-9.35-25.85-5.16-11.79-28.32-16.06-39.15-11.37-12.45,4.91-16.54,23.89-30.93,25.22-16.83-.9-28.87-20.17-47.3-12.99-21.26,8.33-21.61,54.42-24.32,74.14-2.11,14.83-4.69,33.59-8.83,49.7-4.13,16.95-14.04,33.72-9.16,51.32,7.06,30.69,15,64.51,22.24,95.73,3.38,19.62,8.73,24.82,23.71,36.64,17.27,11.56,9.13,26.05,4.73,42.22-.61,3.3-3.05,10.03-.75,11.6"/>
      <path class="cls-1" d="M786.44,1101.86c-.41-8.17-.18-16.48.28-24.63.5-11.99,3.49-24.04-5.15-33.26-6.75-6.66-17.23-5.34-25.85-7.42-11.24-1.28-21.55-14.18-33.25-10.26-12.45,6.57-6.18,22.93-4.94,33.9.39,5.81-1.53,11.48-4.66,16.43-4.39,6.79-11.59,12.12-13.65,20.25-3.09,11.13.96,22.84,6.33,32.59,3.73,7.04,6.81,14.36,11.74,20.94,9.82,10.96,13.92,14.75,10.12,30.08-3.17,11.6,7.57,19.59,12.46,29.08,7.46,15.09,3.22,32.83.26,48.37-1.34,6.23-1.89,14.93-4.42,18.95-2.9,5.27-9.82,3.39-14.64,4.62-8.65,2.55-5.37,23.8-2.95,30.89,2.68,8.58,9.46,15.18,14.45,22.33,3.05,4.11,1.99,7.86-.47,11.99-4.48,6.66-4.32,13.88-1.65,21.71,2.62,6.84,6.44,24.85,16.27,19.61,6.39-4.36,7.8-12.54,11.98-18.72,4.44-6.66,12.6-11.47,13.05-20.18.52-6.05-1.78-12.15-2.99-18.12-1.28-6.34-3.28-12.5-6.6-18.04-4.37-7.06-9.37-15.57-.82-21.59,6.35-4.36,16.97-1.67,21.51-8.36,3.6-5.55,3.66-12.63,4.41-19.07.63-6.58,1.55-12.02,1.51-18.05.08-7.56-.31-14.77.33-22.37,1.31-8.84,1.7-18.62-3.08-26.43-3.29-5.81-8.34-10.51-11.09-16.67-4.15-8.39-2.76-18.4,2.75-25.74,1.52-2.04,3.37-3.77,5.19-5.54,17.67-15.61,4.84-28.4,3.59-47.07"/>
      <path class="cls-1" d="M806.12,1124.39c-13.32-4.28-15.77,10.28-21.69,18.42-2.58,3.89-6.37,6.87-9.59,10.16-3.09,3.17-5.22,7.19-6.43,11.44-2.54,8.11.14,16.85,5.08,23.52,6.3,8.71,14.89,17.02,26.21,17.62,11.57.47,30.61-3.52,28.89-18.51-.27-2.99-1.46-6.71-1.15-9.53.8-4.57,7.34-1.99,9.64-5.12,1.33-2.34-.79-7.64,1.37-10.38,1.38-2.04,4.12-3.15,5.28-5.28,1.61-4.17-2.25-8.42-5.68-11.6-6.61-6.13-13-10.89-21.23-15.7-3.28-2.02-6.84-3.94-10.52-4.99"/>
      <g>
        <path class="cls-1" d="M982.91,1292.38c-1.56,6.25,5.64,9.9,10.88,7.31,3.96-1.74,7.2-4.78,10.37-7.7,2.79-2.6,5.51-5.3,7.95-8.19,7.72-8.47,4.68-18.21-7.61-12.49-7.46,3.83-19.5,12.89-21.56,20.91"/>
        <g>
          <path class="cls-2" d="M988.46,1396.62c-3.97,0-7.62-1.37-10.57-3.97-1.56-1.52-2.58-3.57-3.37-5.37-1.26-2.76-2.35-5.74-3.41-8.61-.99-2.7-2.01-5.49-3.16-8.07-1.99-4.09-4.46-7.89-6.98-10.77-1.42-1.61-3.2-3.34-5.64-4.09-1.17-.33-2.35-.48-3.66-.48-1.99,0-3.95.36-5.84.71-1.81.34-3.52.65-5.18.65-.68,0-1.3-.05-1.88-.16-4.56-.75-8.55-4.15-12.42-7.44-.61-.52-1.21-1.03-1.81-1.53l-.71-.65c-2.06-1.86-4.18-3.79-5.63-5.94-1.48-2.15-1.78-5.03-2.08-8.08-.42-4.16-.9-8.88-4.8-12.04-.03-.02-.06-.05-.09-.07-3.42-2.45-7.45-2.85-11.35-3.23-1.47-.14-2.85-.28-4.18-.52-3.63-.49-6.73-1.64-9.3-3.43-1.89-1.43-3.76-3.16-5.56-4.82-2.48-2.29-5.04-4.66-8.01-6.58-1.49-.96-3-1.84-4.47-2.69-2.33-1.35-4.53-2.62-6.57-4.18-3.97-3.14-7.26-6.79-10.73-10.66-2.62-2.91-5.32-5.92-8.37-8.72-3.27-2.97-7.01-5.78-10.62-8.51-8.49-6.4-17.27-13.01-21.41-22.39-1.49-3.55-.24-4.9,2.97-7.9.39-.36.79-.73,1.19-1.12,2.16-2.25,3.24-5.06,3-7.78-.12-2.55-1.64-4.48-3.89-4.84-.96-.12-1.88-.12-2.77-.13-1.98-.01-3.86-.03-5.03-1.06-1.09-.88-1.49-2.26-1.02-3.35,1.46-2.69,6.38-3.57,10.73-4.34,2.46-.44,4.79-.85,6.72-1.58,3.39-1.05,6.34-2.33,8.94-3.46,4.52-1.96,8.43-3.65,13.22-3.65,2.21,0,4.5.35,7.02,1.07.08.02.16.04.24.05.2.03.4.07.6.1.69.12,1.47.26,2.28.26,1.23,0,2.26-.31,3.17-.96.08-.05.15-.11.22-.18,2.11-2,3.9-3.63,6.11-4.84,3.29-1.44,5.47-3.67,7.59-5.82,2.34-2.38,4.55-4.63,8.24-5.79,1.66-.5,3.44-.76,5.27-.76,6.68,0,13.37,3.36,18.46,6.28l2.23,1.3c5.4,3.12,10.98,6.35,16.07,10.07,7.67,5.77,13.85,13.08,19.39,20.13.64.84,1.33,1.74,2.04,2.67,4.12,5.36,8.79,11.44,11.5,16.9,1.86,3.67,3.41,7.68,4.62,11.94,1.14,5.44,3.71,10.75,6.2,15.89,3.25,6.7,6.32,13.03,6.48,19.57-.07,1.77-.51,3.52-1.35,5.38-.02.04-.03.07-.05.11-.63,1.65-1.76,3.34-2.85,4.97-2.57,3.85-5.78,8.65-2.07,13.88,2,2.62,4.74,4.61,7.38,6.53,2.13,1.55,4.14,3.01,5.71,4.7,2.17,2.2,3.87,4.78,5.67,7.52,1.12,1.71,2.29,3.48,3.57,5.14,2.59,3.41,6.32,6.36,10.76,8.53,1.59.86,3.52,1.59,5.39,2.3,4.37,1.66,8.89,3.38,10.2,7.12v.04c.88,3.95-1.41,8.11-3.63,12.12-.37.68-.74,1.35-1.09,2.01-1.26,2.3-2.23,4.74-3.18,7.1-.51,1.28-1.04,2.6-1.6,3.86-.01.03-.03.07-.04.1-2.62,6.91-9.38,11.55-16.81,11.55h0Z"/>
          <path class="cls-3" d="M885.46,1190.92c6.21,0,12.59,3.21,17.45,6l2.24,1.3c5.59,3.24,10.87,6.29,15.87,9.94,7.49,5.64,13.56,12.82,19,19.74.65.86,1.34,1.76,2.05,2.68,4.06,5.29,8.67,11.29,11.31,16.61,1.79,3.51,3.28,7.38,4.45,11.5,1.19,5.66,3.81,11.06,6.35,16.28,3.14,6.47,6.11,12.59,6.28,18.69-.07,1.48-.45,2.97-1.17,4.56-.03.07-.06.15-.09.22-.55,1.44-1.57,2.96-2.65,4.58-2.61,3.9-6.54,9.79-2.04,16.15.03.04.06.08.09.12,2.14,2.79,4.99,4.87,7.75,6.87,2.05,1.49,3.98,2.9,5.42,4.44.03.03.06.06.09.09,1.99,2.01,3.63,4.51,5.37,7.16,1.15,1.74,2.33,3.55,3.64,5.24,2.78,3.65,6.72,6.79,11.41,9.09,1.76.94,3.72,1.68,5.62,2.41,4.07,1.55,7.91,3.01,8.98,5.8.63,3.25-1.35,6.85-3.45,10.65-.37.68-.74,1.35-1.1,2.01-1.33,2.42-2.32,4.91-3.28,7.32-.53,1.32-1.02,2.56-1.57,3.78-.03.07-.06.13-.08.2-2.29,6.04-8.44,10.26-14.94,10.26-3.44,0-6.61-1.18-9.17-3.41-1.07-1.06-1.95-2.49-2.93-4.74,0-.02-.02-.04-.02-.05-1.21-2.67-2.29-5.61-3.34-8.45-1-2.73-2.04-5.55-3.21-8.19-.02-.04-.04-.09-.06-.13-2.03-4.18-4.6-8.14-7.26-11.17-1.51-1.7-3.61-3.77-6.54-4.67-.03,0-.06-.02-.09-.03-1.3-.37-2.66-.55-4.15-.55-2.17,0-4.23.38-6.21.75-1.72.32-3.34.62-4.81.62-.55,0-1.05-.04-1.52-.13-.03,0-.06-.01-.08-.01-3.97-.66-7.75-3.87-11.41-6.98-.59-.5-1.18-1-1.76-1.48l-.71-.65c-2.06-1.86-4-3.62-5.31-5.57,0-.01-.02-.03-.03-.04-1.18-1.71-1.45-4.34-1.73-7.12-.44-4.32-.99-9.71-5.53-13.39-.06-.05-.12-.1-.19-.14-3.86-2.77-8.35-3.2-12.32-3.59-1.42-.14-2.77-.27-4.01-.5-.06-.01-.12-.02-.18-.03-3.19-.43-5.97-1.44-8.27-3.03-1.85-1.41-3.58-3.01-5.41-4.69-2.54-2.35-5.17-4.77-8.28-6.79-1.53-.99-3.07-1.88-4.56-2.74-2.26-1.31-4.4-2.54-6.33-4.02-3.85-3.04-7.07-6.63-10.49-10.43-2.65-2.94-5.38-5.99-8.52-8.87-3.33-3.02-7.1-5.87-10.76-8.62-8.28-6.23-16.83-12.68-20.77-21.56-.93-2.22-.73-2.66,2.49-5.66.4-.37.8-.75,1.21-1.14.04-.03.07-.07.1-.1,2.49-2.59,3.77-5.94,3.51-9.21-.2-3.53-2.43-6.22-5.57-6.72-.05,0-.09-.01-.14-.02-1-.12-1.98-.13-2.93-.13-1.53-.01-3.11-.02-3.71-.56-.05-.04-.1-.09-.15-.13-.29-.23-.45-.61-.38-.88,1.11-1.78,5.81-2.61,9.27-3.22,2.54-.45,4.93-.88,7.02-1.65,3.47-1.08,6.45-2.37,9.08-3.51,4.5-1.95,8.05-3.48,12.43-3.48,2.02,0,4.14.32,6.47.99.16.04.32.08.48.11.19.03.38.06.57.1.77.14,1.64.29,2.63.29,1.63,0,3.09-.45,4.33-1.33.15-.11.3-.23.44-.36,1.98-1.88,3.65-3.41,5.62-4.5,3.6-1.6,6-4.05,8.13-6.21,2.25-2.29,4.2-4.27,7.37-5.27,1.49-.45,3.08-.68,4.71-.68M885.46,1186.92c-1.96,0-3.92.26-5.87.85-7.67,2.4-9.59,8.9-16.11,11.72-2.54,1.37-4.57,3.26-6.61,5.19-.63.44-1.31.59-2.01.59-.84,0-1.72-.2-2.57-.34-2.82-.81-5.3-1.15-7.57-1.15-8.15,0-13.64,4.37-22.81,7.21-5.44,2.08-15.82,1.6-18.6,6.93-.91,2.01-.18,4.38,1.49,5.72,2.4,2.13,6.05,1.34,8.82,1.67,1.47.23,2.14,1.63,2.21,3.04.2,2.32-.81,4.51-2.4,6.17-3.58,3.46-6.95,5.64-4.59,11.27,6.18,14.01,21.75,21.79,32.51,31.56,6.92,6.36,11.99,13.77,19.24,19.49,3.48,2.68,7.44,4.54,11.17,6.96,4.96,3.23,8.8,7.8,13.52,11.37,2.98,2.08,6.45,3.27,10.09,3.75,4.92.89,10.55.4,14.72,3.4,5.84,4.73,2.51,13.9,6.49,19.67,1.77,2.64,4.33,4.84,6.72,7.02,4.46,3.7,9.3,8.43,15.13,9.39.75.14,1.5.2,2.25.2,3.66,0,7.4-1.37,11.02-1.37,1.03,0,2.06.11,3.07.4,1.91.59,3.41,2.02,4.72,3.5,2.55,2.91,4.87,6.6,6.66,10.27,2.33,5.26,4.11,11.28,6.56,16.67.97,2.23,2.13,4.37,3.88,6.07,3.49,3.07,7.7,4.47,11.89,4.47,7.84,0,15.65-4.88,18.67-12.84,1.6-3.6,2.81-7.37,4.71-10.83,2.57-4.85,6.11-10.07,4.9-15.58l-.03-.11c-2.21-6.51-11.14-7.68-16.63-10.64-3.86-1.88-7.44-4.52-10.05-7.95-3.2-4.14-5.66-9.06-9.35-12.79-3.74-4.04-9.66-6.76-12.93-11.03-4.23-5.98,2.87-11.02,5.16-16.98.89-1.96,1.46-4.02,1.53-6.19-.28-12.37-10.26-23.91-12.74-35.95-1.19-4.22-2.75-8.37-4.77-12.36-3.28-6.61-9.32-14.07-13.76-19.92-5.89-7.5-12.13-14.75-19.78-20.51-5.87-4.28-12.19-7.82-18.48-11.48-5.85-3.36-12.61-6.55-19.46-6.55h0Z"/>
        </g>
      </g>
      <path class="cls-1" d="M1090.1,719.47c6.89-10.2-10.66-28.87,13.49-46.82,19.88-11.63,22.49-8.77,36.11-30.16,10.55-16.31,24.86-29.93,31.64-48.33,2.57-6.13,4.92-12.44,3.59-19.01-2.98-11.71-12.13-18.39-11.09-32.61,1.25-15.78-8.6-12.36-20.1-11.97-8.64.39-17.4-2.12-25.85-3.29-5.38-.96-14.94-2.45-17.24-6.66-3.51-5.97,3.74-30.02,6.01-37.47,2.08-6.12,5.36-12.29,6.13-18.28,1.12-10.43-.43-21.2,4.35-30.99,4.92-10.08,9.72-19.42,14.24-30.19,3.64-8.28,8.45-19.35,4.03-27.76-4.9-7.77-14.91-11.68-22.92-15.83-11.58-5.73-23.34-6.27-35.05-11.03-30.25-15.44-30.26-11.42-60.78-2.57-7.35,1.84-15.29,2.36-22.38,4.93-14.35,5.12-23.72,17.79-33.61,28.67-4.88,4.89-12.93,16.87-20.12,16.7-1.35-.11-2.48-.69-3.66-1.42-2.98-1.97-6.8-5.68-10.44-7.69-10.25-5.43-23.73-6.71-34.39-2.41-8.23,3.56-14.03,11.32-19.59,17.98-17.67,21.28-8.7,25.18-14.02,47.21-1.38,4.84-3.78,9.46-5.73,14.02-1.78,3.89-2.84,7.82-4.81,11.58-2.09,3.93-4.78,8.21-7.4,13.61-3.64,6.5-3.91,15.92-6.21,21.49-3.2,9.86-24.62,10.99-11.44,20.46,13.4,8.8,37.45,7.46,25.62,29.68-3.2,6.37-4.21,13.85-.02,20.01,3.21,5.64,9.01,10.48,11.42,16.66,4.56,13.1-7.85,23.92-9.32,36.68-2.33,11.26,2.14,25.3,14.26,28.45,6.09,1.8,13.55.31,18.83,1.05,6.03.31,9.93,4.6,14.87,7.5,7.21,3.7,16.83,2.34,25.22,2.62,19.01-.03,30.17-1.45,46.21,9.38,9.73,4.85,13.75,7.92,13.09,19.29.05,1.7.33,3.52,1.79,4.58,3.59,2.29,8.91,2.32,13.17,3.35,8.65,1.84,16.62,6.45,24.79,10.41,14.09,6.56,27.55,23.15,43.98,13.36,4.38-2.27,8.52-4.82,12.9-7.27,4.35-2.52,8.3-4.79,10.33-7.77"/>
      <path class="cls-1" d="M893.51,663.28c-6.77-2.31-14.94.75-22.68-1.54-11.13-2.82-15.93-15.11-14.65-25.71.59-7.07,3.59-13.74,6.79-19.9,2.66-5.49,4.89-10.69,4-16.44-1.31-7.94-8.65-13.13-12.55-19.74-11.32-15.6,15.32-30.08-3.3-40.06-5.18-3.55-29.19-8.03-26.18-16.75,1.79-2.73,5.62-3.86,8.43-5.68,2.88-1.69,5.42-3.87,6.9-6.88,2.1-4.02,1.9-10.29,3.79-16.1,1.52-4.96,4.35-9.66,6.06-14.47,4.19-10.51-8.88-14.74-16.97-16.35-8.69-1.97-16.41-3.79-24.88-5.36-11.77-2.19-24.17-.86-36.02,1.58-10.16,2.16-17.53,3.18-16.23,16.02.79,10.7-3.99,20.53-8.4,30.05-4.67,10.81-8.57,22.24-12.84,33.25-10.82,26.58-16.63,54.48-24.62,81.99-2.14,8.06-4,16.98-4.83,25.4-.94,10.61-.58,21.63-4.02,31.82-2.6,8.15-6.46,15.95-7.38,24.54-1.07,9.44-1.8,19.43-4.33,28.51-2.65,10.71-7.39,19.17-14.5,28.14-8.17,10.92-25.53,26.72-10.88,38.97,5.57,3.25,12.18,3.24,17.72,6.84,3.51,1.75,7.06,5.11,10.42,7.52,4.61,3.3,10.4,5.24,15.91,7.2,4.87,1.66,9.89,3.01,15.02,3.44,8.25.83,16.34-.83,24.29.18,5.16.47,10.04,2.57,15.05,3.49,16.01,2.8,16.84-16.64,34.81-25.74,9.98-5.37,19.29-12.76,30.17-15.73,14.03-2.48,19.14-8.46,27.2-19.46,6.25-7.51,12.44-17.26,15.2-27,2-7.1,3.88-14.18,7.17-20.85,5.11-9.53,9.63-19.33,13.46-29.49,2.47-7.17,12.49-21.07,2.97-25.66"/>
      <path class="cls-1" d="M1384.46,834.16c-1.07-8.79-3.45-17.42-3.93-26.33-.54-6.29-.79-12.74-4.62-17.94-6.3-8.38-20.38-13.37-28.84-6.55-10.67,9.26-13.81,27.06-26.5,34.16-7.33,4.46-14.53-1.5-13.86-9.56,0-4.31,1.11-9.27-.16-13.18-2.5-7.44-11.28-10.31-18.36-12.83-10.87-3.42-21.81-6.85-31.73-12.31-6.59-3.75-11.82-8.42-17.64-12.37-7.46-5.12-17.86-11.98-13.49-22.45,3.53-9.15,12.69-15.33,16.32-24.54,3.43-7.71,4.62-15.66,6.99-23.98,2.84-8.95,5.74-18.63,1.47-27.63-1.61-3.89-4.05-7.4-6.57-10.77-4.06-5.35-8.26-10.79-13.54-14.37-4.44-3.06-9.86-5.18-13.95-8.61-5.65-4.36-4.22-11.43-3.7-17.84,2.09-13.17-6.68-25.27-18.25-30.57-4.96-2.47-12.83-6.69-17.34-4.93-8.77,6.13-10.48,19.07-15.77,28.1-6.52,13.15-17.02,23.49-24.95,35.99-4.6,6.73-8.69,14.08-14.79,19.55-10.39,8.74-26.97,11.45-32.91,25.32-3.89,7.32-3.07,15.99-1.64,23.75,4.35,22.45-25.71,14.55-24.22,40.99.49,12.29,11.21,20.61,13.73,32.1.98,5.26.15,11.58-.06,17.1-.49,7.15.4,14.6,1.06,22.01,1.13,11.55,2.48,23.77,6.75,34.28,2.24,5.62,4.92,10.92,7.42,16.64,9.06,19.34,17.12,39.55,33.34,54.34,5.21,4.37,11.32,9.26,16.28,13.52,6.08,5.06,12.82,5.1,17.81,10.7,2.1,2.6,2.98,7.49,4.23,11.75,1.84,8.53,10.45,15.32,18.76,10.17,2.75-1.71,5.03-4.11,7.5-6.17,1.23-.93,3.62-3.15,4.97-2.62,3.66,2.57-5.14,11.81-.73,15.38,6.18,3.67,11.54-4.37,14.7-8.87,2.73-4,6.12-7.57,10.37-10.09,12.35-6.59,30.57-11.08,43.63-4.04,6.85,3.51,12.06,9.22,18.95,11.69,8.03,3.18,17.94.75,24.55-4.75,3.86-3.07,7.42-6.5,11.55-9.01,10.41-5.88,19.15-8.14,25.71-19.34,4.86-7.2,6.87-15.77,7.22-24.32.52-6.09,1.38-11.67,2.09-17.95,1.12-9.56,3.78-21.7,14.19-24.72,4.58-1.42,10.04-.99,13.59-4.57,1.76-1.59,2.93-5.71,3.54-9.11.86-4.97,1.35-9.93.86-15.07"/>
      <path class="cls-1" d="M1696.83,237.54c-.09-14.11-13.78-20.78-25.17-25.66-7.67-3.17-13.72-9.78-21.2-13.26-34.02-6.58-20.91-16.46-18.72-42.41.87-12.04-5.39-23.31-6.33-35.27-.94-10.01,2.85-20.73-2.67-29.89-9.33-12.11-15.58-26.35-22.46-39.97-4.72-8-12.1-13.32-17.78-20.45-6.04-8.13-8.23-23.08-21.31-21.33-5.13.31-10.76,2.03-15.79.58-7.2-1.44-14.81-11.76-21.76-4.76-3.36,3.14-6,7.34-10.24,9.43-6.98,3.42-16.05,1.15-23.47,2.61-8.36,1.69-15.2,6.86-23.35,8.99-4.79,1.46-9.8,1.87-14.74,2.61-10.16,1.63-20.03,5.28-30.44,5.36-23.45,1.33-43.33-13.56-58.41-29.56-12.71-9.63-28.28,10.16-25.32,22.5,2.12,7.88,9.53,13.6,10.82,21.84.67,11.62-1.31,23.86-4.4,35.06-12.49,27.72-17,27.78-39.92,43.87-11.84,11.97-22.55,22.88-40.84,16.83-7.85-2.12-15.64-5.04-22.65-8.97-5.67-3.49-10.08-8.64-16.14-11.55-6.32-3.8-14.28-3.76-20.23-7.97-4.43-3.6-7.34-8.72-12.27-11.83-9.49-6.29-21.39-7.23-32.43-10.08-15.97-5.39-42.76-3.44-37.37,19.76,2.16,7.88,8.64,14.02,10.88,21.82,4.32,13.42-9.04,21.7-15.2,31.52-5.44,10.47-7.35,22.45-10.15,33.82-.8,13.98-.6,28.52-10.56,39.68-5.78,7.81-10.01,16.62-15.86,24.37-6.9,8.66-15.29,16.8-17.74,27.95-2.88,10.95-2.19,22.71-5.4,33.63-5.37,14.23,4.45,22.11,17.72,25.94,16.96,5.15,46.03,10.27,52.74,29.16,1.86,13.54-7.67,27.84-12.52,39.94-9.7,15.54-10.13,29.1-11.47,46.51-4.27,14.31-10.12,28.38-11.94,43.36-1.93,9.17,2.56,13.95,10.96,15.53,10.72,2.12,25.15,4.92,35.91,4.42,5.86-.37,14.04-1.91,15.5,5.99-.12,49.28,37.05,30.16,52.84,61.2,5.06,13.75-4.9,28.54,12.72,36.03,13.37,7.48,26.26,21.31,28.62,36.87.74,7.23-1.87,14.17-3.65,21.08-2.26,8.6-4.04,16.83-8.11,24.65-12.52,18.96-26.91,28.69.27,45.22,8.24,5.81,16.18,12.04,25.9,15.67,11.11,5.42,27.47,7.22,36.49,15.29,9.17,7.36-2.36,26.88,12.5,28.68,17.24-2.29,20.34-27.65,33.44-35.72,8.3-4.76,19.9-.76,25.86,6.2,4.77,5.59,5.28,12.92,6.17,21.12,1.23,10.08,2.66,21.37,5.61,30.53,1.25,5.5,7,12.9,12.61,7.89,2.12-2.99,2.95-7.1,5.45-9.97,6.51-8.6,15.43-.18,23.11.68,8.78-.24,10.69-10.55,11.53-17.55.93-5.44,2.42-10.5,3.05-15.92.73-3.85.76-8.08,2.81-11.45,9.87-7.6,18.29-6.58,15.87-23.09-3.69-15.81-20.44-25.53-24.3-41.43-2.59-11.18,5.79-23.7,16.91-25.69,1.55-.49,4.34-.83,4.28-2.77-1.59-5.82-10.77-19.76-1.35-22.79,3.56.6,5.98,4.13,8.63,6.34,5.15,5.61,13.51,6.4,19.79,1.97,9.1-5.18,7.49-16.89,10.93-25.43,2.6-6.94,8.97-12.24,11.05-19.26,1.35-5.42-.92-11.02-.04-16.5.63-9.06,13.66-16.7,8.25-26.34-10.38-20.21,26.67,5.01,19.06-37.74-2.36-9.01,1.49-18.85-4.11-26.54-16.96-16.96-50.55,9.53-55.39-12.44-2.73-13.75,9.44-14.58,19.34-16.61,13.33-2.64,8.72-21.16,19.09-26.83,8.21-3.83,22.24,0,27.55-9.96,3.57-6.11,3.5-13.55,4.99-20.3,1.17-6.32,5.08-11.56,7.76-17.22,5.26-15.13-5.96-18.99,4.65-39.69,10.47-20.96-7.74-42.14-1.79-63.33,4.58-12.11,7.62-25.62,12.12-37.88,4.89-12.35,17.22-18.01,27.87-24.53,10.54-5.69,21.74-15.04,30.53-22.32,5.25-2.84,7.75,5.75,10.95,8.91,6.64,6.29,10.04,15.13,14.18,23.09,6.45,12.22,28.95,13.49,36.6,2.06,3.17-6.43,3.06-13.88,4.84-20.79,1.63-7.75,6.46-15.5,6.24-23.38"/>
    </g>
  </g>
</svg>