<?xml version="1.0" encoding="UTF-8"?>
<svg id="Layer_2" xmlns="http://www.w3.org/2000/svg" viewBox="0 0 682.24 1001.05">
  <defs>
    <style>
      .cls-1 {
        stroke: #fff;
        stroke-linejoin: round;
        stroke-width: 4px;
      }

      .cls-1, .cls-2 {
        fill: "currentColor";
      }

      .cls-3 {
        fill: "currentColor";
      }
    </style>
  </defs>
  <g id="Layer_1-2" data-name="Layer_1">
    <g>
      <path class="cls-1" d="M364.9,73.84c-.17-.05-.9-.19-1.09-.21-.16-.02-.14.01.06.06.31.08.7.14,1.01.15"/>
      <g>
        <path class="cls-2" d="M364.94,74.6c-1.51.68-3.82-1-5.12-1.86-.41-.37-1.03-.64-.98-1.14.28-.46,4.58.3,5.94,1.63.4.35.71.92.25,1.31l-.09.06Z"/>
        <path class="cls-3" d="M359.43,71.46c-.32,0-.53.04-.59.14-.05.5.57.77.98,1.14,1.09.72,2.88,2.02,4.33,2.02.28,0,.55-.05.79-.16l.09-.06c.47-.38.15-.96-.25-1.31-1.09-1.07-4.07-1.77-5.35-1.77h0Z"/>
      </g>
      <path class="cls-1" d="M180.23,482.09l.15.1-.15-.1"/>
      <g>
        <path class="cls-2" d="M179.72,483.13c-.07.08.28-.53.65-1.14.35-.55.62-.9.5-.65-.29.57-.76,1.26-1.11,1.74l-.04.05ZM180.68,481.45c-.06.09-.45.63-.44.62,0,.01.37-.53.44-.62h0Z"/>
        <path class="cls-3" d="M180.89,481.26s-.26.31-.53.73c-.35.57-.68,1.15-.66,1.15,0,0,0,0,0,0l.04-.05c.35-.48.82-1.17,1.11-1.74.03-.06.03-.08.02-.08h0ZM180.68,481.45s0,0,0,0c0,0,0,0,0,0h0ZM180.68,481.45s0,0,0,0c0,0,0,0,0,0h0ZM180.68,481.45h0s0,0,0,0h0ZM180.68,481.45s0,0,0,0c0,0,0,0,0,0h0ZM180.68,481.45s0,0,0,0c0,0,0,0,0,0h0ZM180.68,481.45c-.07.1-.43.62-.43.62,0,0,.36-.52.43-.62h0ZM180.25,482.07s0,0,0,0c0,0,0,0,0,0h0Z"/>
      </g>
      <path class="cls-1" d="M179.32,481.46s.94.66.89.62c0,0-.68-.47-.85-.59"/>
      <g>
        <path class="cls-2" d="M179.31,482.99c-.36.06-.57-.14-.58-.51-.12-.83.84-1.82,1.62-1.85.35-.03.52.22.48.62-.03.75-.64,1.48-1.34,1.69l-.18.04Z"/>
        <path class="cls-3" d="M180.41,480.63s-.04,0-.06,0c-.79.03-1.74,1.02-1.62,1.85.01.33.18.52.46.52.04,0,.08,0,.12-.01l.18-.04c.7-.2,1.31-.94,1.34-1.69.03-.38-.12-.63-.43-.63h0Z"/>
      </g>
      <path class="cls-1" d="M274.47,619.5c-.29-.2-.76-.31-1.08-.43-.21-.04-.24-.02-.05.06.34.14,1.15.47,1.16.41"/>
      <g>
        <path class="cls-2" d="M278.06,621.83c-1.25.4-3.76-.92-4.98-1.67-1.8-1.19-1.12-2.62.82-2.02,1.39.45,2.78,1.56,3.72,2.61.39.46.56.83.47,1.02l-.04.06Z"/>
        <path class="cls-3" d="M273.06,618c-1.26,0-1.49,1.16.02,2.16,1.07.66,3.11,1.74,4.45,1.74.19,0,.37-.02.53-.07l.04-.06c.09-.19-.08-.56-.47-1.02-.94-1.05-2.34-2.16-3.72-2.61-.31-.1-.59-.14-.84-.14h0Z"/>
      </g>
      <g>
        <path class="cls-2" d="M139.97,998.95c-.04-.57.02-1.77.59-4.13,1.6-6.98,1.32-11.57-.86-14.47-2.52-3.35-6.84-3.59-11.01-3.81-3.46-.19-7.03-.38-9.33-2.35-1.52-2.67-1.74-6-1.98-9.51-.26-4.01-.54-8.15-2.76-11.81-5.14-9.54-4.97-9.7,3.08-17.23l.34-.32s.09-.09.13-.14c1.6-1.82,2.32-4.14,2.03-6.54-.09-1.18-.4-2.36-.71-3.51-.41-1.55-.77-2.9-.52-4.13.98-2.14,3.08-3.74,5.3-5.44,2.53-1.93,5.14-3.93,6.58-7,1.64-3.48,1.8-6.91.47-10.18-2.9-7.14-12.17-11.5-17.43-13.46-3.34-1.21-6.68-2.51-9.91-3.77-4.74-1.85-9.63-3.75-14.57-5.39-2.74-1.05-4.96-3.25-7.32-5.57-1.99-1.96-4.04-3.99-6.57-5.43-1.84-1.31-4.06-1.97-6.21-2.61-3.53-1.05-5.77-1.85-6.66-4.05-.05-.4-.02-.71.08-.83.12-.14.69-.59,3.21-.59,1.33,0,2.88.12,4.53.24,1.88.14,3.82.29,5.75.29,3.01,0,7.3-.33,10.07-3.11,3.29-2.68,5.36-6.93,5.55-11.42.18-4.12-1.23-7.83-3.98-10.44-1.78-1.85-4.03-3.31-6.2-4.71-2.23-1.44-4.34-2.81-5.91-4.57-2.3-2.6-.38-5.9,2.96-11.07,2.61-4.05,5.57-8.63,5.37-13.47,1.19-11.66-6.6-20.05-13.49-27.45-7.23-9.4-11.63-15.08-24.53-18.93-4.28-1.42-7.13-4.75-10.16-8.28-2.2-2.56-4.47-5.21-7.41-7.21-1.71-1.2-3.58-2.06-5.39-2.9-1.83-.84-3.55-1.63-5.03-2.73-3.93-3.23-3.79-9.23-3.65-15.04.03-1.34.06-2.6.04-3.84.16-3.29.02-6.28-.11-8.92-.23-4.8-.41-8.6,1.11-12.35.45-.74,1.04-1.13,3.02-1.42,19.24-2.65,52.11-11.72,81.11-19.72,15.76-4.35,30.64-8.45,40.91-10.83,13.55-1.83,12.51-15.79,12.01-22.5-.35-5.01-3.28-8.01-7.83-8.01-.16,0-.33,0-.5.01-2.05-.02-4.36-.03-6.9-.03-12.67,0-30.91.26-50.22.54-21.82.31-44.38.64-62.07.64-7.52,0-13.58-.06-18.31-.18,15.74-9.44,38.56-21.99,58.96-33.22,14.66-8.06,27.32-15.03,35.31-19.71,2.21-1.02,4.27-2.32,6.27-3.59,1.44-.91,2.8-1.77,4.19-2.52.52-.28.89-.78,1.01-1.35.12-.58-.02-1.18-.39-1.65-4.26-5.39-6.99-10.87-8.37-16.74.83-8.1,7.53-9.33,19.22-10.78,15.53-1.94,36.81-4.59,43.47-35.88,2.05-10.84-3.66-18.75-9.18-26.4-3.65-5.05-7.09-9.82-8.51-15.4-.02-.08-.05-.16-.08-.24-1.48-3.77-2.04-8.78-2.64-14.08-1.36-12.13-2.91-25.87-16.64-28.45-.07-.01-.13-.02-.2-.03-1.06-.09-2.21-.13-3.64-.13-1.02,0-2.06.02-3.12.04-1.05.02-2.12.04-3.19.04-2.53,0-5.48-.11-8.2-.9-32.89-9.35-61.58-34.97-87.73-78.32-2.44-4.83-5.01-9.22-7.28-13.09-4.99-8.51-8.92-15.24-6.93-19.06,1.96-3.75,9.83-6.05,24.78-7.23.1,0,.21-.02.31-.05,10.09-2.41,18.53-3.58,25.8-3.58,11.69,0,18.8,3.07,26.32,6.32,7.94,3.43,16.15,6.97,30.17,7.55.03,0,.05,0,.08,0,.06,0,.12,0,.18,0,6.49-.59,12.68-2.72,18.66-4.77,7-2.41,13.61-4.68,20.7-4.73.05,0,.1,0,.15,0,12.59-1.03,15.9-6.48,19.39-12.24,4.17-6.87,9.35-15.43,33.65-21.03.05-.01.1-.02.15-.04,4.51-1.42,9.61-2.17,14.75-2.17,13.33,0,24.49,4.91,29.92,13.15,1.52,4.04-.8,7.01-4.69,11.47-3.09,3.54-6.58,7.55-6.61,12.81-.16,6.58,3.69,15.08,9.58,21.12,4.58,4.69,9.81,7.28,14.72,7.28,2.61,0,5.11-.71,7.43-2.11.21-.13.4-.3.55-.5,3.32-4.33,2.15-9.52,1.11-14.11-.72-3.2-1.41-6.22-.71-8.77.88-3.8,4.78-5.73,8.91-7.77,2.36-1.17,4.81-2.38,6.73-3.99.07-.06.13-.12.19-.18,5.36-5.87,1.42-12.15-1.75-17.2-1.81-2.88-3.67-5.85-3.83-8.46-.08-4.31-1.63-8.25-3.14-12.06-1.32-3.34-2.57-6.51-2.76-9.76,3.02-3.03,5.48-4.85,7.48-6.33,6.12-4.53,8.29-6.91,9-22.86,2.5-16.95-2.2-24.87-7.18-33.25-4.58-7.72-9.78-16.47-10.78-34.41,0-.18-.04-.35-.1-.52-1.18-3.57-2.3-6.78-3.29-9.6-7.88-22.61-8.53-24.45,14.12-46.89.03-.02.05-.05.07-.08,17.22-18.94,27.05-22.81,36.5-22.81,3.04,0,6.15.38,9.44.79,3.84.47,8.2,1.01,13.16,1.01,7.79,0,15.74-1.36,24.31-4.16.76-.21,1.67-.44,2.62-.68,4.83-1.21,10.85-2.73,13.07-6.95,1.09-2.07,1.13-4.49.12-7.2-.01-.03-.02-.06-.04-.1-2.08-4.81-2.34-8.65-.74-11.08,1.63-2.49,4.74-2.86,6.45-2.86,4.33,0,8.84,2.18,11.5,5.55,2.43,3.08,3.17,6.94,2.16,11.16l-.04.21c-1.31,5.75-5.2,10.33-9.32,15.17-2.67,3.14-5.44,6.4-7.5,10.06-2.45,4.28-5.29,8.61-8.03,12.79-8.17,12.46-16.62,25.35-17.73,40.84-.32,6.81.62,13.58,1.53,20.13.94,6.81,1.92,13.84,1.44,20.73-.23,6.21-1.81,12.32-3.34,18.24-1.63,6.28-3.31,12.78-3.48,19.54-.07,4.67.23,9.41.52,14,.39,6.12.79,12.45.31,18.53-.32,5.29-1.79,10.49-3.21,15.52-1.81,6.39-3.67,13.01-3.37,20.08,0,.05,0,.1.01.15,1.81,15.36.81,31.5-3.06,49.34-1.02,5.17-1.59,10.61-2.15,15.87-1.05,10.02-2.14,20.38-6.33,29.12-1.06,1.8-1.95,1.8-2.28,1.8-1.83,0-4.46-2.2-6.78-4.15-2.64-2.21-5.12-4.29-7.61-4.29-1.47,0-3.46.7-4.6,4.03-.06.16-.09.34-.1.51-.96,13.65,10.2,20.89,20.05,27.28,3.39,2.2,6.59,4.27,9.22,6.52,9.47,10.33,5.92,24.02-10.84,41.84-.05.05-.09.11-.14.16-4.24,5.59-5.03,12.35-5.79,18.89-.4,3.43-.81,6.97-1.73,10.19-1.44,5.48-3.95,10.73-6.38,15.81-2.16,4.53-4.4,9.21-5.94,14.12-.02.07-.04.13-.05.2-2.45,11.99-3.02,24.74-3.57,37.08-.85,19.05-1.73,38.76-9.57,55.96-2.07,3.2-3.18,7.36-4.25,11.38-2.35,8.82-4.27,14.18-10.98,14.18-.33,0-.68-.01-1.04-.04-1.5-.23-3.03-.45-4.58-.67-8.05-1.14-16.36-2.31-22.86-6.39-1.89-1.7-1.45-3.29.15-6.95.95-2.17,2.02-4.62,1.8-7.22-.57-4.45-1.62-8.92-5.11-8.92-2.49,0-4.53,2.59-6.89,5.59-1.35,1.71-2.75,3.48-4,4.44-5.98,2.49-14.14,2.81-20.6,2.81-3.19,0-6.47-.09-9.64-.18-3.19-.09-6.21-.17-9.17-.17-2.66,0-4.92.07-6.92.21-4.48.06-9.65.07-14.65.08-5.98.01-11.63.02-16.1.12h-.15c-1.93,0-4.01.23-6.02.45-1.53.17-3.1.34-4.6.41-1,.05-1.81.83-1.9,1.82-.25,2.81-.77,5.6-1.32,8.56-.39,2.1-.8,4.27-1.09,6.45-1.43,8.89-1.56,18.81-1.68,28.4-.02,1.88-.05,3.74-.08,5.56-.26,2.26-.07,9.77,2.3,12.48.88,1,1.85,1.21,2.51,1.21,2.05,0,3.47-1.95,4.36-3.46,1.71-2.34,2.38-6.46,3.08-10.82.84-5.19,1.89-11.65,4.61-11.65.27,0,.58.05.91.15,2.49,1.57,4.24,4.17,6.1,6.92,2.46,3.65,5,7.42,9.54,9.24,4.83,2.01,10.21,2.12,15.41,2.23,5.38.11,10.45.22,14.98,2.24,4.75,1.94,11.82,8.05,12.22,13.29.16,2.13-.92,3.86-3.3,5.29-3.26,1.86-7.2,2.84-11.36,3.87-5,1.24-10.17,2.52-14.5,5.53-.05.03-.09.07-.14.1-9.89,8.21-3.96,20.91.8,31.11,2.06,4.41,4,8.57,4.67,12.03,0,.05.02.09.03.14,1.61,5.97,1.91,12.63,2.2,19.08.06,1.31.12,2.6.19,3.88,0,.03.16,1.51.16,1.51.95,8.92,1.84,17.34-1.98,25.13-1.22,2.74-2.2,5.49-3.15,8.15-1.5,4.21-2.93,8.19-5.09,11.9-1.62,2.76-3.68,5.22-5.68,7.6-3.26,3.88-6.64,7.9-8.2,13.32-.57,2.05-1.11,4.1-1.66,6.17-1.78,6.71-3.62,13.65-6.25,20.07-.01.03-.03.07-.04.1-.35.99-.68,1.99-1.02,2.99-1.68,5.01-3.27,9.75-6.17,13.85-1.51,2.21-3.32,4.16-5.23,6.23-2.09,2.25-4.25,4.58-5.98,7.27-5.57,8.19-4.71,19.99,2.03,27.41,1.74,2.1,3.85,3.94,5.9,5.71,1.66,1.44,3.22,2.8,4.62,4.32,4.05,4.56,2.72,9.33,1.03,15.38-1.55,5.54-3.3,11.82-1.09,19.12,1.42,5.98.5,8.6-3.89,11.21-4.19,2.56-7.16,6.37-10.03,10.05-.91,1.17-1.77,2.27-2.66,3.33-3.81,4.5-8.16,8.41-12.92,11.62-1.91,1.33-2.95,1.82-3.47,1.99Z"/>
        <path class="cls-3" d="M394,40.76c3.68,0,7.67,1.92,9.93,4.78,2.06,2.62,2.66,5.8,1.78,9.46,0,.04-.02.08-.03.12l-.02.11c-1.21,5.3-4.94,9.69-8.89,14.33-2.73,3.22-5.56,6.54-7.7,10.35-2.43,4.24-5.25,8.54-7.97,12.7-8.31,12.68-16.91,25.78-18.05,41.79,0,.03,0,.07,0,.1-.32,6.95.63,13.81,1.55,20.44.97,7.01,1.89,13.64,1.43,20.32,0,.04,0,.09,0,.13-.22,5.93-1.7,11.67-3.28,17.75-1.65,6.39-3.36,13-3.54,20.03-.07,4.73.24,9.51.53,14.13.4,6.33.78,12.3.31,18.24v.07c-.31,5.04-1.69,9.91-3.14,15.06-1.85,6.55-3.76,13.31-3.44,20.71,0,.1.01.2.02.3,1.79,15.14.8,31.06-3.03,48.68,0,.02-.01.05-.02.07-1.03,5.23-1.61,10.71-2.17,16.02-1.03,9.82-2.1,19.97-6.1,28.39-.27.44-.48.66-.58.74-1.15-.09-3.93-2.42-5.44-3.68-2.92-2.45-5.68-4.76-8.89-4.76-1.73,0-4.89.7-6.49,5.38-.11.33-.18.67-.21,1.02-1.04,14.83,11.15,22.74,20.95,29.1,3.29,2.13,6.4,4.15,8.92,6.28,8.52,9.41,4.95,22.18-10.91,39.03-.1.1-.19.21-.27.32-4.57,6.02-5.39,13.06-6.18,19.87-.41,3.5-.79,6.81-1.67,9.87,0,.03-.02.05-.02.08-1.38,5.25-3.74,10.19-6.24,15.42-2.19,4.59-4.46,9.34-6.04,14.38-.04.13-.08.26-.1.4-2.48,12.15-3.05,24.98-3.61,37.39-.84,18.82-1.71,38.27-9.33,55.09-2.19,3.44-3.32,7.7-4.42,11.82-2.35,8.83-3.92,12.7-9.05,12.7-.26,0-.53,0-.81-.03-1.49-.23-3.03-.45-4.52-.66-7.78-1.1-15.82-2.23-21.94-6.02-.65-.6-.72-1.1.79-4.54,1.04-2.38,2.22-5.08,1.96-8.19,0-.06-.01-.11-.02-.17-.41-3.16-1.37-10.58-7.08-10.58-3.46,0-5.89,3.08-8.46,6.35-1.15,1.45-2.43,3.08-3.45,3.93-5.63,2.26-13.4,2.56-19.58,2.56-3.16,0-6.43-.09-9.59-.17-3.07-.08-6.24-.17-9.22-.17-2.68,0-4.97.07-7,.21-4.45.06-9.58.07-14.55.08-5.98.01-11.63.02-16.11.12h-.16c-2.04,0-4.17.23-6.24.46-1.5.16-3.04.33-4.47.4-2,.09-3.62,1.65-3.8,3.65-.24,2.72-.75,5.46-1.29,8.36-.39,2.11-.8,4.29-1.1,6.49-.61,3.83-.99,7.82-1.23,11.89-.05-1.16-.13-2.21-.19-3.11-.42-6-4.28-9.88-9.83-9.88-.18,0-.35,0-.53.01-1.97-.02-4.28-.03-6.86-.03-12.68,0-30.93.26-50.25.54-21.82.31-44.37.64-62.05.64-4.18,0-7.91-.02-11.2-.05,15.18-8.88,34.94-19.75,52.83-29.59,14.62-8.04,27.25-14.99,35.27-19.68,2.3-1.07,4.39-2.39,6.41-3.67,1.41-.89,2.74-1.73,4.07-2.45,1.04-.56,1.78-1.55,2.02-2.71.24-1.16-.04-2.36-.78-3.29-3.99-5.05-6.58-10.17-7.91-15.62.78-6.03,5.54-7.2,17.44-8.68,16.13-2.01,38.22-4.76,45.17-37.44,0-.03.01-.06.02-.09,2.21-11.64-4.03-20.28-9.53-27.9-3.53-4.89-6.87-9.51-8.19-14.72-.04-.16-.09-.32-.15-.48-1.38-3.52-1.93-8.4-2.51-13.57-1.37-12.18-3.07-27.34-18.26-30.19-.13-.02-.26-.04-.4-.05-1.11-.1-2.32-.14-3.81-.14-1.03,0-2.09.02-3.16.04-1.04.02-2.11.04-3.15.04-2.39,0-5.16-.1-7.66-.83-17.62-5.01-34.44-15.15-50-30.13-12.87-12.39-24.81-27.84-36.51-47.23-2.46-4.86-5.03-9.25-7.31-13.13-4.3-7.34-8.37-14.28-6.88-17.12,1.08-2.06,5.97-4.81,23.16-6.17.21-.02.41-.05.61-.1,9.94-2.37,18.23-3.53,25.33-3.52,11.28,0,17.88,2.85,25.53,6.15,7.73,3.34,16.49,7.12,30.88,7.71.05,0,.11,0,.16,0,.12,0,.24,0,.36-.02,6.73-.61,13.03-2.78,19.12-4.87,6.84-2.35,13.3-4.57,20.07-4.62.1,0,.2,0,.3-.01,13.61-1.11,17.34-7.26,20.94-13.2,4.18-6.89,8.92-14.71,32.39-20.12.1-.02.2-.05.3-.08,4.32-1.36,9.21-2.07,14.15-2.07,12.54,0,23.01,4.5,28.11,12.05.93,2.75-.6,4.89-4.4,9.25-3.31,3.79-7.06,8.09-7.1,14.08-.16,7.11,3.92,16.18,10.15,22.57,4.96,5.08,10.7,7.89,16.16,7.89,2.98,0,5.82-.81,8.46-2.39.43-.26.8-.59,1.11-.99,3.89-5.07,2.55-11,1.48-15.77-.67-2.95-1.3-5.73-.73-7.81.01-.05.03-.1.04-.15.6-2.61,3.36-4.14,7.83-6.35,2.47-1.22,5.03-2.48,7.13-4.25.13-.11.26-.23.38-.36,6.39-6.99,1.81-14.29-1.53-19.61-1.65-2.64-3.36-5.36-3.53-7.45-.11-4.71-1.72-8.79-3.28-12.74-1.13-2.87-2.21-5.6-2.54-8.27,2.59-2.53,4.7-4.08,6.59-5.48,6.79-5.02,9.07-8.03,9.8-24.28,2.57-17.58-2.3-25.78-7.45-34.47-4.69-7.89-9.53-16.05-10.51-33.5-.02-.35-.09-.7-.2-1.03-1.19-3.59-2.31-6.8-3.3-9.63-3.75-10.75-5.81-16.67-4.42-21.96,1.49-5.66,7.25-12.14,18.06-22.84.05-.05.1-.1.14-.15,16.73-18.39,26.1-22.16,35.02-22.16,2.91,0,5.96.38,9.19.77,3.9.48,8.32,1.03,13.41,1.03,7.98,0,16.11-1.38,24.85-4.23.77-.22,1.64-.44,2.56-.67,5.22-1.31,11.72-2.94,14.36-7.96,1.36-2.59,1.44-5.57.23-8.83-.02-.07-.05-.13-.08-.19-1.75-4.05-2.08-7.4-.9-9.19,1.16-1.76,3.73-1.95,4.78-1.95M154.38,646.7c-.08,3.13-.12,6.27-.16,9.37-.02,1.86-.05,3.71-.08,5.51-.17,2.05-.3,10.33,2.79,13.87,1.07,1.22,2.49,1.9,4.01,1.9,3.32,0,5.29-3.1,6.04-4.37,1.94-2.74,2.64-7.04,3.38-11.59.47-2.9,1.44-8.89,2.71-9.97.01,0,.02,0,.04,0,2.01,1.37,3.58,3.71,5.24,6.17,2.5,3.71,5.33,7.92,10.44,9.97,5.2,2.15,10.75,2.27,16.13,2.38,5.17.11,10.05.21,14.21,2.07.04.02.08.04.12.05,4.66,1.9,10.62,7.61,10.92,11.56.04.58.15,1.93-2.3,3.4-3.05,1.73-6.84,2.67-10.85,3.67-5.17,1.28-10.52,2.61-15.16,5.83-.09.07-.18.13-.27.21-11.08,9.2-4.79,22.67.26,33.5,2,4.29,3.9,8.35,4.52,11.57.02.09.04.18.06.27,1.55,5.76,1.84,12.32,2.13,18.66.06,1.31.12,2.61.19,3.89,0,.07,0,.14.02.2l.15,1.41c.92,8.62,1.78,16.77-1.78,24.03-.02.04-.04.09-.06.14-1.22,2.74-2.21,5.53-3.18,8.22-1.47,4.12-2.86,8.01-4.93,11.56-1.53,2.62-3.46,4.9-5.49,7.33-3.4,4.04-6.91,8.22-8.6,14.09-.57,2.04-1.12,4.14-1.66,6.17-1.76,6.65-3.59,13.52-6.17,19.83-.03.07-.05.13-.08.2-.35,1-.69,2.01-1.02,3.02-1.63,4.87-3.17,9.47-5.91,13.33-.01.02-.03.04-.04.05-1.41,2.06-3.16,3.96-5.02,5.97-2.14,2.31-4.34,4.69-6.17,7.51-6.06,8.95-5.14,21.74,2.14,29.81,1.89,2.26,4.04,4.13,6.12,5.94,1.6,1.4,3.12,2.71,4.44,4.14,3.17,3.6,2.39,7.11.6,13.51-1.54,5.5-3.45,12.34-1.1,20.18,1.28,5.44.42,6.95-2.98,8.96-.01,0-.03.02-.04.03-4.48,2.73-7.56,6.69-10.55,10.51-.9,1.15-1.74,2.24-2.61,3.26-3.64,4.3-7.77,8.03-12.3,11.11,1.71-7.52,1.32-12.61-1.24-16-3.08-4.09-8.09-4.37-12.5-4.61-3.11-.17-6.06-.33-7.87-1.66-1.14-2.25-1.34-5.21-1.55-8.34-.27-4.04-.57-8.6-3.02-12.67-2.12-3.94-3.47-6.84-3.18-8.19.29-1.36,2.64-3.55,5.88-6.58l.34-.32c.09-.09.18-.18.27-.28,1.96-2.23,2.86-5.07,2.52-8.01-.12-1.42-.47-2.72-.77-3.88-.32-1.19-.6-2.24-.53-3.01.83-1.59,2.66-2.98,4.58-4.45,2.59-1.98,5.52-4.22,7.17-7.73,1.87-3.95,2.04-8.03.51-11.8-3.19-7.85-13.01-12.5-18.62-14.6-3.3-1.19-6.62-2.49-9.84-3.74-4.73-1.84-9.62-3.75-14.58-5.4-2.4-.95-4.46-2.98-6.64-5.13-2.06-2.03-4.18-4.13-6.9-5.69-2.09-1.47-4.54-2.19-6.71-2.84-1.91-.57-3.25-1.01-4.14-1.55.07,0,.13,0,.2,0,1.26,0,2.77.12,4.37.24,1.92.15,3.9.3,5.9.3,3.34,0,8.13-.38,11.41-3.63,3.68-3.04,5.99-7.81,6.21-12.82.2-4.67-1.41-8.9-4.53-11.91-1.99-2.05-4.31-3.55-6.56-5-2.11-1.37-4.11-2.66-5.5-4.21-1.2-1.35-.22-3.45,3.14-8.66,2.75-4.26,5.86-9.08,5.69-14.5,1.2-12.44-7.16-21.5-13.97-28.81-7.18-9.33-11.98-15.51-25.42-19.53-3.78-1.28-6.33-4.25-9.28-7.69-2.28-2.65-4.63-5.4-7.78-7.54-1.88-1.32-3.82-2.21-5.71-3.08-1.69-.78-3.3-1.51-4.59-2.46-3.18-2.69-3.05-8.16-2.92-13.44.03-1.28.06-2.6.05-3.86.16-3.36.02-6.38-.11-9.05-.21-4.47-.38-8.03.89-11.32,0,0,0,0,0,0h0s.27-.19,1.5-.37c19.38-2.67,52.32-11.76,81.39-19.78,15.69-4.33,30.51-8.42,40.73-10.79,9.39-1.31,12.59-7.74,13.53-14.06M394,36.77c-7,0-12.57,5.12-7.55,16.73,3.35,9-8.1,10.4-14.56,12.24-9.62,3.14-17.23,4.06-23.69,4.06-9.04,0-15.8-1.8-22.6-1.8-10.06,0-20.22,3.94-37.98,23.47-26.49,26.24-21.94,26.52-11.33,58.54,2.13,38.14,22.67,35.78,17.96,67.36-.98,22.3-4.64,16.33-16.5,28.59.02,7.82,5.78,14.66,5.92,22.74.5,8.12,13.13,16.48,6.1,24.19-5.02,4.23-14.64,5.66-16.28,12.76-1.93,7.07,4.76,15.91-.06,22.19-2.09,1.26-4.25,1.82-6.4,1.82-11.41,0-22.57-15.8-22.31-26.39.04-9.99,15.09-15.2,11.09-25.21-6.47-10.02-19.32-14.23-31.7-14.23-5.39,0-10.69.8-15.35,2.26-45.18,10.42-26.69,31.1-52.76,33.23-13.78.09-25.99,8.27-39.53,9.51-27.21-1.12-32.29-13.87-56.58-13.87-6.89,0-15.33,1.03-26.26,3.63-42.65,3.37-25.62,15.69-12.16,42.35,20.54,34.07,49.12,67.96,88.92,79.27,2.78.81,5.78.98,8.76.98,2.14,0,4.27-.09,6.31-.09,1.19,0,2.36.03,3.47.12,17.85,3.35,12.73,28.45,17.78,41.29,3.75,14.76,20.83,24.23,17.67,40.9-10.86,51.04-60.67,22.11-62.75,47.21,1.54,6.85,4.71,12.65,8.82,17.84-3.48,1.87-6.79,4.43-10.43,6.09C79.47,586.6,25.44,615.16,0,630.99v.02c5.54.31,14.33.43,24.97.43,33.53,0,85.49-1.17,112.3-1.17,2.55,0,4.88.01,6.93.03.16,0,.31-.01.46-.01,3.59,0,5.57,2.37,5.84,6.16.67,9.05.49,18.97-10.38,20.38-28.81,6.67-92.17,26.45-121.94,30.54-2.13.31-3.57.8-4.54,2.52-2.7,6.49-.75,13.02-1.21,22.13.12,6.8-1.39,15.76,4.41,20.52,3.19,2.38,7.22,3.37,10.49,5.68,6.66,4.52,9.92,13.03,18.12,15.75,12.1,3.61,16.24,8.77,23.57,18.3,6.79,7.28,14.2,15.23,13.02,26.1.55,9.6-13.98,18.98-7.81,25.93,3.38,3.78,8.72,5.76,12.22,9.39,5.33,5.08,3.99,14.51-1.54,18.93-1.99,2.07-5.23,2.59-8.72,2.59s-7.32-.54-10.27-.54c-3.45,0-5.77.74-5.24,3.93,2.01,5.54,9.56,4.78,13.74,7.84,5.27,2.95,8.54,8.99,14.34,11.21,8.24,2.73,16.18,6.15,24.41,9.13,8.47,3.16,20.9,10.23,15.85,20.92-2.49,5.33-9.7,7.32-11.97,12.66-.7,2.86.94,5.65,1.16,8.51.22,1.8-.32,3.58-1.54,4.98-8.65,8.09-9.76,8.91-3.79,20,3.96,6.46,1.07,15.3,4.91,21.61,7.99,7.46,26.17-4.42,20.83,18.89-1.16,4.78-.74,6.7.9,6.7,1.14,0,2.85-.92,5.04-2.44,4.99-3.36,9.44-7.4,13.33-11.99,3.77-4.48,7.09-9.83,12.19-12.95,5.7-3.38,6.28-7.25,4.8-13.45-4.48-14.68,8.51-25.3-.41-35.33-3.28-3.55-7.42-6.3-10.51-10.02-6.08-6.69-6.98-17.4-1.83-24.98,3.16-4.89,7.88-8.63,11.16-13.43,3.68-5.21,5.37-11.38,7.44-17.34,3.49-8.52,5.56-17.73,7.99-26.44,2.38-8.25,9.35-13.05,13.69-20.47,3.7-6.35,5.35-13.51,8.31-20.18,4.29-8.74,3-18.24,2.02-27.62-.41-7.7-.46-15.96-2.45-23.37-2.37-12.18-18.67-30.85-6.16-41.23,7.49-5.2,18.09-4.95,25.74-9.32,10.89-6.51-1.5-19.01-9.13-22.12-9.55-4.26-21.2-.66-30.47-4.51-7.35-2.93-9.06-12.26-15.55-16.14-.63-.21-1.21-.31-1.74-.31-7.23,0-5.61,18.42-9.36,23.37-1.07,1.83-1.96,2.57-2.69,2.57-2.55,0-3.17-8.92-2.81-11.56.2-10.95.03-23.24,1.74-33.83.68-5.06,1.98-10.08,2.42-15.1,3.53-.17,7.26-.86,10.52-.86.07,0,.13,0,.2,0,8.28-.18,21.07-.06,30.79-.2,2.15-.16,4.45-.21,6.83-.21,5.95,0,12.47.34,18.81.34,8.03,0,15.74-.55,21.6-3.06,3.53-2.52,7.22-9.77,9.89-9.77,1.35,0,2.44,1.85,3.11,7.09.47,5.47-6.53,10.96-1.16,15.61,8.2,5.22,19,5.97,28.41,7.45.44.03.86.05,1.27.05,13.19,0,11.23-17.88,16.99-26.59,13.2-28.81,7.14-63.21,13.34-93.61,3.23-10.28,9.57-19.51,12.33-29.98,2.7-9.42,1.11-20.4,7.19-28.43,10.9-11.59,24.37-29.95,10.78-44.65-10.53-9.04-29.85-15.34-28.66-32.22.67-1.94,1.6-2.68,2.71-2.68,3.75,0,9.58,8.44,14.39,8.44,1.48,0,2.86-.79,4.05-2.86,6.62-13.75,5.73-30.67,8.66-45.51,3.59-16.53,5.08-33.13,3.09-50-.53-12.29,5.83-23.21,6.57-35.36.86-10.81-.98-21.84-.82-32.63.32-12.88,6.34-24.8,6.81-37.69.96-13.75-3.6-27.26-2.97-40.86,1.44-20.16,15.85-35.9,25.51-52.79,5.06-8.99,14.7-15.55,17.03-25.81l.03-.15c2.89-12.04-7.34-19.17-15.6-19.17h0Z"/>
      </g>
      <g>
        <path class="cls-2" d="M311.55,687.74c-6.9,0-13.98-1.61-20.84-3.17l-1.23-.28c-3.69-1.06-7.23-2.03-10.66-2.97-8.23-2.26-16-4.39-24.42-7.36-3.29-1.12-9.08-5.2-9.48-7.57-.04-.22-.09-.54.51-1.03,1.6-.94,3.84-1.39,6.83-1.39,3.8,0,8.21.76,12.1,1.43,2.49.43,4.84.84,6.9,1.03,2.97.49,5.9,1.02,8.74,1.53,8.69,1.57,16.9,3.05,26.06,3.51.56.03,1.13.04,1.7.04,2.67,0,5.38-.28,8-.56,1.9-.2,3.69-.39,5.42-.46.04,0,.08,0,.13,0,.37-.04.73-.06,1.07-.06,1.59,0,2.7.44,3.38,1.35,1.13,1.5,1.21,4.4.24,7.75-1.14,3.9-4.39,6.94-8.27,7.74-1.87.32-3.97.49-6.16.49h0Z"/>
        <path class="cls-3" d="M252.26,665.96c3.62,0,7.95.75,11.76,1.4,2.5.43,4.86.84,6.98,1.05,2.93.49,5.83,1.01,8.64,1.52,8.76,1.58,17.03,3.08,26.32,3.54.58.03,1.18.04,1.8.04,2.78,0,5.54-.29,8.21-.57,1.87-.2,3.63-.38,5.3-.45.09,0,.17-.01.26-.02.3-.03.58-.05.85-.05.91,0,1.51.18,1.78.55.6.79.8,2.95-.08,5.99-.93,3.18-3.55,5.66-6.69,6.33-1.83.31-3.74.46-5.82.46-6.67,0-13.65-1.59-20.39-3.12l-1.18-.27c-3.68-1.06-7.21-2.03-10.63-2.96-8.19-2.25-15.94-4.37-24.33-7.33-2.56-.87-6.52-3.68-7.78-5.37,1.24-.49,2.92-.73,5.01-.73M252.26,661.96c-3.05,0-5.82.45-7.94,1.73l-.08.06c-5.05,3.95,5.55,10.75,9.5,12.1,12.04,4.24,22.73,6.78,35.25,10.38,7.27,1.65,15,3.51,22.57,3.51,2.21,0,4.4-.16,6.56-.53,4.7-.97,8.45-4.55,9.79-9.14,1.71-5.87.77-11.66-5.54-11.66-.41,0-.83.02-1.28.07-4.21.19-8.87,1.02-13.32,1.02-.54,0-1.07-.01-1.6-.04-12.09-.6-22.76-3.06-34.64-5.03-5.25-.49-12.85-2.48-19.25-2.48h0Z"/>
      </g>
      <g>
        <path class="cls-2" d="M440.38,743.39c-3.27,0-6.89-.54-9.8-.98l-1.24-.18c-14.79-2.29-31.35-8.8-46.61-18.33l-.6-.36c-9.61-5.79-11.32-8.28-11.61-9.07.31-.04.63-.06.97-.06,4.02,0,9.15,2.75,13.68,5.17,1.39.74,2.7,1.44,3.94,2.04,3.48,1.81,7.13,3.79,10.66,5.71,5.31,2.89,10.81,5.88,16,8.39,6.87,3.43,15.91,5.28,24.67,6.77.36.09.86.2,1.43.32.4.08,1.03.22,1.7.38-.95.14-2.02.21-3.19.21h0Z"/>
        <path class="cls-3" d="M376.81,717.7c2.49.99,5.12,2.4,7.43,3.64,1.39.74,2.7,1.44,3.96,2.06,3.5,1.82,7.13,3.79,10.63,5.69,3.75,2.04,7.59,4.12,11.34,6.06-8.84-3.2-17.83-7.59-26.42-12.96l-.58-.35c-2.77-1.67-4.83-3.03-6.36-4.13M371.5,712.41c-.67,0-1.32.06-1.95.2l-.07.03c-4.84,3.01,9.2,11.14,12.19,12.96,14.25,8.91,31.16,16.11,47.38,18.61,3.24.47,7.43,1.18,11.33,1.18,3,0,5.83-.42,7.92-1.69,1.11-1.69-5.55-2.68-7.44-3.18-8.1-1.37-17.3-3.16-24.21-6.61-8.57-4.15-17.78-9.49-26.66-14.1-5.34-2.59-12.67-7.41-18.5-7.41h0Z"/>
      </g>
      <g>
        <path class="cls-2" d="M425.35,717.74c-.95,0-1.96-.09-3.01-.26-4.44-.7-8.91-2.45-13.25-4.13l-.4-.16c-7.32-2.92-12.25-5.91-14.63-8.89-1.91-2.44-2.45-4.58-1.59-6.36,1.21-2.49,5.12-4.23,9.49-4.23.92,0,1.84.08,2.71.24.04,0,.33.04.33.04,3.33.42,6.83,1.36,10.22,2.27,2.26.6,4.59,1.23,6.88,1.71,2.54.55,5.27.91,7.69,1.22,2.39.31,4.65.6,6.3,1.03.04.01.09.02.13.03,2.68.51,3.23,1.77,3.41,2.67.71,3.62-3.49,10.32-7.13,12.67-2.11,1.46-4.43,2.15-7.16,2.15h0Z"/>
        <path class="cls-3" d="M401.97,695.71c.81,0,1.6.07,2.36.21.08.01.15.03.23.03l.19.02c3.21.41,6.49,1.29,9.97,2.22,2.28.61,4.65,1.24,6.95,1.72,2.64.58,5.42.94,7.88,1.25,2.33.3,4.53.58,6.05.98.09.02.18.04.27.06,1.66.31,1.76.84,1.81,1.09.5,2.56-3.01,8.51-6.25,10.61-.04.02-.07.05-.1.07-1.71,1.18-3.66,1.76-5.97,1.76-.84,0-1.75-.08-2.71-.24-4.21-.66-8.59-2.37-12.82-4.02l-.37-.14c-8.73-3.48-12.34-6.43-13.8-8.25-.97-1.24-2-2.99-1.38-4.27.74-1.53,3.82-3.1,7.7-3.1M401.97,691.71c-8.14,0-16,5.51-9.47,13.84,3.24,4.03,9.78,7.23,15.47,9.5,4.53,1.77,9.27,3.65,14.05,4.4,1.13.19,2.25.29,3.34.29,2.95,0,5.73-.73,8.24-2.46,5.59-3.61,13.44-17.02,3.01-18.99-3.51-.91-9.09-1.18-14.08-2.27-5.67-1.18-11.54-3.28-17.27-4.01l-.22-.03c-1.01-.18-2.04-.27-3.07-.27h0Z"/>
      </g>
      <g>
        <path class="cls-2" d="M384.54,663.56c.02-.11.05-.25.09-.4,3.14-7.24,10.2-12.16,17.78-16.97l2.28-1.36c10.44-6.25,22.27-13.33,34.31-13.54,4.12.25,6.31,1.72,6.45,2.25h0s-.09.27-.65.72c-2.83,1.98-7.09,2.8-11.21,3.6-1.51.29-2.93.57-4.3.9-7.02,1.57-12.71,3.87-18.4,7.44-3.94,2.4-7.73,5.28-11.4,8.07-2.9,2.2-5.9,4.48-8.89,6.45-1.96,1.29-4.63,2.63-6.08,2.86Z"/>
        <path class="cls-3" d="M438.96,633.29c1.05.07,1.94.23,2.67.41-2.38,1.01-5.44,1.6-8.41,2.18-1.45.28-2.95.57-4.36.91-7.26,1.63-13.12,4-19,7.69-4.04,2.47-7.86,5.37-11.56,8.18-3,2.28-5.84,4.44-8.78,6.38-.02.01-.04.02-.05.04,3.41-4.23,8.4-7.62,13.98-11.17.75-.45,1.52-.9,2.28-1.36,10.2-6.1,21.76-13.02,33.24-13.26M439.04,629.28c-13.52.21-26.32,8.44-37.71,15.22-7.22,4.59-15.09,9.83-18.57,17.94l-.04.12c-.64,2.26.1,3.04,1.42,3.04,2.13,0,5.76-2.03,7.57-3.22,6.82-4.5,13.24-10.22,20.25-14.5,5.68-3.57,11.28-5.73,17.8-7.19,5.22-1.27,11.97-1.83,16.24-4.84,3.96-3.15-.85-6.21-6.96-6.56h0Z"/>
      </g>
      <g>
        <path class="cls-2" d="M391.64,628.8c-3.55,0-7.38-.1-11.08-.19-2.55-.06-5.02-.13-7.26-.15-.5.01-.9.02-1.29.02-4.87,0-8.27-1.03-10.38-3.16-2.16-2.17-3.2-5.65-3.17-10.64,0-.04,0-.07,0-.11-.5-9.94.61-19.13,3.29-27.31.76-2.44,1.63-4.87,2.46-7.21,1.3-3.62,2.64-7.37,3.62-11.25,1.51-5.29,1.93-10.75,2.34-16.04.12-1.56.24-3.12.39-4.68.31-3.9,1.36-7.6,2.46-11.51.67-2.37,1.36-4.83,1.88-7.32,1.04-4.6.86-9.21.69-13.66-.05-1.4-.11-2.8-.12-4.22-.19-9.99,3.02-20.3,6.13-30.27l.84-2.71c1.43-5.21,2.96-10.41,4.44-15.44,2.05-6.98,4.18-14.19,6.02-21.38,2.7-11.24.92-22.73-.81-33.83-.6-3.83-1.21-7.79-1.61-11.6,0-.04,0-.08-.02-.12-.58-3.53-1.33-7.01-2.06-10.37-1.68-7.75-3.26-15.08-2.95-23.12.87-10.56,1.55-21.45,2.21-31.98,1.47-23.36,2.99-47.52,6.67-70.99.87-5.99,1.98-12.06,3.07-17.92,1.71-9.26,3.48-18.84,4.29-28.37.58-7.75.18-15.6-.21-23.2-.14-2.74-.29-5.56-.38-8.33-.19-5.94-1.31-11.71-2.4-17.29-.96-4.97-1.96-10.11-2.25-15.22-.84-15.89,11-26.84,22.46-37.43,2.22-2.05,4.52-4.18,6.63-6.26,5.35-5.79,9.73-12.3,13.97-18.59,3.53-5.24,7.18-10.66,11.29-15.51,10.29-12.75,22.8-23.88,34.89-34.65l1.4-1.24c9-8.8,18.73-9.98,27.07-9.98,3.76,0,7.54.26,11.55.54,4.09.28,8.33.58,12.61.58.94,0,1.89-.01,2.84-.05,3.41-.02,6.83-.27,10.14-.52,3.15-.24,6.42-.49,9.78-.53,4.41.03,8.93.34,13.31.65,4.63.32,9.42.66,14.18.66h.82c3.68-.19,7.41-.33,11.01-.47,14.43-.56,29.35-1.13,43.43-4.37,8.16-2.23,14.56-5.15,19.67-8.93,1.91-1.2,3.9-3.01,6.01-4.92,2.87-2.6,6.09-5.52,8.44-6.09,1.06.62,3.11,3.34,2.01,15.14-.8,8.56-2.89,18.16-4.14,23.9-.22,1-.41,1.87-.56,2.59-1.1,6.68-1.35,13.61-1.59,20.31-.34,9.37-.69,19.06-3.33,27.8l-.04.11c-3.09,8.59-10.3,15.23-17.27,21.65-2.82,2.6-5.73,5.28-8.33,8.05-.46.41-1.19,1.09-2.04,1.9-.23.22-.5.48-.8.76,2.35-4.27,4.13-8.95.52-11.31-.31-.21-.68-.32-1.06-.33h-.27c-8.53,0-19.75,8.62-24.49,16.36-1.54,2.38-2.77,5.22-3.97,7.96-2.76,6.35-5.37,12.34-11.68,13.55-1.64.39-3.3.55-5.04.71-3.16.29-6.43.59-9.41,2.27-6.53,3.95-8.98,12.15-11.13,19.39-.4,1.35-.79,2.66-1.2,3.9-.54,1.78-1.07,3.5-1.6,5.21-2.48,7.96-5.04,16.2-5.83,24.52-1.1,10.13.6,21.06,2.24,31.63,1.48,9.51,2.87,18.5,2.38,26.87-.47,8.46-2.76,17.01-4.97,25.27-.97,3.62-1.98,7.37-2.8,11.03-1.72,7.99-2.31,16.97-2.89,25.64-.18,2.69-.36,5.37-.57,8.01-.38,4.61-.66,9.29-.93,13.82-1.69,27.97-3.28,54.38-26.69,73.02-.05.04-.09.08-.13.12-5.72,5.45-9.32,12.33-12.8,18.99-.65,1.24-1.3,2.49-1.97,3.73-1.66,2.86-3.34,5.84-5.03,8.82-5.34,9.46-10.86,19.25-16.92,27.18-8,7.81-13.69,16.44-19.75,27-5.96,8.05-6.48,14.24-7.14,22.06-.14,1.68-.29,3.42-.5,5.29-2.34,10.12-6.87,22.36-10.33,30.03-3.75,9.54-12.75,13.48-22.27,17.65-6.8,2.98-13.82,6.05-18.75,11.33-.03.03-.06.06-.09.1-4.39,5.37-5.36,12.22-6.3,18.85-.44,3.13-.86,6.08-1.62,8.79-1.06,4.1-3.45,6.13-7.75,6.64-2.25.27-5.34.41-9.44.41Z"/>
        <path class="cls-3" d="M677.34,4.44c.57,1.27,1.46,4.84.45,14.11-.88,8.06-2.8,16.88-3.95,22.15-.22,1.01-.41,1.88-.56,2.6-.01.06-.02.12-.03.17-1.1,6.72-1.35,13.71-1.6,20.47-.35,9.65-.68,18.77-3.24,27.26l-.02.05c-2.96,8.16-9.97,14.62-16.75,20.86-1.75,1.61-3.54,3.26-5.27,4.94.08-2.23-.68-4.27-2.93-5.74-.63-.41-1.36-.64-2.11-.65-.1,0-.21,0-.31,0-10.15,0-21.71,10.02-26.17,17.27-1.64,2.55-2.9,5.45-4.12,8.25-3.08,7.08-5.3,11.44-10.22,12.38-.06.01-.13.03-.19.04-1.41.34-2.99.49-4.66.64-3.21.3-6.86.63-10.21,2.52-.04.02-.07.04-.11.06-7.14,4.31-9.82,13.29-11.96,20.5-.4,1.36-.79,2.64-1.18,3.84-.01.03-.02.06-.03.09-.52,1.72-1.05,3.44-1.59,5.15-2.51,8.05-5.1,16.38-5.9,24.9-1.12,10.41.59,21.46,2.25,32.15,1.46,9.41,2.84,18.29,2.35,26.46-.45,8.25-2.72,16.69-4.91,24.86-.98,3.64-1.99,7.41-2.83,11.15-1.74,8.12-2.35,17.16-2.93,25.91-.18,2.64-.36,5.36-.56,7.98-.38,4.64-.66,9.33-.94,13.87-1.66,27.51-3.23,53.49-25.94,71.58-.09.07-.18.15-.27.23-5.96,5.68-9.64,12.71-13.19,19.52-.64,1.22-1.27,2.44-1.93,3.65-1.69,2.91-3.39,5.92-5.03,8.83-5.28,9.36-10.74,19.03-16.69,26.84-8.08,7.91-13.83,16.62-19.93,27.23-6.23,8.47-6.8,15.2-7.45,22.99-.14,1.63-.28,3.32-.48,5.12-2.32,9.96-6.77,22-10.18,29.55-.03.06-.05.12-.08.18-3.41,8.68-12.04,12.45-21.18,16.45-6.98,3.06-14.2,6.22-19.41,11.8-.06.06-.12.13-.17.2-4.74,5.8-5.8,13.26-6.73,19.83-.43,3.06-.84,5.95-1.57,8.53,0,.03-.01.05-.02.08-.85,3.27-2.54,4.7-6.05,5.12-2.17.26-5.17.39-9.19.39-3.53,0-7.34-.1-11.03-.19-2.59-.07-5.03-.13-7.29-.15-.02,0-.03,0-.05,0-.04,0-.09,0-.13,0-.39.01-.77.02-1.14.02-4.31,0-7.25-.84-8.97-2.57-1.76-1.77-2.61-4.79-2.59-9.22,0-.07,0-.15,0-.22-.49-9.7.59-18.64,3.2-26.59,0-.02.01-.04.02-.06.74-2.37,1.6-4.77,2.43-7.1,1.31-3.65,2.66-7.43,3.66-11.38,1.56-5.52,1.99-11.07,2.41-16.44.12-1.53.24-3.11.39-4.64,0-.02,0-.04,0-.06.29-3.68,1.31-7.28,2.39-11.09.68-2.4,1.38-4.88,1.9-7.43,1.1-4.88.92-9.61.74-14.17-.05-1.37-.11-2.79-.12-4.2-.18-9.65,2.98-19.81,6.04-29.62.28-.91.56-1.81.84-2.71.01-.04.02-.08.04-.12,1.41-5.13,2.94-10.32,4.41-15.34,2.06-6.99,4.19-14.22,6.04-21.46,0-.02,0-.04.01-.06,2.79-11.6.97-23.28-.79-34.58-.62-3.98-1.21-7.74-1.6-11.51,0-.08-.02-.15-.03-.23-.59-3.58-1.35-7.08-2.08-10.46-1.64-7.6-3.2-14.78-2.91-22.54.87-10.64,1.55-21.51,2.21-32.02,1.46-23.31,2.98-47.42,6.66-70.85.86-5.93,1.97-11.97,3.05-17.82,1.72-9.31,3.49-18.94,4.32-28.6.59-7.86.18-15.78-.21-23.44-.14-2.73-.29-5.54-.38-8.28-.2-6.1-1.33-11.95-2.43-17.61-1-5.13-1.93-9.98-2.22-14.94-.79-14.96,10.7-25.59,21.82-35.86,2.23-2.06,4.54-4.2,6.68-6.31.04-.04.09-.09.13-.13,5.39-5.84,9.82-12.41,14.1-18.77,3.5-5.2,7.12-10.57,11.16-15.34.02-.02.04-.05.06-.07,10.16-12.59,22.6-23.66,34.63-34.37l1.4-1.25s.09-.08.14-.13c8.39-8.21,17.26-9.35,25.6-9.35,3.69,0,7.44.26,11.41.54,4.13.29,8.39.58,12.75.58.97,0,1.93-.02,2.85-.04,3.52-.02,6.96-.28,10.28-.53,3.11-.24,6.33-.48,9.62-.52,4.37.03,8.85.34,13.18.64,4.66.33,9.49.66,14.32.66.28,0,.55,0,.83,0,.06,0,.11,0,.17,0,3.58-.18,7.31-.33,10.91-.47,14.52-.56,29.54-1.14,43.8-4.42.05-.01.11-.03.16-.04,8.29-2.27,14.9-5.28,20.19-9.19,2.03-1.3,4.07-3.14,6.22-5.09,1.92-1.74,4.62-4.18,6.51-5.2M678.13,0c-4.8.56-11.02,8.45-15.79,11.43-5.65,4.2-12.38,6.82-18.99,8.63-17.46,4.02-36.34,3.89-54.01,4.79-.27,0-.53,0-.8,0-9.19,0-18.3-1.26-27.52-1.31-7,.1-13.31,1.03-19.96,1.06-.93.03-1.85.04-2.77.04-8.29,0-16.38-1.12-24.16-1.12-10.06,0-19.6,1.88-28.4,10.49-12.75,11.36-25.73,22.76-36.48,36.09-9.11,10.75-15.56,23.6-25.14,33.98-12.75,12.6-30.75,25.1-29.68,45.23.63,10.98,4.29,21.4,4.65,32.47.36,10.39,1.38,20.91.6,31.29-1.32,15.44-5.11,30.72-7.34,46.15-5.37,34.2-6.1,69.02-8.91,103.21-.46,11.94,3.15,22.48,5.04,33.9,1.55,14.7,6.01,30.04,2.48,44.73-3.16,12.35-7.07,24.44-10.44,36.73-3.32,10.75-7.27,22.36-7.06,33.59.07,5.95.78,11.67-.53,17.45-1.31,6.39-3.84,12.49-4.37,19.04-.65,6.86-.77,13.74-2.68,20.42-1.59,6.29-4.12,12.16-6.04,18.33-2.96,9-3.87,18.52-3.39,28.04-.05,11.52,5.31,15.81,15.56,15.81.41,0,.84,0,1.27-.02,5.49.07,12.32.35,18.37.35,3.68,0,7.06-.1,9.67-.42,4.82-.57,8.1-2.92,9.44-8.09,2.42-8.6,1.53-19.55,7.54-26.91,11.25-12.05,34.55-12.12,41.39-29.52,3.75-8.31,8.21-20.66,10.49-30.52,1.2-10.72.39-17.25,7.34-26.59,5.74-10,11.46-18.87,19.58-26.76,8.08-10.54,15.02-23.99,22.21-36.39,4.24-7.89,7.87-16.02,14.38-22.22,28.05-22.33,25.69-55.54,28.38-88.25.89-11.19,1.21-23.12,3.41-33.38,2.7-11.94,7.14-24.19,7.82-36.63,1.08-18.23-6.65-39.73-4.62-58.43.93-9.86,4.37-19.45,7.34-29.3,2.47-7.52,4.43-17.95,11.41-22.17,4.14-2.33,9.29-1.65,13.85-2.75,10.41-1.98,11.95-14.65,16.98-22.43,4.22-6.88,14.76-15.4,22.79-15.4.08,0,.15,0,.23,0,3.94,2.59-3.55,11.91-5.05,15.46-.47.99-.47,1.4-.14,1.4,1.35,0,8.19-6.86,10-8.43,8.94-9.6,21.52-17.77,26.1-30.52l.05-.15c4.62-15.29,2.39-32.58,4.96-48.28,1.84-8.78,9.81-41.59.94-44.11h0Z"/>
      </g>
      <g>
        <path class="cls-2" d="M399.85,115.45c.17-1.54,2.22-5.02,2.95-6.25.39-.65.73-1.23.96-1.68,2-3.31,3.9-6.75,5.74-10.08,1.81-3.27,3.68-6.66,5.63-9.9,3.79-6.71,10.11-13.71,14.9-14.21h.13c.1-.02.21-.03.32-.03,1.09,0,1.91.5,2.36,1.44,1.29,4.09-2.95,9.01-6.36,12.97-.83.97-1.62,1.89-2.31,2.76-2.06,2.39-4.04,5.1-5.96,7.71-3.4,4.64-6.91,9.43-11.28,13.01-.24.18-.57.44-.93.71-1.75,1.35-4.34,3.37-6.15,3.54Z"/>
        <path class="cls-3" d="M430.47,75.31c.29,0,.41.07.49.19.78,3.03-3.13,7.57-6.01,10.91-.83.96-1.61,1.87-2.31,2.76-2.15,2.5-4.13,5.21-6.05,7.83-3.46,4.72-6.73,9.18-10.87,12.6-.29.22-.61.47-.95.73-.16.12-.36.28-.58.45.12-.21.24-.4.33-.56.38-.65.72-1.21.98-1.71,2-3.33,3.9-6.77,5.74-10.09,1.8-3.26,3.67-6.63,5.59-9.84.02-.03.04-.06.06-.09,3.47-6.15,9.41-12.75,13.31-13.15h.11c.05-.02.1-.02.16-.02M430.47,71.31c-.17,0-.35,0-.52.02h-.13c-6.2.65-13.02,9.18-16.41,15.18-3.96,6.58-7.45,13.48-11.39,20.02-1.26,2.41-5.77,8.78-3.56,10.74.37.13.75.19,1.15.19,2.89,0,6.42-3.09,8.59-4.72,7.08-5.81,11.73-14.27,17.54-21.03,3.69-4.69,11.08-11.38,8.96-17.69-.76-1.71-2.31-2.71-4.22-2.71h0Z"/>
      </g>
      <g>
        <path class="cls-2" d="M485.77,601.66c-.28,0-.54-.05-.8-.17-3.12-2.73-3.08-13.56-3.06-19.42,0-1.61.01-3-.03-4.16.04-8.54.09-17.44,2.31-26.31.8-3.43,1.91-6.87,2.99-10.18,1.18-3.66,2.41-7.45,3.26-11.31.2-.84.39-1.71.59-2.59.59-2.68,1.16-5.22,2.09-7.64,1.45-3.97,3.41-7.61,5.48-11.47l.42-.79c1.51-2.69,2.8-5.56,4.06-8.32,1.45-3.21,2.96-6.54,4.8-9.55,2.72-4.23,6.82-8.2,11.16-12.4,3.16-3.06,6.42-6.22,9.28-9.63.91-1.01,1.88-2.13,2.86-3.26,2.34-2.7,4.77-5.5,7.2-7.68,1.77-1.56,2.78-2.06,3.24-2.22,1.49,2.76-2,13.66-3.72,19.06-1.19,3.73-2.22,6.96-2.48,8.97-.91,4.45-1.18,9-.78,13.52.1,1.28.25,2.59.39,3.86.38,3.31.73,6.44.28,9.49-.7,4.42-2.18,9.02-3.61,13.48-1.22,3.79-2.48,7.71-3.3,11.63-.72,4.27-1.52,8.5-2.29,12.6-.79,4.18-1.61,8.5-2.33,12.79-.5,2.87-.76,5.84-1.01,8.71-.52,5.91-1.01,11.5-3.39,16.48-1.37,2.82-4.05,4.55-7.95,5.14-.85.15-1.66.28-2.47.4-2.87.45-5.83.91-8.74,2.1-2.68,1.06-4.95,2.82-7.14,4.52l-.14.11c-.46.33-.95.7-1.43,1.06-2.2,1.65-4.28,3.2-5.75,3.2h0Z"/>
        <path class="cls-3" d="M539.84,458.13c-.09.91-.27,2.09-.61,3.62-.78,3.55-2.09,7.64-3.24,11.24-1.26,3.93-2.26,7.06-2.55,9.25-.94,4.61-1.21,9.33-.81,13.98.1,1.34.25,2.67.4,3.96.36,3.18.7,6.18.3,8.93-.68,4.29-2.07,8.62-3.54,13.2-1.23,3.84-2.51,7.81-3.35,11.84-.01.05-.02.11-.03.16-.7,4.16-1.5,8.37-2.27,12.45-.8,4.2-1.62,8.54-2.33,12.84-.51,2.96-.78,5.97-1.03,8.88-.51,5.73-.98,11.14-3.19,15.76-1.08,2.21-3.25,3.57-6.45,4.05-.04,0-.07.01-.11.02-.78.14-1.58.26-2.37.39-2.98.46-6.06.94-9.15,2.21-2.96,1.18-5.45,3.11-7.65,4.82l-.08.06c-.5.36-.98.72-1.45,1.07-1.37,1.03-3.39,2.54-4.33,2.77-.44-.65-1.2-2.25-1.65-5.94-.46-3.73-.45-8.1-.43-11.61,0-1.6.01-2.98-.03-4.16.04-8.47.09-17.22,2.25-25.84,0-.02,0-.04.01-.06.78-3.32,1.83-6.56,2.94-9.99,1.2-3.7,2.43-7.52,3.3-11.47.21-.87.4-1.74.59-2.62.58-2.61,1.12-5.07,2.01-7.36,0-.02.02-.04.02-.06,1.39-3.8,3.31-7.38,5.34-11.16l.41-.77c1.56-2.79,2.87-5.68,4.13-8.48,1.49-3.29,2.89-6.39,4.66-9.29,2.63-4.06,6.63-7.94,10.87-12.05,3.18-3.08,6.46-6.26,9.37-9.73.96-1.07,1.94-2.2,2.89-3.29,2.3-2.66,4.68-5.4,7.01-7.48.05-.04.1-.09.15-.13M541.93,452.47c-1.15,0-2.84.99-4.88,2.8-3.56,3.18-6.97,7.49-10.27,11.15-6.67,7.96-15.67,14.6-20.61,22.28-3.49,5.72-5.64,12.14-8.91,17.97-2.19,4.09-4.41,8.13-6.01,12.48-1.31,3.39-1.92,6.98-2.77,10.52-1.6,7.26-4.54,14.2-6.23,21.44-2.21,8.85-2.32,17.47-2.37,26.87.21,6.36-.91,21.42,4.01,25.22.63.32,1.25.47,1.88.47,2.53,0,5.16-2.32,8.4-4.68,2.12-1.65,4.32-3.37,6.81-4.36,3.5-1.43,7.21-1.74,10.75-2.37,4.11-.62,7.64-2.52,9.46-6.26,3.76-7.87,3.09-17.15,4.57-25.72,1.41-8.47,3.18-16.82,4.61-25.3,1.77-8.44,5.6-16.83,6.93-25.23.67-4.57-.31-9.22-.66-13.81-.38-4.35-.13-8.71.77-13.03.69-5.87,9.92-26.4,5.18-30.3l-.06-.02c-.18-.07-.37-.1-.58-.1h0Z"/>
      </g>
    </g>
  </g>
</svg>