<?xml version="1.0" encoding="UTF-8"?>
<svg id="Layer_2" xmlns="http://www.w3.org/2000/svg" viewBox="0 0 644.12 856.06">
  <defs>
    <style>
      .cls-1 {
        fill: "currentColor";
        stroke: #fff;
        stroke-linejoin: round;
        stroke-width: 4px;
      }
    </style>
  </defs>
  <g id="Layer_1-2" data-name="Layer_1">
    <path class="cls-1" d="M642.11,237.54c-.09-14.11-13.78-20.78-25.17-25.66-7.67-3.17-13.72-9.78-21.2-13.26-34.02-6.58-20.91-16.46-18.72-42.41.87-12.04-5.39-23.31-6.33-35.27-.94-10.01,2.85-20.73-2.67-29.89-9.33-12.11-15.58-26.35-22.46-39.97-4.72-8-12.1-13.32-17.78-20.45-6.04-8.13-8.23-23.08-21.31-21.33-5.13.31-10.76,2.03-15.79.58-7.2-1.44-14.81-11.76-21.76-4.76-3.36,3.14-6,7.34-10.24,9.43-6.98,3.42-16.05,1.15-23.47,2.61-8.36,1.69-15.2,6.86-23.35,8.99-4.79,1.46-9.8,1.87-14.74,2.61-10.16,1.63-20.03,5.28-30.44,5.36-23.45,1.33-43.33-13.56-58.41-29.56-12.71-9.63-28.28,10.16-25.32,22.5,2.12,7.88,9.53,13.6,10.82,21.84.67,11.62-1.31,23.86-4.4,35.06-12.49,27.72-17,27.78-39.92,43.87-11.84,11.97-22.55,22.88-40.84,16.83-7.85-2.12-15.64-5.04-22.65-8.97-5.67-3.49-10.08-8.64-16.14-11.55-6.32-3.8-14.28-3.76-20.23-7.97-4.43-3.6-7.34-8.72-12.27-11.83-9.49-6.29-21.39-7.23-32.43-10.08-15.97-5.39-42.76-3.44-37.37,19.76,2.16,7.88,8.64,14.02,10.88,21.82,4.32,13.42-9.04,21.7-15.2,31.52-5.44,10.47-7.35,22.45-10.15,33.82-.8,13.98-.6,28.52-10.56,39.68-5.78,7.81-10.01,16.62-15.86,24.37-6.9,8.66-15.29,16.8-17.74,27.95-2.88,10.95-2.19,22.71-5.4,33.63-5.37,14.23,4.45,22.11,17.72,25.94,16.96,5.15,46.03,10.27,52.74,29.16,1.86,13.54-7.67,27.84-12.52,39.94-9.7,15.54-10.13,29.1-11.47,46.51-4.27,14.31-10.12,28.38-11.94,43.36-1.93,9.17,2.56,13.95,10.96,15.53,10.72,2.12,25.15,4.92,35.91,4.42,5.86-.37,14.04-1.91,15.5,5.99-.12,49.28,37.05,30.16,52.84,61.2,5.06,13.75-4.9,28.54,12.72,36.03,13.37,7.48,26.26,21.31,28.62,36.87.74,7.23-1.87,14.17-3.65,21.08-2.26,8.6-4.04,16.83-8.11,24.65-12.52,18.96-26.91,28.69.27,45.22,8.24,5.81,16.18,12.04,25.9,15.67,11.11,5.42,27.47,7.22,36.49,15.29,9.17,7.36-2.36,26.88,12.5,28.68,17.24-2.29,20.34-27.65,33.44-35.72,8.3-4.76,19.9-.76,25.86,6.2,4.77,5.59,5.28,12.92,6.17,21.12,1.23,10.08,2.66,21.37,5.61,30.53,1.25,5.5,7,12.9,12.61,7.89,2.12-2.99,2.95-7.1,5.45-9.97,6.51-8.6,15.43-.18,23.11.68,8.78-.24,10.69-10.55,11.53-17.55.93-5.44,2.42-10.5,3.05-15.92.73-3.85.76-8.08,2.81-11.45,9.87-7.6,18.29-6.58,15.87-23.09-3.69-15.81-20.44-25.53-24.3-41.43-2.59-11.18,5.79-23.7,16.91-25.69,1.55-.49,4.34-.83,4.28-2.77-1.59-5.82-10.77-19.76-1.35-22.79,3.56.6,5.98,4.13,8.63,6.34,5.15,5.61,13.51,6.4,19.79,1.97,9.1-5.18,7.49-16.89,10.93-25.43,2.6-6.94,8.97-12.24,11.05-19.26,1.35-5.42-.92-11.02-.04-16.5.63-9.06,13.66-16.7,8.25-26.34-10.38-20.21,26.67,5.01,19.06-37.74-2.36-9.01,1.49-18.85-4.11-26.54-16.96-16.96-50.55,9.53-55.39-12.44-2.73-13.75,9.44-14.58,19.34-16.61,13.33-2.64,8.72-21.16,19.09-26.83,8.21-3.83,22.24,0,27.55-9.96,3.57-6.11,3.5-13.55,4.99-20.3,1.17-6.32,5.08-11.56,7.76-17.22,5.26-15.13-5.96-18.99,4.65-39.69,10.47-20.96-7.74-42.14-1.79-63.33,4.58-12.11,7.62-25.62,12.12-37.88,4.89-12.35,17.22-18.01,27.87-24.53,10.54-5.69,21.74-15.04,30.53-22.32,5.25-2.84,7.75,5.75,10.95,8.91,6.64,6.29,10.04,15.13,14.18,23.09,6.45,12.22,28.95,13.49,36.6,2.06,3.17-6.43,3.06-13.88,4.84-20.79,1.63-7.75,6.46-15.5,6.24-23.38"/>
  </g>
</svg>