<?xml version="1.0" encoding="UTF-8"?>
<svg id="Layer_2" xmlns="http://www.w3.org/2000/svg" viewBox="0 0 360.69 402.99">
  <defs>
    <style>
      .cls-1 {
        fill: "currentColor";
        stroke: #fff;
        stroke-linejoin: round;
        stroke-width: 4px;
      }
    </style>
  </defs>
  <g id="Layer_1-2" data-name="Layer_1">
    <path class="cls-1" d="M273.48,382.82c6.89-10.2-10.66-28.87,13.49-46.82,19.88-11.63,22.49-8.77,36.11-30.16,10.55-16.31,24.86-29.93,31.64-48.33,2.57-6.13,4.92-12.44,3.59-19.01-2.98-11.71-12.13-18.39-11.09-32.61,1.25-15.78-8.6-12.36-20.1-11.97-8.64.39-17.4-2.12-25.85-3.29-5.38-.96-14.94-2.45-17.24-6.66-3.51-5.97,3.74-30.02,6.01-37.47,2.08-6.12,5.36-12.29,6.13-18.28,1.12-10.43-.43-21.2,4.35-30.99,4.92-10.08,9.72-19.42,14.24-30.19,3.64-8.28,8.45-19.35,4.03-27.76-4.9-7.77-14.91-11.68-22.92-15.83-11.58-5.73-23.34-6.27-35.05-11.03-30.25-15.44-30.26-11.42-60.78-2.57-7.35,1.84-15.29,2.36-22.38,4.93-14.35,5.12-23.72,17.79-33.61,28.67-4.88,4.89-12.93,16.87-20.12,16.7-1.35-.11-2.48-.69-3.66-1.42-2.98-1.97-6.8-5.68-10.44-7.69-10.25-5.43-23.73-6.71-34.39-2.41-8.23,3.56-14.03,11.32-19.59,17.98-17.67,21.28-8.7,25.18-14.02,47.21-1.38,4.84-3.78,9.46-5.73,14.02-1.78,3.89-2.84,7.82-4.81,11.58-2.09,3.93-4.78,8.21-7.4,13.61-3.64,6.5-3.91,15.92-6.21,21.49-3.2,9.86-24.62,10.99-11.44,20.46,13.4,8.8,37.45,7.46,25.62,29.68-3.2,6.37-4.21,13.85-.02,20.01,3.21,5.64,9.01,10.48,11.42,16.66,4.56,13.1-7.85,23.92-9.32,36.68-2.33,11.26,2.14,25.3,14.26,28.45,6.09,1.8,13.55.31,18.83,1.05,6.03.31,9.93,4.6,14.87,7.5,7.21,3.7,16.83,2.34,25.22,2.62,19.01-.03,30.17-1.45,46.21,9.38,9.73,4.85,13.75,7.92,13.09,19.29.05,1.7.33,3.52,1.79,4.58,3.59,2.29,8.91,2.32,13.17,3.35,8.65,1.84,16.62,6.45,24.79,10.41,14.09,6.56,27.55,23.15,43.98,13.36,4.38-2.27,8.52-4.82,12.9-7.27,4.35-2.52,8.3-4.79,10.33-7.77"/>
  </g>
</svg>