<?xml version="1.0" encoding="UTF-8"?>
<svg id="Layer_2" xmlns="http://www.w3.org/2000/svg" viewBox="0 0 139.42 147.6">
  <defs>
    <style>
      .cls-1 {
        fill: "currentColor";
        stroke: #fff;
        stroke-linejoin: round;
        stroke-width: 4px;
      }
    </style>
  </defs>
  <g id="Layer_1-2" data-name="Layer_1">
    <path class="cls-1" d="M136.91,61.28c-.5-4.1-1.1-8.1-1.42-12.14-.56-5.34-.3-11.08-1.89-16.23-3.62-11.63-19.16-11.38-29.85-14.41-9.86-2.32-19.18-6.36-27.77-11.76-7.49-4.69-16.41-7.43-23.48-.74-7.84,6.94-7.55,19.91-14.45,26.8-6.08,5.71-15.74,5.89-22.92,9.9-12.83,6.42-11.17,22.17-12.24,34.36-.77,8.22-.83,16.5-.89,24.91.13,8.35-.36,18.25,6.26,23.88,5.43,4.5,13.32,4.46,20.57,8.18,2.41,1.21,4.68,2.72,6.9,4.23,7.8,5.6,16.79,11.55,25,3.25,2.22-2.05,4.44-4.73,7.54-5.42,3.79-1.33,11.03,1.55,10.45-2.2-1-7.16-5.98-13.23,5.56-11.15,1.44.04,5.07,1.22,5.3-.44.2-2.11-7.28-9.9-7.81-15.26-.63-3.68,1.79-7.2,4.93-8.89,2.19-1.2,4.12-1.07,5.05.41,2.07,3.8.43,9.4,3,12.99,1.58,2.11,4.68,2.1,7.05,1.39,3.75-1.15,6.7-3.48,9.68-6.25,3.63-3.38,7.16-7.02,10.28-10.63,10.5-11.94,17.62-16.97,15.16-34.59"/>
  </g>
</svg>