<?xml version="1.0" encoding="UTF-8"?>
<svg id="Layer_2" xmlns="http://www.w3.org/2000/svg" viewBox="0 0 243.69 178.47">
  <defs>
    <style>
      .cls-1 {
        fill: "currentColor";
        stroke: #fff;
        stroke-linejoin: round;
        stroke-width: 4px;
      }
    </style>
  </defs>
  <g id="Layer_1-2" data-name="Layer_1">
    <path class="cls-1" d="M239.56,122.99c1.71-17.01-2.59-17.4-10.21-31.18-3.15-5.64-4.35-12.79-8.78-17.59-6.13-5.84-14.66-7.93-21.54-12.9-4.12-2.81-8.32-6.19-13.03-8.82-3.42-1.94-7.02-3.59-10.51-5.38-6.55-3.4-13.1-7-20.17-8.15-4.18-1.08-12.99.12-13.24-5.72.08-5.12,1.57-10.92-2.51-14.99-3.21-3.33-8.15-5.11-12.07-7.68-4.51-3.03-9.18-5.7-14.18-7.01-5.03-1.71-12.2-1.6-19.05-1.56-8.41,0-18.05,0-26.28,0-6.67.16-10.3.06-14.69,2.97-4.19,3.2-6.24,8.02-8.47,13.26-1.89,4.75-3.71,9.91-5.72,14.71-3.9,9.51-9.99,18.16-12.41,28.23-1.91,7.09-3.28,14.17-6.98,20.7-3.54,6.62-7.45,12.81-12.22,18.27-4.11,4.86-6.99,10.47-4.68,17.07,2.87,7.94,9.38,14.37,16.44,18.77,6.66,4.47,14.78,4.49,22.39,5.32,9.62,1.63,17.81,3.29,26.87-1.49,7.55-3.87,16.43-6.03,23.5-10.39,7.19-4.56,13.34-12.53,22.48-12.64,13.36.21,22.87,13.18,34.62,18.21,7.1,3.41,14.33,5.02,21.44,7.11,8.25,2.39,16.75,5.23,25.44,6.98,15.75,2.83,26.1,4.95,35.35,19.35,2.78,3.81,8.15,13.01,9.92,4.45,1.36-9.28-1.06-18.34-1.58-27.88-.75-7.37-.91-14.63-.14-21.87"/>
  </g>
</svg>