<?xml version="1.0" encoding="UTF-8"?>
<svg id="Layer_2" xmlns="http://www.w3.org/2000/svg" viewBox="0 0 242.76 272.73">
  <defs>
    <style>
      .cls-1 {
        fill: "currentColor";
        stroke: #fff;
        stroke-linejoin: round;
        stroke-width: 4px;
      }
    </style>
  </defs>
  <g id="Layer_1-2" data-name="Layer_1">
    <path class="cls-1" d="M235.24,161.73c-9.38-17.99,1.07-20.91,5.13-36.19,1.09-5.55-.13-11.1-3.59-15.41-4.02-5.06-8.82-9.96-13.89-14.1-7.33-5.6-10.93-4.38-19.24-2.17-7.65,2.04-17.18-.13-22.44-6.51-8.9-12.07-6.86-23.81-25.43-26.35-6.13-.83-12.05-2.6-15.74-7.7-4.66-6.29-9.73-13.69-12.99-20.68-2.03-4.66-2.38-9.58-3.87-14.5-2.81-9.51-13.19-16.52-23.03-16.11-6.06.01-11.9,2.32-17.09,5.42-9.23,5.8-19.97,10.83-28.44,17.97-4.22,3.9-7.44,8.77-10.37,13.68-2.77,4.89-5.27,9.73-6.71,15.85-2.24,10.17-1.04,21.66-10.64,28.24-6.47,4.48-12.48,9.49-17.38,15.85C.24,109.86,1.01,119.61,4.1,132.44c1.3,5.82,1.73,11.88,3.32,17.19,1.01,3.5,2.37,6.89,3.63,10.29,2.17,6.52,5.4,12.65,7.01,19.19,1.19,5.74,2.36,11.24,2.79,17.16.41,9.65-3.57,19.17-4.54,28.64-.96,6.22-.48,12.63-2.19,18.96-1.86,7.34-8.57,16.4.69,20.98,3.42,1.76,7.74,2.29,11.58,2.87,5.14.8,10.8,1.5,15.96,2.25,3.49.51,6.99,1.02,10.5.63,4.84-.45,9.74-2.81,15.11-4.8,6.82-2.73,15.11-3.99,20.22-9.37,5.72-6.28,6.65-15.67,11.78-22.31,4.61-6.32,12.17-8.34,19.37-5.61,4.52,1.58,8.79,4.17,13.06,6.38,6.49,3.45,13.29,6.07,20.12,7.82,6.71,1.65,15.9,3.89,20.91,2.18,11.1-3.78,1.65-20.74,10.43-26.29,2.78-1.78,6.91-1.83,10.4-1.99,6.03.04,12.88-1.6,18.21-5.22,9.91-6.33,18.25-14.52,24.12-24.56,5.18-8.62,3.07-16.84-1.26-24.92"/>
  </g>
</svg>