<?xml version="1.0" encoding="UTF-8"?>
<svg id="Layer_2" xmlns="http://www.w3.org/2000/svg" viewBox="0 0 243.11 374.33">
  <defs>
    <style>
      .cls-1 {
        fill: "currentColor";
        stroke: #fff;
        stroke-linejoin: round;
        stroke-width: 4px;
      }
    </style>
  </defs>
  <g id="Layer_1-2" data-name="Layer_1">
    <path class="cls-1" d="M236.97,208.09c-6.77-2.31-14.94.75-22.68-1.54-11.13-2.82-15.93-15.11-14.65-25.71.59-7.07,3.59-13.74,6.79-19.9,2.66-5.49,4.89-10.69,4-16.44-1.31-7.94-8.65-13.13-12.55-19.74-11.32-15.6,15.32-30.08-3.3-40.06-5.18-3.55-29.19-8.03-26.18-16.75,1.79-2.73,5.62-3.86,8.43-5.68,2.88-1.69,5.42-3.87,6.9-6.88,2.1-4.02,1.9-10.29,3.79-16.1,1.52-4.96,4.35-9.66,6.06-14.47,4.19-10.51-8.88-14.74-16.97-16.35-8.69-1.97-16.41-3.79-24.88-5.36-11.77-2.19-24.17-.86-36.02,1.58-10.16,2.16-17.53,3.18-16.23,16.02.79,10.7-3.99,20.53-8.4,30.05-4.67,10.81-8.57,22.24-12.84,33.25-10.82,26.58-16.63,54.48-24.62,81.99-2.14,8.06-4,16.98-4.83,25.4-.94,10.61-.58,21.63-4.02,31.82-2.6,8.15-6.46,15.95-7.38,24.54-1.07,9.44-1.8,19.43-4.33,28.51-2.65,10.71-7.39,19.17-14.5,28.14-8.17,10.92-25.53,26.72-10.88,38.97,5.57,3.25,12.18,3.24,17.72,6.84,3.51,1.75,7.06,5.11,10.42,7.52,4.61,3.3,10.4,5.24,15.91,7.2,4.87,1.66,9.89,3.01,15.02,3.44,8.25.83,16.34-.83,24.29.18,5.16.47,10.04,2.57,15.05,3.49,16.01,2.8,16.84-16.64,34.81-25.74,9.98-5.37,19.29-12.76,30.17-15.73,14.03-2.48,19.14-8.46,27.2-19.46,6.25-7.51,12.44-17.26,15.2-27,2-7.1,3.88-14.18,7.17-20.85,5.11-9.53,9.63-19.33,13.46-29.49,2.47-7.17,12.49-21.07,2.97-25.66"/>
  </g>
</svg>