<?xml version="1.0" encoding="UTF-8"?>
<svg id="Layer_2" xmlns="http://www.w3.org/2000/svg" viewBox="0 0 204.49 343.11">
  <defs>
    <style>
      .cls-1 {
        fill: "currentColor";
        stroke: #fff;
        stroke-linejoin: round;
        stroke-width: 4px;
      }
    </style>
  </defs>
  <g id="Layer_1-2" data-name="Layer_1">
    <path class="cls-1" d="M181.58,234.85c1.16-6.26.96-12.99,1.99-19.08.9-6.29,2.67-12.63,3.72-18.96,1.35-8.02-.61-15.56-1.97-23.16-1.41-7.13-4.95-13.63-7.22-20.65-2.84-7.05-4.96-14.63-5.88-22.28-.89-5.51-2.43-11.12-2.86-16.08-1.87-12.85,7.14-23.62,16-31.76,6.5-5.6,13.34-8.26,15.77-16.95,4.33-18.08-1.35-29.32-20.88-31.3-7.53-.88-15.22.78-23.03.02-11.3-1.32-26.18-6.06-34.75-13.63-6.52-6.31-14.58-8.23-22.75-10.79-7.55-4.58-10.29-13.05-19.88-4.69-7.11,6.53-14.91,12.82-23.31,17.78-21.07,12.25-38.6,32.82-40.89,57.8-4.94,29.97.46,61.44-5.85,91.24-2.17,9.86-4.02,20.2-3.97,30.47-.02,7.81.98,15.82,1.53,23.59.81,12,2.04,24.71,3.95,36.44,1.33,8.61,1.09,17.44-1.26,25.82-1.48,5.71-3.15,11.47-4.63,17.21-1.17,5.63-8.14,25.65,2.07,22.35,19.2-6.57,27.86,5.02,43.69,11.75,20.19,7.38,24.73-24.05,42.93-26.27,10.95-1.64,22.18,5.13,33.11.91,9.05-2.83,17.3-9.92,21.12-18.77,4.3-8.33,1.66-17.42.19-26.01-.71-6.56-.79-14.63,4.75-19.16,10.64-6.98,23.26,4.23,28.29-15.67"/>
  </g>
</svg>