<?xml version="1.0" encoding="UTF-8"?>
<svg id="Layer_2" xmlns="http://www.w3.org/2000/svg" viewBox="0 0 210.89 379.45">
  <defs>
    <style>
      .cls-1 {
        fill: "currentColor";
        stroke: #fff;
        stroke-linejoin: round;
        stroke-width: 4px;
      }
    </style>
  </defs>
  <g id="Layer_1-2" data-name="Layer_1">
    <path class="cls-1" d="M53.28,377.45c1.64-.06,2.83-1.69,4.04-2.69,8.81-8.15,15.84-20.15,28.03-23.35,5.02-2.92-13.13-13.3-14.54-17.52-3.84-5.02-1.41-12.59,4.88-13.9,3.51-.89,7.18-.58,10.75.03,9.75,2.39,21.72,6.68,15.83-8.17-3.25-7.96-12.7-9.71-19.35-14.05-4.09-2.59-8.83-9.23-2.65-11.66,3.89-1.47,8.3-1.89,12.2-3.66,7.74-3.65,15.71-11.79,24.9-7.38,9.09,4.1,14.59,13.67,17.71,22.79,4.25,10.14,1.96,24.42,10.81,31.92,6.69,5.45,16.74.27,18.19-7.81,3.17-17.05-5.9-33.55-10.44-49.66-4.46-16.07-5.27-33.54-6.53-49.9.8-12.83-.82-24.92-4.71-37.18-3.65-18.48,11.84-11.17,21.99-16.72,3.73-1.97,7.16-7.84,11.23-7.83,2.96.03,4.24,3.15,5.07,5.57,1.72,5.07,1.42,11.49,4.12,16.4,2.67,5.83,11.6,11.36,16.02,4.37,3-5.34,3.07-11.93,4.35-17.87,1.68-10.64,4.54-22.13,3.48-33.14-.75-20.05-16.52-25.94-16.14-41.55,1.36-9.57,3.28-19.15-4.08-26.7-6.96-8.05-11.74-17.42-16.08-26.7-4.28-8.18-6.09-17.34-9.35-25.85-5.16-11.79-28.32-16.06-39.15-11.37-12.45,4.91-16.54,23.89-30.93,25.22-16.83-.9-28.87-20.17-47.3-12.99-21.26,8.33-21.61,54.42-24.32,74.14-2.11,14.83-4.69,33.59-8.83,49.7-4.13,16.95-14.04,33.72-9.16,51.32,7.06,30.69,15,64.51,22.24,95.73,3.38,19.62,8.73,24.82,23.71,36.64,17.27,11.56,9.13,26.05,4.73,42.22-.61,3.3-3.05,10.03-.75,11.6"/>
  </g>
</svg>