<?xml version="1.0" encoding="UTF-8"?>
<svg id="Layer_2" xmlns="http://www.w3.org/2000/svg" viewBox="0 0 97.98 367.41">
  <defs>
    <style>
      .cls-1 {
        fill: "currentColor";
        stroke: #fff;
        stroke-linejoin: round;
        stroke-width: 4px;
      }
    </style>
  </defs>
  <g id="Layer_1-2" data-name="Layer_1">
    <path class="cls-1" d="M90.3,78.31c-.41-8.17-.18-16.48.28-24.63.5-11.99,3.49-24.04-5.15-33.26-6.75-6.66-17.23-5.34-25.85-7.42-11.24-1.28-21.55-14.18-33.25-10.26-12.45,6.57-6.18,22.93-4.94,33.9.39,5.81-1.53,11.48-4.66,16.43-4.39,6.79-11.59,12.12-13.65,20.25-3.09,11.13.96,22.84,6.33,32.59,3.73,7.04,6.81,14.36,11.74,20.94,9.82,10.96,13.92,14.75,10.12,30.08-3.17,11.6,7.57,19.59,12.46,29.08,7.46,15.09,3.22,32.83.26,48.37-1.34,6.23-1.89,14.93-4.42,18.95-2.9,5.27-9.82,3.39-14.64,4.62-8.65,2.55-5.37,23.8-2.95,30.89,2.68,8.58,9.46,15.18,14.45,22.33,3.05,4.11,1.99,7.86-.47,11.99-4.48,6.66-4.32,13.88-1.65,21.71,2.62,6.84,6.44,24.85,16.27,19.61,6.39-4.36,7.8-12.54,11.98-18.72,4.44-6.66,12.6-11.47,13.05-20.18.52-6.05-1.78-12.15-2.99-18.12-1.28-6.34-3.28-12.5-6.6-18.04-4.37-7.06-9.37-15.57-.82-21.59,6.35-4.36,16.97-1.67,21.51-8.36,3.6-5.55,3.66-12.63,4.41-19.07.63-6.58,1.55-12.02,1.51-18.05.08-7.56-.31-14.77.33-22.37,1.31-8.84,1.7-18.62-3.08-26.43-3.29-5.81-8.34-10.51-11.09-16.67-4.15-8.39-2.76-18.4,2.75-25.74,1.52-2.04,3.37-3.77,5.19-5.54,17.67-15.61,4.84-28.4,3.59-47.07"/>
  </g>
</svg>