<?xml version="1.0" encoding="UTF-8"?>
<svg id="Layer_2" xmlns="http://www.w3.org/2000/svg" viewBox="0 0 140.15 201.19">
  <defs>
    <style>
      .cls-1 {
        fill: "currentColor";
        stroke: #fff;
        stroke-linejoin: round;
        stroke-width: 4px;
      }
    </style>
  </defs>
  <g id="Layer_1-2" data-name="Layer_1">
    <path class="cls-1" d="M77.54,2.18c-5.78-1.37-8.02,5.55-10.62,10.3-1.98,4.21-4.08,8.14-7.37,10.87-5.18,4.33-9.87-.06-14.51-4.52-4.31-4.42-10.64-6.35-17.05-5.8-8.59.44-16.84,5.01-17.71,14.27-.94,6.71.71,13.61-.25,20.37-1.13,9.2-6.22,17.92-7.45,27.19-1.79,12.2.65,22.78,5.76,33.11,2.94,5.62,6.99,11.12,10.4,16.56,6.72,11.09,10.46,24.16,11.09,37.05.45,12.62,2.29,20.17,12.59,28.32,7.08,5.84,13.09,11.18,21.37,8.65,10.4-3.93,17.49-14.22,16.81-25.69-.45-6.68-3.16-12.11-5.17-17.78-2.61-6.52,1.55-12.54,5.8-17.43,3.09-3.55,6.51-7.39,10.42-9.48,3.01-1.64,6.46-1.59,9.81-1.53,2.83.07,5.57-.19,8.34-.21,2.18,0,4.3.09,6.42-.21,4.89-.77,9.37.08,14.33-2.02,11.68-5.29,8.12-14.82,1.07-23.03-7.59-9.56-17.29-21.35-24.52-31.63-5.73-8.29-9.35-17.76-13.48-26.97-2.77-6.41-6.17-12.53-8.39-19.11-1.15-3.44-1.66-6.31-2.19-9.02-.9-4.15-1.07-10.61-5.43-12.25"/>
  </g>
</svg>