<?xml version="1.0" encoding="UTF-8"?>
<svg id="Layer_2" xmlns="http://www.w3.org/2000/svg" viewBox="0 0 229.51 173.06">
  <defs>
    <style>
      .cls-1 {
        fill: "currentColor";
        stroke: #fff;
        stroke-linejoin: round;
        stroke-width: 4px;
      }
    </style>
  </defs>
  <g id="Layer_1-2" data-name="Layer_1">
    <path class="cls-1" d="M214.93,44.11c-7.14-6.31-16.8-7.82-25.86-9.53-9.44-1.76-18.77-4.81-27.74-7.38-9.01-2.51-18.8-4.84-27.12-10.03-9.18-5.51-18.07-15.03-29.25-15.17-9.3.01-15.6,8-22.92,12.6-5.56,3.57-12.55,5.29-18.76,8.14-6.67,3.13-13.6,6.27-21.11,5.32-2.62-.21-5.29-.73-7.91-1.15-4.93-.88-10.62-1.01-16.03-1.84-3.65-.47-7.48-1.51-11.08-1.17-11.27,2.05-1.03,14.97,2.51,20.8,4.43,6.8,8.48,15.09,17.38,16.43,6.45,1.27,14.01,1.71,18.7,6.96,4.7,4.94,6.27,13.29,10.23,18.95,2.42,3.65,6.39,6.4,10.68,7.76,4.73,1.58,8.83,1.31,13,.3,4.52-1.01,8.07-2.79,11.68-1.86,6.64,1.81,12.64,8.52,17.42,13.52,4.59,4.75,8.58,10.4,7.95,17.33-.15,8.28-7.11,14.96-8.96,22.38-2.1,9.39,3.7,21.32,13.25,24.16,6.59,1.85,14.81-2.85,22.27-3.91,10.81-2.1,16.88-3.41,17.76-15.88.46-4.14.78-8.4,1.78-12.48,1.66-7.21,5.12-14.23,6.18-21.22,1.56-8.3-1.27-17.38,1.62-25.4,3.62-9.87,18.03-12.44,26.87-9.7,6.39,2.15,9.29,11.26,16.54,11.26,6.56-.92,10.55-9.79,12.29-15.58,3.72-12.28-1.49-25.19-11.22-33.5"/>
  </g>
</svg>