<?xml version="1.0" encoding="UTF-8"?>
<svg id="Layer_2" xmlns="http://www.w3.org/2000/svg" viewBox="0 0 215.43 211.69">
  <defs>
    <style>
      .cls-1 {
        stroke: #fff;
        stroke-linejoin: round;
        stroke-width: 4px;
      }

      .cls-1, .cls-2 {
        fill: "currentColor";
      }

      .cls-3 {
        fill: "currentColor";
      }
    </style>
  </defs>
  <g id="Layer_1-2" data-name="Layer_1">
    <g>
      <path class="cls-1" d="M180,105.46c-1.56,6.25,5.64,9.9,10.88,7.31,3.96-1.74,7.2-4.78,10.37-7.7,2.79-2.6,5.51-5.3,7.95-8.19,7.72-8.47,4.68-18.21-7.61-12.49-7.46,3.83-19.5,12.89-21.56,20.91"/>
      <g>
        <path class="cls-2" d="M185.55,209.69c-3.97,0-7.62-1.37-10.57-3.97-1.56-1.52-2.58-3.57-3.37-5.37-1.26-2.76-2.35-5.74-3.41-8.61-.99-2.7-2.01-5.49-3.16-8.07-1.99-4.09-4.46-7.89-6.98-10.77-1.42-1.61-3.2-3.34-5.64-4.09-1.17-.33-2.35-.48-3.66-.48-1.99,0-3.95.36-5.84.71-1.81.34-3.52.65-5.18.65-.68,0-1.3-.05-1.88-.16-4.56-.75-8.55-4.15-12.42-7.44-.61-.52-1.21-1.03-1.81-1.53l-.71-.65c-2.06-1.86-4.18-3.79-5.63-5.94-1.48-2.15-1.78-5.03-2.08-8.08-.42-4.16-.9-8.88-4.8-12.04-.03-.02-.06-.05-.09-.07-3.42-2.45-7.45-2.85-11.35-3.23-1.47-.14-2.85-.28-4.18-.52-3.63-.49-6.73-1.64-9.3-3.43-1.89-1.43-3.76-3.16-5.56-4.82-2.48-2.29-5.04-4.66-8.01-6.58-1.49-.96-3-1.84-4.47-2.69-2.33-1.35-4.53-2.62-6.57-4.18-3.97-3.14-7.26-6.79-10.73-10.66-2.62-2.91-5.32-5.92-8.37-8.72-3.27-2.97-7.01-5.78-10.62-8.51-8.49-6.4-17.27-13.01-21.41-22.39-1.49-3.55-.24-4.9,2.97-7.9.39-.36.79-.73,1.19-1.12,2.16-2.25,3.24-5.06,3-7.78-.12-2.55-1.64-4.48-3.89-4.84-.96-.12-1.88-.12-2.77-.13-1.98-.01-3.86-.03-5.03-1.06-1.09-.88-1.49-2.26-1.02-3.35,1.46-2.69,6.38-3.57,10.73-4.34,2.46-.44,4.79-.85,6.72-1.58,3.39-1.05,6.34-2.33,8.94-3.46,4.52-1.96,8.43-3.65,13.22-3.65,2.21,0,4.5.35,7.02,1.07.08.02.16.04.24.05.2.03.4.07.6.1.69.12,1.47.26,2.28.26,1.23,0,2.26-.31,3.17-.96.08-.05.15-.11.22-.18,2.11-2,3.9-3.63,6.11-4.84,3.29-1.44,5.47-3.67,7.59-5.82,2.34-2.38,4.55-4.63,8.24-5.79,1.66-.5,3.44-.76,5.27-.76,6.68,0,13.37,3.36,18.46,6.28l2.23,1.3c5.4,3.12,10.98,6.35,16.07,10.07,7.67,5.77,13.85,13.08,19.39,20.13.64.84,1.33,1.74,2.04,2.67,4.12,5.36,8.79,11.44,11.5,16.9,1.86,3.67,3.41,7.68,4.62,11.94,1.14,5.44,3.71,10.75,6.2,15.89,3.25,6.7,6.32,13.03,6.48,19.57-.07,1.77-.51,3.52-1.35,5.38-.02.04-.03.07-.05.11-.63,1.65-1.76,3.34-2.85,4.97-2.57,3.85-5.78,8.65-2.07,13.88,2,2.62,4.74,4.61,7.38,6.53,2.13,1.55,4.14,3.01,5.71,4.7,2.17,2.2,3.87,4.78,5.67,7.52,1.12,1.71,2.29,3.48,3.57,5.14,2.59,3.41,6.32,6.36,10.76,8.53,1.59.86,3.52,1.59,5.39,2.3,4.37,1.66,8.89,3.38,10.2,7.12v.04c.88,3.95-1.41,8.11-3.63,12.12-.37.68-.74,1.35-1.09,2.01-1.26,2.3-2.23,4.74-3.18,7.1-.51,1.28-1.04,2.6-1.6,3.86-.01.03-.03.07-.04.1-2.62,6.91-9.38,11.55-16.81,11.55h0Z"/>
        <path class="cls-3" d="M82.55,4c6.21,0,12.59,3.21,17.45,6l2.24,1.3c5.59,3.24,10.87,6.29,15.87,9.94,7.49,5.64,13.56,12.82,19,19.74.65.86,1.34,1.76,2.05,2.68,4.06,5.29,8.67,11.29,11.31,16.61,1.79,3.51,3.28,7.38,4.45,11.5,1.19,5.66,3.81,11.06,6.35,16.28,3.14,6.47,6.11,12.59,6.28,18.69-.07,1.48-.45,2.97-1.17,4.56-.03.07-.06.15-.09.22-.55,1.44-1.57,2.96-2.65,4.58-2.61,3.9-6.54,9.79-2.04,16.15.03.04.06.08.09.12,2.14,2.79,4.99,4.87,7.75,6.87,2.05,1.49,3.98,2.9,5.42,4.44.03.03.06.06.09.09,1.99,2.01,3.63,4.51,5.37,7.16,1.15,1.74,2.33,3.55,3.64,5.24,2.78,3.65,6.72,6.79,11.41,9.09,1.76.94,3.72,1.68,5.62,2.41,4.07,1.55,7.91,3.01,8.98,5.8.63,3.25-1.35,6.85-3.45,10.65-.37.68-.74,1.35-1.1,2.01-1.33,2.42-2.32,4.91-3.28,7.32-.53,1.32-1.02,2.56-1.57,3.78-.03.07-.06.13-.08.2-2.29,6.04-8.44,10.26-14.94,10.26-3.44,0-6.61-1.18-9.17-3.41-1.07-1.06-1.95-2.49-2.93-4.74,0-.02-.02-.04-.02-.05-1.21-2.67-2.29-5.61-3.34-8.45-1-2.73-2.04-5.55-3.21-8.19-.02-.04-.04-.09-.06-.13-2.03-4.18-4.6-8.14-7.26-11.17-1.51-1.7-3.61-3.77-6.54-4.67-.03,0-.06-.02-.09-.03-1.3-.37-2.66-.55-4.15-.55-2.17,0-4.23.38-6.21.75-1.72.32-3.34.62-4.81.62-.55,0-1.05-.04-1.52-.13-.03,0-.06-.01-.08-.01-3.97-.66-7.75-3.87-11.41-6.98-.59-.5-1.18-1-1.76-1.48l-.71-.65c-2.06-1.86-4-3.62-5.31-5.57,0-.01-.02-.03-.03-.04-1.18-1.71-1.45-4.34-1.73-7.12-.44-4.32-.99-9.71-5.53-13.39-.06-.05-.12-.1-.19-.14-3.86-2.77-8.35-3.2-12.32-3.59-1.42-.14-2.77-.27-4.01-.5-.06-.01-.12-.02-.18-.03-3.19-.43-5.97-1.44-8.27-3.03-1.85-1.41-3.58-3.01-5.41-4.69-2.54-2.35-5.17-4.77-8.28-6.79-1.53-.99-3.07-1.88-4.56-2.74-2.26-1.31-4.4-2.54-6.33-4.02-3.85-3.04-7.07-6.63-10.49-10.43-2.65-2.94-5.38-5.99-8.52-8.87-3.33-3.02-7.1-5.87-10.76-8.62-8.28-6.23-16.83-12.68-20.77-21.56-.93-2.22-.73-2.66,2.49-5.66.4-.37.8-.75,1.21-1.14.04-.03.07-.07.1-.1,2.49-2.59,3.77-5.94,3.51-9.21-.2-3.53-2.43-6.22-5.57-6.72-.05,0-.09-.01-.14-.02-1-.12-1.98-.13-2.93-.13-1.53-.01-3.11-.02-3.71-.56-.05-.04-.1-.09-.15-.13-.29-.23-.45-.61-.38-.88,1.11-1.78,5.81-2.61,9.27-3.22,2.54-.45,4.93-.88,7.02-1.65,3.47-1.08,6.45-2.37,9.08-3.51,4.5-1.95,8.05-3.48,12.43-3.48,2.02,0,4.14.32,6.47.99.16.04.32.08.48.11.19.03.38.06.57.1.77.14,1.64.29,2.63.29,1.63,0,3.09-.45,4.33-1.33.15-.11.3-.23.44-.36,1.98-1.88,3.65-3.41,5.62-4.5,3.6-1.6,6-4.05,8.13-6.21,2.25-2.29,4.2-4.27,7.37-5.27,1.49-.45,3.08-.68,4.71-.68M82.55,0c-1.96,0-3.92.26-5.87.85-7.67,2.4-9.59,8.9-16.11,11.72-2.54,1.37-4.57,3.26-6.61,5.19-.63.44-1.31.59-2.01.59-.84,0-1.72-.2-2.57-.34-2.82-.81-5.3-1.15-7.57-1.15-8.15,0-13.64,4.37-22.81,7.21-5.44,2.08-15.82,1.6-18.6,6.93-.91,2.01-.18,4.38,1.49,5.72,2.4,2.13,6.05,1.34,8.82,1.67,1.47.23,2.14,1.63,2.21,3.04.2,2.32-.81,4.51-2.4,6.17-3.58,3.46-6.95,5.64-4.59,11.27,6.18,14.01,21.75,21.79,32.51,31.56,6.92,6.36,11.99,13.77,19.24,19.49,3.48,2.68,7.44,4.54,11.17,6.96,4.96,3.23,8.8,7.8,13.52,11.37,2.98,2.08,6.45,3.27,10.09,3.75,4.92.89,10.55.4,14.72,3.4,5.84,4.73,2.51,13.9,6.49,19.67,1.77,2.64,4.33,4.84,6.72,7.02,4.46,3.7,9.3,8.43,15.13,9.39.75.14,1.5.2,2.25.2,3.66,0,7.4-1.37,11.02-1.37,1.03,0,2.06.11,3.07.4,1.91.59,3.41,2.02,4.72,3.5,2.55,2.91,4.87,6.6,6.66,10.27,2.33,5.26,4.11,11.28,6.56,16.67.97,2.23,2.13,4.37,3.88,6.07,3.49,3.07,7.7,4.47,11.89,4.47,7.84,0,15.65-4.88,18.67-12.84,1.6-3.6,2.81-7.37,4.71-10.83,2.57-4.85,6.11-10.07,4.9-15.58l-.03-.11c-2.21-6.51-11.14-7.68-16.63-10.64-3.86-1.88-7.44-4.52-10.05-7.95-3.2-4.14-5.66-9.06-9.35-12.79-3.74-4.04-9.66-6.76-12.93-11.03-4.23-5.98,2.87-11.02,5.16-16.98.89-1.96,1.46-4.02,1.53-6.19-.28-12.37-10.26-23.91-12.74-35.95-1.19-4.22-2.75-8.37-4.77-12.36-3.28-6.61-9.32-14.07-13.76-19.92-5.89-7.5-12.13-14.75-19.78-20.51-5.87-4.28-12.19-7.82-18.48-11.48-5.85-3.36-12.61-6.55-19.46-6.55h0Z"/>
      </g>
    </g>
  </g>
</svg>