<?xml version="1.0" encoding="UTF-8"?>
<svg id="Layer_2" xmlns="http://www.w3.org/2000/svg" viewBox="0 0 80.67 85.98">
  <defs>
    <style>
      .cls-1 {
        fill: "currentColor";
        stroke: #fff;
        stroke-linejoin: round;
        stroke-width: 4px;
      }
    </style>
  </defs>
  <g id="Layer_1-2" data-name="Layer_1">
    <path class="cls-1" d="M40.69,2.77c-13.32-4.28-15.77,10.28-21.69,18.42-2.58,3.89-6.37,6.87-9.59,10.16-3.09,3.17-5.22,7.19-6.43,11.44-2.54,8.11.14,16.85,5.08,23.52,6.3,8.71,14.89,17.02,26.21,17.62,11.57.47,30.61-3.52,28.89-18.51-.27-2.99-1.46-6.71-1.15-9.53.8-4.57,7.34-1.99,9.64-5.12,1.33-2.34-.79-7.64,1.37-10.38,1.38-2.04,4.12-3.15,5.28-5.28,1.61-4.17-2.25-8.42-5.68-11.6-6.61-6.13-13-10.89-21.23-15.7-3.28-2.02-6.84-3.94-10.52-4.99"/>
  </g>
</svg>