<?xml version="1.0" encoding="UTF-8"?>
<svg id="Layer_2" xmlns="http://www.w3.org/2000/svg" viewBox="0 0 326.25 408.24">
  <defs>
    <style>
      .cls-1 {
        fill: "currentColor";
        stroke: #fff;
        stroke-linejoin: round;
        stroke-width: 4px;
      }
    </style>
  </defs>
  <g id="Layer_1-2" data-name="Layer_1">
    <path class="cls-1" d="M324.04,265c-1.07-8.79-3.45-17.42-3.93-26.33-.54-6.29-.79-12.74-4.62-17.94-6.3-8.38-20.38-13.37-28.84-6.55-10.67,9.26-13.81,27.06-26.5,34.16-7.33,4.46-14.53-1.5-13.86-9.56,0-4.31,1.11-9.27-.16-13.18-2.5-7.44-11.28-10.31-18.36-12.83-10.87-3.42-21.81-6.85-31.73-12.31-6.59-3.75-11.82-8.42-17.64-12.37-7.46-5.12-17.86-11.98-13.49-22.45,3.53-9.15,12.69-15.33,16.32-24.54,3.43-7.71,4.62-15.66,6.99-23.98,2.84-8.95,5.74-18.63,1.47-27.63-1.61-3.89-4.05-7.4-6.57-10.77-4.06-5.35-8.26-10.79-13.54-14.37-4.44-3.06-9.86-5.18-13.95-8.61-5.65-4.36-4.22-11.43-3.7-17.84,2.09-13.17-6.68-25.27-18.25-30.57-4.96-2.47-12.83-6.69-17.34-4.93-8.77,6.13-10.48,19.07-15.77,28.1-6.52,13.15-17.02,23.49-24.95,35.99-4.6,6.73-8.69,14.08-14.79,19.55-10.39,8.74-26.97,11.45-32.91,25.32-3.89,7.32-3.07,15.99-1.64,23.75,4.35,22.45-25.71,14.55-24.22,40.99.49,12.29,11.21,20.61,13.73,32.1.98,5.26.15,11.58-.06,17.1-.49,7.15.4,14.6,1.06,22.01,1.13,11.55,2.48,23.77,6.75,34.28,2.24,5.62,4.92,10.92,7.42,16.64,9.06,19.34,17.12,39.55,33.34,54.34,5.21,4.37,11.32,9.26,16.28,13.52,6.08,5.06,12.82,5.1,17.81,10.7,2.1,2.6,2.98,7.49,4.23,11.75,1.84,8.53,10.45,15.32,18.76,10.17,2.75-1.71,5.03-4.11,7.5-6.17,1.23-.93,3.62-3.15,4.97-2.62,3.66,2.57-5.14,11.81-.73,15.38,6.18,3.67,11.54-4.37,14.7-8.87,2.73-4,6.12-7.57,10.37-10.09,12.35-6.59,30.57-11.08,43.63-4.04,6.85,3.51,12.06,9.22,18.95,11.69,8.03,3.18,17.94.75,24.55-4.75,3.86-3.07,7.42-6.5,11.55-9.01,10.41-5.88,19.15-8.14,25.71-19.34,4.86-7.2,6.87-15.77,7.22-24.32.52-6.09,1.38-11.67,2.09-17.95,1.12-9.56,3.78-21.7,14.19-24.72,4.58-1.42,10.04-.99,13.59-4.57,1.76-1.59,2.93-5.71,3.54-9.11.86-4.97,1.35-9.93.86-15.07"/>
  </g>
</svg>